<svg xmlns="http://www.w3.org/2000/svg" xmlns:xlink="http://www.w3.org/1999/xlink" width="20" height="20" viewBox="0 0 20 20">
  <defs>
    <path id="documents.2-a" d="M6.5,0 L7,5 L12,5.5 L12,15 L5.5,15 L5.5,8.5 L0.5,3.5 L0,3.5 L0,0 L6.5,0 Z"/>
    <polygon id="documents.2-c" points="0 0 6.5 0 7 5 12 5.5 12 15 0 15"/>
  </defs>
  <g fill="none" fill-rule="evenodd" transform="translate(1 1)">
    <g transform="translate(6)">
      <mask id="documents.2-b" fill="#fff">
        <use xlink:href="#documents.2-a"/>
      </mask>
      <path fill="#000" fill-opacity=".35" stroke="#000" d="M1.9229139,0.5 L9.4361148,0.5 C10.1860349,0.5 10.4650013,0.560408843 10.7410463,0.708039303 C10.9785491,0.835057224 11.1649428,1.02145086 11.2919607,1.25895373 C11.4395912,1.53499868 11.5,1.81396507 11.5,2.5638852 L11.5,2.5638852 L11.5,13.0770861 C11.5,13.6041265 11.4627976,13.8022714 11.3587439,13.9968348 C11.2753027,14.1528562 11.1528562,14.2753027 10.9968348,14.3587439 C10.8022714,14.4627976 10.6041265,14.5 10.0770861,14.5 L10.0770861,14.5 L1.9229139,14.5 C1.39587346,14.5 1.19772863,14.4627976 1.00316515,14.3587439 C0.847143769,14.2753027 0.724697275,14.1528562 0.641256127,13.9968348 C0.53720244,13.8022714 0.5,13.6041265 0.5,13.0770861 L0.5,13.0770861 L0.5,1.9229139 C0.5,1.39587346 0.53720244,1.19772863 0.641256127,1.00316515 C0.724697275,0.847143769 0.847143769,0.724697275 1.00316515,0.641256127 C1.19772863,0.53720244 1.39587346,0.5 1.9229139,0.5 L1.9229139,0.5 Z" mask="url(#documents.2-b)"/>
    </g>
    <path stroke="#000" d="M12.5,0.526827714 L17.20832,4.91542676 L18,5.5 L13.9229139,5.5 C13.3958735,5.5 13.1977286,5.46279756 13.0031652,5.35874387 C12.8471438,5.27530272 12.7246973,5.15285623 12.6412561,4.99683485 C12.5372024,4.80227137 12.5,4.60412654 12.5,4.0770861 L12.5,4.0770861 L12.5,0.526827714 Z"/>
    <g transform="translate(0 3)">
      <mask id="documents.2-d" fill="#fff">
        <use xlink:href="#documents.2-c"/>
      </mask>
      <path stroke="#000" d="M1.9229139,0.5 L9.4361148,0.5 C10.1860349,0.5 10.4650013,0.560408843 10.7410463,0.708039303 C10.9785491,0.835057224 11.1649428,1.02145086 11.2919607,1.25895373 C11.4395912,1.53499868 11.5,1.81396507 11.5,2.5638852 L11.5,2.5638852 L11.5,13.0770861 C11.5,13.6041265 11.4627976,13.8022714 11.3587439,13.9968348 C11.2753027,14.1528562 11.1528562,14.2753027 10.9968348,14.3587439 C10.8022714,14.4627976 10.6041265,14.5 10.0770861,14.5 L10.0770861,14.5 L1.9229139,14.5 C1.39587346,14.5 1.19772863,14.4627976 1.00316515,14.3587439 C0.847143769,14.2753027 0.724697275,14.1528562 0.641256127,13.9968348 C0.53720244,13.8022714 0.5,13.6041265 0.5,13.0770861 L0.5,13.0770861 L0.5,1.9229139 C0.5,1.39587346 0.53720244,1.19772863 0.641256127,1.00316515 C0.724697275,0.847143769 0.847143769,0.724697275 1.00316515,0.641256127 C1.19772863,0.53720244 1.39587346,0.5 1.9229139,0.5 L1.9229139,0.5 Z" mask="url(#documents.2-d)"/>
    </g>
    <path stroke="#000" d="M6.5,3.52682771 L11.20832,7.91542676 L12,8.5 L7.9229139,8.5 C7.39587346,8.5 7.19772863,8.46279756 7.00316515,8.35874387 C6.84714377,8.27530272 6.72469728,8.15285623 6.64125613,7.99683485 C6.53720244,7.80227137 6.5,7.60412654 6.5,7.0770861 L6.5,7.0770861 L6.5,3.52682771 Z"/>
  </g>
</svg>
