<svg xmlns="http://www.w3.org/2000/svg" width="25" height="13" viewBox="0 0 25 13">
  <g fill="none" fill-rule="evenodd">
    <circle cx="7.5" cy="6.5" r="5" stroke="#000"/>
    <path fill="#000" d="M7.5,5.75 C7.91421356,5.75 8.25,6.08578644 8.25,6.5 C8.25,6.91421356 7.91421356,7.25 7.5,7.25 C7.08578644,7.25 6.75,6.91421356 6.75,6.5 C6.75,6.08578644 7.08578644,5.75 7.5,5.75 Z M9.75,5.75 C10.1642136,5.75 10.5,6.08578644 10.5,6.5 C10.5,6.91421356 10.1642136,7.25 9.75,7.25 C9.33578644,7.25 9,6.91421356 9,6.5 C9,6.08578644 9.33578644,5.75 9.75,5.75 Z M5.25,5.75 C5.66421356,5.75 6,6.08578644 6,6.5 C6,6.91421356 5.66421356,7.25 5.25,7.25 C4.83578644,7.25 4.5,6.91421356 4.5,6.5 C4.5,6.08578644 4.83578644,5.75 5.25,5.75 Z"/>
    <polyline stroke="#000" stroke-linecap="round" stroke-linejoin="round" points="16.5 5.5 19.5 8.5 22.5 5.5"/>
  </g>
</svg>
