<svg xmlns="http://www.w3.org/2000/svg" xmlns:xlink="http://www.w3.org/1999/xlink" width="2246" height="565">
  <defs>
    <linearGradient id="c" x1="5.418%" x2="50%" y1="0%" y2="100%">
      <stop offset="0%" stop-color="#FB8332" />
      <stop offset="100%" stop-color="#F8C332" />
    </linearGradient>
    <linearGradient id="d" x1="0%" x2="50%" y1="19.847%" y2="80.153%">
      <stop offset="0%" stop-color="#FB8332" />
      <stop offset="100%" stop-color="#F8C332" />
    </linearGradient>
    <linearGradient id="e" x1="0%" x2="50%" y1="18.616%" y2="81.384%">
      <stop offset="0%" stop-color="#E64C4C" />
      <stop offset="100%" stop-color="#FB8332" />
    </linearGradient>
    <linearGradient id="f" x1="0%" x2="50%" y1="9.899%" y2="90.101%">
      <stop offset="0%" stop-color="#E64C4C" />
      <stop offset="100%" stop-color="#FB8332" />
    </linearGradient>
    <path id="a" d="M0 0h2246v565H0z" />
  </defs>
  <g fill="none" fill-rule="evenodd">
    <mask id="b" fill="#fff">
      <use xlink:href="#a" />
    </mask>
    <g mask="url(#b)">
      <path fill="url(#c)"
        d="M1291.152 260.363c130.966-35.092 262.801 32.25 294.463 150.412 31.661 118.163-48.84 242.4-179.806 277.493-40.584 10.874-81.251 11.912-118.995 4.65-23.665 33.034-58.27 58.286-100.293 69.547a181.252 181.252 0 01-30.627 5.455c21.743-37.602 29.525-83.558 18.463-129.238-29.928-26.39-52.253-60.674-63.012-100.826-31.661-118.163 48.84-242.4 179.807-277.493z"
        transform="translate(50 -399)" />
      <path fill="#F8C332"
        d="M778.24 139.298l35.104-11.994 1.503-.505.74-.245 1.461-.476.72-.232 1.421-.449.701-.218 1.382-.422c.228-.07.456-.137.682-.205l1.345-.396.663-.192 1.309-.37 1.285-.354.634-.17 1.252-.33.618-.158 1.219-.304 1.198-.288c.396-.094.789-.185 1.178-.273l1.158-.257.572-.123 1.13-.234 1.111-.219.55-.104 1.084-.197 1.069-.183.528-.086 1.044-.161c.345-.052.688-.1 1.029-.148l1.014-.134.502-.062.993-.113.98-.101.485-.046.961-.081.95-.07c.629-.041 1.25-.075 1.865-.1l.918-.033.455-.012.904-.016.895-.004.887.007.88.018.437.013.87.034.865.044.858.054.854.064.85.074.424.04.845.088.422.047.84.102.84.11.839.118.837.127c13.543 2.116 25.633 7.9 35.779 17.117l.624.572.618.579.613.584.607.592.3.298.6.603.593.611.294.31.586.624.581.635.577.645.572.656.285.332.566.674c.094.114.188.227.281.342l.56.693c.187.233.372.468.557.706l.554.72.55.735.548.75.272.382.544.774c.18.26.36.524.54.79l.539.81c.179.271.358.547.536.825l.535.845.267.43.532.873c.265.442.53.891.795 1.349l.53.924.528.947.263.481.528.98.526 1.003.264.51.526 1.039c.088.175.176.351.263.528l.527 1.076c.176.362.351.73.527 1.1l.528 1.128.528 1.153.53 1.181.53 1.209.533 1.237.533 1.266.268.644.536 1.311.538 1.341.54 1.373.544 1.404.272.714.548 1.453.55 1.486 21.895 60.157.176-.064a96.378 96.378 0 001.877 5.702c12.409 34.092 42.318 56.76 75.903 61.56-9.472 14.269-23.43 25.746-40.765 32.055l-.944.334.004.008-99.214 36.11-1.832.658-1.788.634-1.746.609-1.705.585-1.663.562-1.624.539-1.585.515c-.522.169-1.038.333-1.547.494l-1.51.471-.742.228-1.457.439c-.24.071-.478.142-.716.211l-1.405.408-1.372.387-1.34.367-.659.176-1.293.337-1.264.318-1.236.299-1.207.28-1.18.262c-.39.085-.775.166-1.155.245l-1.13.227-.556.107-1.094.201-.539.095-1.06.177-1.04.16-1.019.146c-.336.046-.67.089-1 .13l-.982.115-.964.1-.948.087-.468.039-.926.066-.911.053-.899.04-.886.027c-.294.008-.585.013-.875.016l-.865.004h-.43l-.851-.016-.844-.023-.42-.016-.833-.04a68.639 68.639 0 01-.415-.023l-.826-.054-.823-.064-.82-.072a78.237 78.237 0 01-.408-.04l-.817-.084-1.224-.143-.817-.105-.819-.111c-13.667-1.918-25.926-7.577-36.25-16.736l-.922-.827-.607-.556-.6-.561-.594-.567-.59-.573-.584-.58-.579-.59-.575-.598-.57-.61-.568-.62-.564-.633-.56-.647a64.984 64.984 0 01-.28-.328l-.557-.669a65.5 65.5 0 01-.278-.34l-.554-.693-.552-.71-.55-.727a69.451 69.451 0 01-.276-.371l-.55-.758a72.348 72.348 0 01-.274-.386l-.549-.788-.549-.811-.55-.834a85.972 85.972 0 01-1.376-2.191l-.554-.922a97.026 97.026 0 01-.277-.471l-.556-.964-.559-.992a111.3 111.3 0 01-.28-.507l-.563-1.037-.566-1.07-.57-1.1-.574-1.134-.288-.58-.58-1.186-.585-1.22-.59-1.259-.596-1.295-.3-.662-.604-1.354-.305-.692-.614-1.413-.62-1.456c-.105-.246-.21-.494-.314-.743l-.632-1.52-.639-1.562-.647-1.608-.656-1.654-.664-1.7-.674-1.748-.682-1.797-.693-1.846-31.208-83.748c-14.464-38.814 5.276-82.004 44.09-96.468a75 75 0 011.937-.692z"
        opacity=".603" style="mix-blend-mode:screen" />
      <path stroke="#FA6400" stroke-linecap="round" stroke-linejoin="round"
        d="M788.24 149.298l35.104-11.994h0l1.503-.505.74-.245 1.461-.476.72-.232 1.421-.449.701-.218 1.382-.422c.228-.07.456-.137.682-.205l1.345-.396.663-.192 1.309-.37h0l1.285-.354.634-.17 1.252-.33.618-.158 1.219-.304h0l1.198-.288c.396-.094.789-.185 1.178-.273l1.158-.257.572-.123 1.13-.234h0l1.111-.219.55-.104 1.084-.197h0l1.069-.183.528-.086 1.044-.161c.345-.052.688-.1 1.029-.148l1.014-.134.502-.062.993-.113h0l.98-.101.485-.046.961-.081h0l.95-.07c.629-.041 1.25-.075 1.865-.1l.918-.033.455-.012.904-.016h0l.895-.004h0l.887.007h0l.88.018.437.013.87.034h0l.865.044h0l.858.054h0l.854.064h0l.85.074.424.04.845.088.422.047.84.102h0l.84.11h0l.839.118h0l.837.127h0c13.543 2.116 25.633 7.9 35.779 17.117l.624.572h0l.618.579h0l.613.584h0l.607.592.3.298.6.603h0l.593.611.294.31.586.624h0l.581.635h0l.577.645h0l.572.656.285.332.566.674c.094.114.188.227.281.342l.56.693c.187.233.372.468.557.706l.554.72h0l.55.735h0l.548.75.272.382.544.774c.18.26.36.524.54.79l.539.81c.179.271.358.547.536.825l.535.845.267.43.532.873c.265.442.53.891.795 1.349l.53.924h0l.528.947.263.481.528.98h0l.526 1.003.264.51.526 1.039c.088.175.176.351.263.528l.527 1.076c.176.362.351.73.527 1.1l.528 1.128h0l.528 1.153h0l.53 1.181h0l.53 1.209h0l.533 1.237h0l.533 1.266.268.644.536 1.311h0l.538 1.341h0l.54 1.373h0l.544 1.404.272.714.548 1.453h0l.55 1.486h0l21.895 60.157.176-.064a96.378 96.378 0 001.877 5.702c12.409 34.092 42.318 56.76 75.903 61.56-9.472 14.269-23.43 25.746-40.765 32.055l-.944.334.004.008-99.214 36.11h0l-1.832.658h0l-1.788.634h0l-1.746.609h0l-1.705.585h0l-1.663.562h0l-1.624.539h0l-1.585.515c-.522.169-1.038.333-1.547.494l-1.51.471-.742.228-1.457.439c-.24.071-.478.142-.716.211l-1.405.408h0l-1.372.387h0l-1.34.367-.659.176-1.293.337h0l-1.264.318h0l-1.236.299h0l-1.207.28h0l-1.18.262c-.39.085-.775.166-1.155.245l-1.13.227-.556.107-1.094.201-.539.095-1.06.177h0l-1.04.16h0l-1.019.146c-.336.046-.67.089-1 .13l-.982.115h0l-.964.1h0l-.948.087-.468.039-.926.066h0l-.911.053h0l-.899.04h0l-.886.027c-.294.008-.585.013-.875.016l-.865.004h-.43l-.851-.016h0l-.844-.023-.42-.016-.833-.04a68.639 68.639 0 01-.415-.023l-.826-.054h0l-.823-.064h0l-.82-.072a78.237 78.237 0 01-.408-.04l-.817-.084h0l-1.224-.143h0l-.817-.105h0l-.819-.111h0c-13.667-1.918-25.926-7.577-36.25-16.736l-.922-.827h0l-.607-.556h0l-.6-.561h0l-.594-.567h0l-.59-.573h0l-.584-.58h0l-.579-.59h0l-.575-.598h0l-.57-.61h0l-.568-.62h0l-.564-.633h0l-.56-.647a64.984 64.984 0 01-.28-.328l-.557-.669a65.5 65.5 0 01-.278-.34l-.554-.693h0l-.552-.71h0l-.55-.727a69.451 69.451 0 01-.276-.371l-.55-.758a72.348 72.348 0 01-.274-.386l-.549-.788h0l-.549-.811h0l-.55-.834a85.972 85.972 0 01-1.376-2.191l-.554-.922a97.026 97.026 0 01-.277-.471l-.556-.964h0l-.559-.992a111.3 111.3 0 01-.28-.507l-.563-1.037h0l-.566-1.07h0l-.57-1.1h0l-.574-1.134-.288-.58-.58-1.186h0l-.585-1.22h0l-.59-1.259h0l-.596-1.295-.3-.662-.604-1.354-.305-.692-.614-1.413h0l-.62-1.456c-.105-.246-.21-.494-.314-.743l-.632-1.52h0l-.639-1.562h0l-.647-1.608h0l-.656-1.654h0l-.664-1.7h0l-.674-1.748h0l-.682-1.797h0l-.693-1.846h0l-31.208-83.748c-14.464-38.814 5.276-82.004 44.09-96.468a75 75 0 011.937-.692z"
        opacity=".4" />
      <path fill="url(#d)"
        d="M2169.09 158.138c8.228 9.182 13.386 20.086 15.258 32.243l.157 1.076.148 1.116.09.743.084.743.075.744.068.746.06.749.05.752.042.757.033.762c.005.128.01.255.013.383l.019.772c.002.13.009.259.009.389v.783c0 .394-.006.791-.015 1.192l-.024.807-.016.408-.041.824-.053.836-.065.85-.077.863-.09.878-.105.894-.057.453-.124.92-.138.937c-.073.473-.15.954-.234 1.442l-.175.986-.19 1.006-.206 1.03-.222 1.05c-.076.355-.156.714-.238 1.076l-.254 1.1-.134.559-.28 1.138-.297 1.165-.315 1.192-.334 1.22-.351 1.25-.371 1.28-.39 1.31-.409 1.343-.429 1.376-.449 1.409c-.076.237-.153.477-.232.717l-.48 1.461-.5 1.497-.522 1.533-.544 1.571-.566 1.61-.588 1.648-.61 1.689-44.003 120.897c-.207.57-.413 1.132-.618 1.686l-.91 2.444-.893 2.346-.586 1.51-.579 1.469-.571 1.427-.284.7-.561 1.367-.556 1.33-.55 1.291-.544 1.255-.539 1.218-.534 1.184c-.088.194-.176.387-.265.579l-.527 1.132-.262.554-.52 1.083-.517 1.052-.514 1.02-.51.992-.254.485-.506.948-.252.463-.503.907-.25.444-.5.867-.499.843-.248.412-.497.807-.248.395-.496.773-.247.378-.496.742-.247.363-.496.71c-.082.118-.165.234-.248.35l-.496.683-.498.666-.499.649-.25.318-.502.626-.503.612-.506.598-.51.585c-.084.097-.17.193-.255.288l-.513.568-.517.558-.52.548-.525.54-.53.53-.533.525-.539.519-.818.768-.83.76a96.53 96.53 0 01-.28.252c-9.36 8.386-20.506 13.584-32.947 15.363l-.737.103-1.105.142-.735.086-1.105.115-.738.067-.741.06-.372.027-1.121.066-.754.034-.76.024c-.255.007-.51.011-.767.015l-.775.004h-.39l-.788-.012-.797-.022c-.268-.01-.537-.02-.808-.033l-.82-.045a62.68 62.68 0 01-.414-.026l-.839-.062-.851-.075-.867-.086-.882-.1-.897-.113-.915-.127a79.654 79.654 0 01-.933-.14l-.951-.155-.97-.17c-.328-.058-.658-.12-.992-.183l-1.012-.2-1.035-.214-.525-.113-1.07-.24c-.18-.04-.36-.082-.543-.124l-1.105-.264-1.131-.28-.575-.146-1.171-.306-1.198-.323-1.226-.342-.625-.177-1.27-.37-1.301-.387-1.332-.407-1.365-.426-1.397-.446-1.432-.466-1.466-.487-1.501-.507-1.538-.528-1.575-.55-1.613-.571-1.652-.594-231.474-84.25-.356.956c-14.063 36.772-54.812 55.771-92.018 42.901l-1.047-.372c14.05-19.572 25.738-41.322 34.51-64.991l.292.105 74.107-203.6.917-2.479.899-2.378.59-1.532.582-1.489.575-1.448.568-1.407.562-1.368c.186-.45.37-.893.555-1.33l.55-1.291.544-1.255.539-1.218.534-1.184.265-.579.527-1.132.262-.554.52-1.083.517-1.052.514-1.02.51-.992.254-.485.506-.948.253-.463.502-.907c.167-.298.334-.591.501-.88l.499-.856.249-.418.497-.819.496-.795.248-.39.495-.762.248-.373.495-.73c.165-.241.33-.478.496-.712l.496-.692.497-.675c.083-.11.166-.221.25-.33l.498-.65.25-.319.502-.626.503-.611.253-.3.508-.592.51-.58.513-.568.517-.557.52-.548.525-.54.53-.531.533-.525.539-.518.818-.769.83-.76.28-.251c9.36-8.386 20.507-13.584 32.947-15.363l.738-.103 1.104-.142.735-.086 1.105-.115.738-.068.741-.06.372-.026 1.121-.067.754-.033.76-.024a59.2 59.2 0 01.767-.015l.775-.004h.39l.788.012.797.022c.268.01.537.02.808.033l.82.044.414.027.839.062.852.074.866.087.882.1.898.113.914.127c.308.044.62.091.933.14l.951.155.971.169c.327.059.657.12.991.184l1.013.2 1.034.214.526.113 1.069.239.543.125 1.105.264 1.131.28.576.146 1.17.306c.395.105.794.213 1.198.323l1.227.342.624.177 1.27.37 1.301.387 1.333.407 1.364.426 1.398.446 1.43.466 1.467.487 1.501.507 1.538.528 1.575.55 1.613.571 1.652.593 209.047 76.087 1.664.614.814.303 2.379.9 1.531.589 1.49.582 1.447.575 1.408.568 1.368.562 1.329.555 1.292.55 1.254.544 1.219.539 1.183.534 1.15.529 1.115.525 1.084.52 1.051.518 1.021.513.991.51.963.508.934.505c.307.168.609.335.907.502l.88.501.855.5.419.248.818.497.796.496.773.496.751.495.731.496c.24.165.478.33.711.495l.693.496.674.497.658.499.322.25.634.5.618.502.605.505.592.508.29.254.574.512.563.515.553.519.543.523.536.526.528.532.521.536.516.541.765.822.758.836z"
        style="mix-blend-mode:multiply" transform="translate(50 -399)" />
      <path stroke="#FA6400" stroke-linecap="round" stroke-linejoin="round"
        d="M2229.09-230.862c8.228 9.182 13.386 20.086 15.258 32.243l.157 1.076h0l.148 1.116h0l.09.743h0l.084.743h0l.075.744h0l.068.746h0l.06.749h0l.05.752h0l.042.757h0l.033.762c.005.128.01.255.013.383l.019.772c.002.13.009.259.009.389v.783c0 .394-.006.791-.015 1.192l-.024.807-.016.408-.041.824h0l-.053.836h0l-.065.85h0l-.077.863h0l-.09.878h0l-.105.894-.057.453-.124.92h0l-.138.937c-.073.473-.15.954-.234 1.442l-.175.986h0l-.19 1.006h0l-.206 1.03h0l-.222 1.05c-.076.355-.156.714-.238 1.076l-.254 1.1-.134.559-.28 1.138h0l-.297 1.165h0l-.315 1.192h0l-.334 1.22h0l-.351 1.25h0l-.371 1.28h0l-.39 1.31h0l-.409 1.343h0l-.429 1.376h0l-.449 1.409c-.076.237-.153.477-.232.717l-.48 1.461h0l-.5 1.497h0l-.522 1.533h0l-.544 1.571h0l-.566 1.61h0l-.588 1.648h0l-.61 1.689h0l-44.003 120.897c-.207.57-.413 1.132-.618 1.686l-.91 2.444h0l-.893 2.346h0l-.586 1.51h0l-.579 1.469h0l-.571 1.427-.284.7-.561 1.367h0l-.556 1.33h0l-.55 1.291h0l-.544 1.255h0l-.539 1.218h0l-.534 1.184c-.088.194-.176.387-.265.579l-.527 1.132-.262.554-.52 1.083h0l-.517 1.052h0l-.514 1.02h0l-.51.992-.254.485-.506.948-.252.463-.503.907-.25.444-.5.867h0l-.499.843-.248.412-.497.807-.248.395-.496.773-.247.378-.496.742-.247.363-.496.71c-.082.118-.165.234-.248.35l-.496.683h0l-.498.666h0l-.499.649-.25.318-.502.626h0l-.503.612h0l-.506.598h0l-.51.585c-.084.097-.17.193-.255.288l-.513.568h0l-.517.558h0l-.52.548h0l-.525.54h0l-.53.53h0l-.533.525h0l-.539.519h0l-.818.768h0l-.83.76a96.53 96.53 0 01-.28.252c-9.36 8.386-20.506 13.584-32.947 15.363l-.737.103h0l-1.105.142h0l-.735.086h0l-1.105.115h0l-.738.067h0l-.741.06-.372.027-1.121.066h0l-.754.034h0l-.76.024c-.255.007-.51.011-.767.015l-.775.004h-.39l-.788-.012h0l-.797-.022c-.268-.01-.537-.02-.808-.033l-.82-.045a62.68 62.68 0 01-.414-.026l-.839-.062h0l-.851-.075h0l-.867-.086h0l-.882-.1h0l-.897-.113h0l-.915-.127a79.654 79.654 0 01-.933-.14l-.951-.155h0l-.97-.17c-.328-.058-.658-.12-.992-.183l-1.012-.2h0l-1.035-.214-.525-.113-1.07-.24c-.18-.04-.36-.082-.543-.124l-1.105-.264h0l-1.131-.28-.575-.146-1.171-.306h0l-1.198-.323h0l-1.227-.342-.624-.177-1.27-.37h0l-1.301-.387h0l-1.332-.407h0l-1.365-.426h0l-1.397-.446h0l-1.432-.466h0l-1.466-.487h0l-1.501-.507h0l-1.538-.528h0l-1.575-.55h0l-1.613-.571h0l-1.652-.594h0l-231.474-84.25-.356.956C1834.295-18.8 1793.546.198 1756.34-12.672l-1.047-.372c14.05-19.572 25.738-41.322 34.51-64.991l.292.105 74.107-203.6h0l.917-2.479h0l.899-2.378h0l.59-1.532h0l.582-1.489h0l.575-1.448h0l.568-1.407h0l.562-1.368c.186-.45.37-.893.555-1.33l.55-1.291h0l.544-1.255h0l.539-1.218h0l.534-1.184.265-.579.527-1.132.262-.554.52-1.083h0l.517-1.052h0l.514-1.02h0l.51-.992.254-.485.506-.948.253-.463.502-.907c.167-.298.334-.591.501-.88l.499-.856.249-.418.497-.819h0l.496-.795.248-.39.495-.762.248-.373.495-.73c.165-.241.33-.478.496-.712l.496-.692h0l.497-.675c.083-.11.166-.221.25-.33l.498-.65.25-.319.502-.626h0l.503-.611.253-.3.508-.592h0l.51-.58h0l.513-.568h0l.517-.557h0l.52-.548h0l.525-.54h0l.53-.531h0l.533-.525h0l.539-.518h0l.818-.769h0l.83-.76.28-.251c9.36-8.386 20.507-13.584 32.947-15.363l.738-.103h0l1.104-.142h0l.735-.086h0l1.105-.115h0l.738-.068h0l.741-.06.372-.026 1.121-.067h0l.754-.033h0l.76-.024a59.2 59.2 0 01.767-.015l.775-.004h.39l.788.012h0l.797.022c.268.01.537.02.808.033l.82.044.414.027.839.062h0l.852.074h0l.866.087h0l.882.1h0l.898.113h0l.914.127c.308.044.62.091.933.14l.951.155h0l.971.169c.327.059.657.12.991.184l1.013.2h0l1.034.214.526.113 1.068.239.544.125 1.105.264h0l1.131.28.576.146 1.17.306c.395.105.794.213 1.198.323l1.227.342.624.177 1.27.37h0l1.301.387h0l1.333.407h0l1.364.426h0l1.398.446h0l1.43.466h0l1.467.487h0l1.501.507h0l1.538.528h0l1.575.55h0l1.613.571h0l1.652.593h0l209.047 76.087h0l1.664.614.814.303 2.379.9h0l1.531.589h0l1.49.582h0l1.447.575h0l1.408.568h0l1.368.562h0l1.329.555h0l1.292.55h0l1.254.544h0l1.219.539h0l1.183.534h0l1.15.529h0l1.115.525h0l1.084.52h0l1.051.518h0l1.021.513h0l.991.51h0l.963.508h0l.934.505c.307.168.609.335.907.502l.88.501h0l.855.5.419.248.818.497h0l.796.496h0l.773.496h0l.751.495h0l.731.496c.24.165.478.33.711.495l.693.496h0l.674.497h0l.658.499.322.25.634.5h0l.618.502h0l.605.505h0l.592.508.29.254.574.512h0l.563.515h0l.553.519h0l.543.523h0l.536.526h0l.528.532h0l.521.536h0l.516.541h0l.765.822h0l.758.836h0z"
        opacity=".4" />
      <path fill="url(#e)"
        d="M1892.021 885.163c97.24-20.668 159.312-116.251 138.643-213.49-20.669-97.24-116.252-159.311-213.49-138.643l1.406-.285-.056-.265-5.873 1.298c-101.556 23.314-183.58 87.292-232.508 171.027l96.11-20.43c-2.793 20.143-2.194 41.106 2.278 62.146 20.669 97.239 116.252 159.311 213.49 138.642z"
        transform="translate(50 -399)" />
      <path stroke="#FA6400" stroke-linecap="round" stroke-linejoin="round"
        d="M1946.164 506.39c97.239-20.669 159.311-116.252 138.642-213.49-20.669-97.24-116.252-159.312-213.49-138.643a182.296 182.296 0 00-15.804 4.104c-97.138 25.05-175.56 87.611-222.94 168.7l97.73-20.774c-2.685 19.933-2.05 40.659 2.371 61.46 20.669 97.24 116.252 159.312 213.49 138.643zm-587.512-637.027c130.699-35.02 262.318 32.379 293.98 150.542 31.662 118.163-48.624 242.342-179.323 277.363-40.934 10.968-81.958 11.89-119.974 4.353-23.957 33.205-58.985 58.636-101.495 70.026a184.677 184.677 0 01-30.913 5.532c22.53-38.54 30.344-85.79 18.148-132.497-28.28-25.993-49.376-59.251-59.747-97.956-31.661-118.163 48.624-242.342 179.324-277.363z"
        opacity=".4" />
      <path fill="#F8C332"
        d="M227.226 534.849C92.236 490.988 18.637 345.149 62.84 209.108a262.604 262.604 0 0117.567-41.575C150.815 15.486 324.604-63.594 487.026-10.82c56.28 18.286 104.358 50.182 141.814 90.9-45.453-2.033-89.565 13.488-123.725 42.145 54.53 65.918 75.114 157.861 46.568 245.718-44.203 136.04-189.467 210.767-324.457 166.906z"
        opacity=".603" style="mix-blend-mode:screen" />
      <path stroke="#FA6400" stroke-linecap="round" stroke-linejoin="round"
        d="M241.226 550.849c-135.516-44.032-209.54-190.01-165.337-326.05a261.426 261.426 0 0118.9-44.03C165.905 30.92 339.056-46.422 501.2 6.261c56.506 18.36 104.812 50.281 142.477 90.982-45.47-2.115-89.565 13.178-123.737 41.53 54.56 65.978 75.186 157.792 46.695 245.478C522.43 520.292 376.74 594.88 241.226 550.849z"
        opacity=".4" />
      <path fill="url(#f)"
        d="M327.029 404.77c-68.147-23.465-142.412 12.757-165.877 80.903-23.23 67.465 12.038 140.928 78.869 165.158l1.418.502-.084.241 4.133 1.386c71.807 23.434 146.628 14.4 208.241-19.213l-67.814-23.35c9.363-11.539 16.899-24.885 22.017-39.75 23.465-68.147-12.757-142.413-80.903-165.877z"
        transform="translate(50 -399)" />
      <path stroke="#FA6400" stroke-linecap="round" stroke-linejoin="round"
        d="M361.444 5.77c-68.146-23.465-142.412 12.757-165.877 80.903-23.464 68.147 12.758 142.412 80.904 165.877 1.88.648 3.766 1.25 5.654 1.807l-1.221-.397c71.807 23.434 146.628 14.4 208.24-19.213l-68.596-23.619c9.262-11.477 16.721-24.731 21.8-39.481C465.813 103.5 429.59 29.234 361.444 5.77z"
        opacity=".4" />
      <path fill="#F8C332"
        d="M769.124-188.49c21.47-135.552 169.766-224.708 331.23-199.135a353.682 353.682 0 0148.356 11.162c158.987 47.965 262.88 200.096 237.546 360.051-13.638 86.112-62.196 158.494-130.028 206.423 14.523-20.857 24.679-45.258 28.926-72.07 4.476-28.262 1.88-56.002-6.474-81.405-62.897 54.911-157.007 82.41-256.074 66.72C861.142 77.683 747.655-52.936 769.124-188.489z"
        opacity=".603" style="mix-blend-mode:screen" />
      <path stroke="#FA6400" stroke-linecap="round" stroke-linejoin="round"
        d="M791.124-195.49c21.47-135.552 169.766-224.708 331.23-199.135a353.682 353.682 0 0148.356 11.162c158.987 47.965 262.88 200.096 237.546 360.051-13.638 86.112-62.196 158.494-130.028 206.423 14.523-20.857 24.679-45.258 28.926-72.07 4.476-28.262 1.88-56.002-6.474-81.405-62.897 54.911-157.007 82.41-256.074 66.72C883.142 70.683 769.655-59.936 791.124-195.489z"
        opacity=".4" />
    </g>
  </g>
</svg>
