<svg xmlns="http://www.w3.org/2000/svg" xmlns:xlink="http://www.w3.org/1999/xlink" width="1890" height="434">
  <defs>
    <linearGradient id="c" x1="25.376%" x2="76.249%" y1="74.507%" y2="19.732%">
      <stop offset="0%" stop-color="#E64C4C" />
      <stop offset="100%" stop-color="#FB8332" />
    </linearGradient>
    <linearGradient id="d" x1="0%" x2="50%" y1="0%" y2="100%">
      <stop offset="0%" stop-color="#FB8332" />
      <stop offset="100%" stop-color="#F8C332" />
    </linearGradient>
    <linearGradient id="e" x1="0%" x2="50%" y1=".394%" y2="99.606%">
      <stop offset="0%" stop-color="#E64C4C" />
      <stop offset="100%" stop-color="#FB8332" />
    </linearGradient>
    <path id="a" d="M0 .432h1890v434H0z" />
  </defs>
  <g fill="none" fill-rule="evenodd" transform="translate(0 -.432)">
    <mask id="b" fill="#fff">
      <use xlink:href="#a" />
    </mask>
    <g mask="url(#b)">
      <path fill="url(#c)"
        d="M333.722 681.432c182.654 0 330.724-148.07 330.724-330.724S516.376 19.983 333.722 19.983 2.998 168.053 2.998 350.708c0 182.654 148.07 330.724 330.724 330.724z"
        transform="translate(1 -248)" />
      <path stroke="#FA6400" stroke-linecap="round" stroke-linejoin="round"
        d="M331.724 413.449c182.654 0 330.725-148.07 330.725-330.725C662.449-99.93 514.379-248 331.724-248 149.07-248 1-99.93 1 82.724S149.07 413.45 331.724 413.45z"
        opacity=".398" />
      <path fill="#F8C332"
        d="M702.348 225.443c95.742 0 173.356-77.614 173.356-173.356 0-95.741-77.614-173.355-173.356-173.355-95.742 0-173.355 77.614-173.355 173.355 0 95.742 77.613 173.356 173.355 173.356z"
        opacity=".603" />
      <path stroke="#FA6400" stroke-linecap="round" stroke-linejoin="round"
        d="M693.356 238.432c95.741 0 173.355-77.614 173.355-173.355 0-95.742-77.614-173.356-173.355-173.356C597.614-108.279 520-30.665 520 65.077c0 95.741 77.614 173.355 173.356 173.355z"
        opacity=".398" />
      <path fill="url(#d)"
        d="M1258.285 599.436c130.506 0 236.303-105.796 236.303-236.303 0-130.506-105.797-236.303-236.303-236.303-130.507 0-236.303 105.797-236.303 236.303 0 130.507 105.796 236.303 236.303 236.303z"
        transform="translate(1 -248)" />
      <path stroke="#FA6400" stroke-linecap="round" stroke-linejoin="round"
        d="M1237.303 356.432c130.507 0 236.303-105.796 236.303-236.303s-105.796-236.303-236.303-236.303S1001-10.378 1001 120.129s105.796 236.303 236.303 236.303z"
        opacity=".398" />
      <path fill="url(#e)"
        d="M1656.5 657.432c69.864 0 126.5-56.412 126.5-126s-56.636-126-126.5-126-126.5 56.412-126.5 126 56.636 126 126.5 126z"
        transform="translate(1 -248)" />
      <path stroke="#FA6400" stroke-linecap="round" stroke-linejoin="round"
        d="M1673.5 392.432c69.864 0 126.5-56.412 126.5-126s-56.636-126-126.5-126-126.5 56.412-126.5 126 56.636 126 126.5 126z"
        opacity=".398" />
      <path fill="#F7B500"
        d="M1503.318 259.445c112.296 0 203.33-90.81 203.33-202.83 0-112.021-91.034-202.831-203.33-202.831s-203.33 90.81-203.33 202.83c0 112.02 91.034 202.831 203.33 202.831z"
        opacity=".4" style="mix-blend-mode:screen" />
      <path stroke="#FA6400" stroke-linecap="round" stroke-linejoin="round"
        d="M1488.33 275.432c112.297 0 203.331-90.81 203.331-202.83 0-112.021-91.034-202.832-203.33-202.832C1376.034-130.23 1285-39.42 1285 72.601c0 112.02 91.034 202.831 203.33 202.831z"
        opacity=".398" />
    </g>
  </g>
</svg>
