<svg xmlns="http://www.w3.org/2000/svg" xmlns:xlink="http://www.w3.org/1999/xlink" width="2244" height="1020" viewBox="0 0 2244 1020">
  <defs>
    <rect id="community.top.mono-a" width="2246" height="1020" x="0" y="0"/>
  </defs>
  <g fill="none" fill-rule="evenodd" transform="translate(-1)">
    <mask id="community.top.mono-b" fill="#fff">
      <use xlink:href="#community.top.mono-a"/>
    </mask>
    <g mask="url(#community.top.mono-b)">
      <g transform="translate(10 -72)">
        <path fill="#FFF" d="M639.498495,626.231579 L675.52658,666.778947 L669.22842,677.019411 L799.373119,741.115789 L765.59679,842.484211 L709.539343,860.710253 L716.058175,880.778947 L583.204614,1070 L551.68004,1060.98947 L551.68004,817.705263 L533.665998,799.684211 L511.148445,718.589474 L531.414243,711.081453 L522.407222,696.063158 L542.673019,626.231579 L639.498495,626.231579 Z M2220.23069,907.810526 L2245,930.336842 L2220.23069,957.368421 L2166.18857,995.663158 L2220.23069,907.810526 Z M2058.10431,946.105263 L2044.59378,966.378947 L2028.83149,946.105263 L2058.10431,946.105263 Z M2008.5657,743.368421 L2035.58676,747.873684 L2051.34905,795.178947 L2094.1324,842.484211 L2064.85958,925.831579 L2017.57272,930.336842 L1954.52357,865.010526 L1841.93581,919.073684 L1823.92177,822.210526 L1911.74022,765.894737 L1992.80341,777.157895 L2008.5657,743.368421 Z M1738.35507,0 L1848.69107,54.0631579 L2031.08325,63.0736842 L2208.97192,96.8631579 L2208.97192,130.652632 L2058.10431,225.263158 L2024.32798,218.505263 L2006.31394,171.2 L1909.48847,195.978947 L1943.26479,245.536842 L1904.23962,252.301495 L1916.24373,270.315789 L1891.47442,317.621053 L1835.235,343.028 L1844.18756,371.684211 L1812.66299,398.715789 L1829.76,345.502 L1821.67001,349.157895 L1783.39017,324.378947 L1776.6349,349.157895 L1796.9007,400.968421 L1767.62788,466.294737 L1707.81901,478.891453 L1722.59278,495.578947 L1722.59278,531.621053 L1695.57172,558.652632 L1673.97738,542.940526 L1688.81645,612.715789 L1646.0331,558.652632 L1657.00815,530.596105 L1646.0331,522.610526 L1648.28485,500.084211 L1634.77432,511.347368 L1605.27408,475.420147 L1564.96991,495.578947 L1544.70411,515.852632 L1544.70411,531.621053 L1531.19358,574.421053 L1513.17954,574.421053 L1492.91374,484.315789 L1474.8997,495.578947 L1441.12337,457.284211 L1442.33256,454.263432 L1398.34002,464.042105 L1405.09529,477.557895 L1285.99094,534.202568 L1290.25577,542.884211 L1346.54965,551.894737 L1256.47944,662.273684 L1254.58571,662.046168 L1276.74524,720.842105 L1204.68907,842.484211 L1128.12939,842.484211 L1083.09428,734.357895 L1107.86359,684.8 L1069.58375,632.989474 L1083.86889,628.4324 L1071.78146,584.461032 L1062.82849,594.694737 L950.240722,594.694737 L907.457372,529.368421 L907.457372,466.294737 L970.50652,385.2 L1069.58375,376.189474 L1139.66513,419.840968 L1150.64694,400.968421 L1224.95486,409.978947 L1268.73574,499.086295 L1283.5005,484.315789 L1242.96891,396.463158 L1251.97593,369.431579 L1188.92678,369.431579 L1195.68205,340.147368 L1277.86661,326.212589 L1254.22768,295.094737 L1224.95486,317.621053 L1201.38349,294.040505 L1155.15045,362.673684 L1062.82849,306.357895 L995.275827,369.431579 L952.492477,351.410526 L959.247743,317.621053 L1008.78636,306.357895 L995.275827,286.084211 L1069.58375,225.263158 L1141.63992,218.505263 L1156.54879,225.760989 L1179.91976,99.1157895 L1139.38816,141.915789 L1146.14343,173.452632 L1103.36008,207.242105 L1051.56971,173.452632 L1062.82849,141.915789 L1164.15747,54.0631579 L1276.74524,87.8526316 L1285.93015,110.056821 L1738.35507,0 Z M1337.54263,711.831579 L1317.27683,790.673684 L1297.01103,770.4 L1297.01103,741.115789 L1337.54263,711.831579 Z M1706.83049,623.978947 L1857.69809,729.852632 L1769.87964,707.326316 L1706.83049,623.978947 Z M1934.25777,653.263158 L1965.78235,680.294737 L1988.2999,680.294737 L2058.10431,702.821053 L1999.55868,725.347368 L1920.74724,669.031579 L1934.25777,653.263158 Z M1855.44634,626.231579 L1855.44634,657.768421 L1841.93581,673.536842 L1808.15948,664.526316 L1808.15948,642 L1828.42528,651.010526 L1855.44634,626.231579 Z M477.372116,99.1157895 L502.141424,171.2 L454.854564,220.757895 L531.414243,263.557895 L558.435306,270.315789 L574.287663,241.482105 L558.435306,236.526316 L558.435306,198.231579 L603.470411,189.221053 L619.232698,216.252632 L609.234905,228.982253 L630.491474,232.021053 L646.253761,220.757895 L700.295888,283.831579 L691.288867,301.852632 L630.491474,301.852632 L598.034674,328.676968 L639.498495,322.126316 L646.253761,351.410526 L583.204614,385.2 L553.931795,425.747368 L547.17653,484.315789 L531.414243,484.315789 L502.141424,461.789474 L434.563997,480.567411 L441.344032,484.315789 L441.344032,534.116968 L502.141424,522.610526 L495.386158,567.663158 L533.665998,596.947368 L513.400201,605.957895 L436.840522,567.663158 L427.13996,551.894737 L405.315948,551.894737 L335.511535,509.094737 L320.523852,474.825453 L301.735206,473.052632 L252.19659,418.989474 L263.741339,336.491347 L171.1334,232.021053 L173.80173,222.370779 L96.8254764,214 L49.5386158,263.557895 L0,175.705263 L31.5245737,99.1157895 L171.1334,117.136842 L186.8484,175.182653 L200.406219,126.147368 L436.840522,146.421053 L477.372116,99.1157895 Z M1778.88666,558.652632 L1787.89368,583.431579 L1722.59278,605.957895 L1778.88666,558.652632 Z M1855.44634,522.610526 L1871.20863,554.147368 L1855.44634,583.431579 L1855.44634,522.610526 Z M1799.15246,500.084211 L1819.41825,563.157895 L1787.89368,536.126316 L1799.15246,500.084211 Z M533.665998,515.852632 L619.232698,529.368421 L571.945838,542.884211 L533.665998,515.852632 Z M1932.00602,299.6 L1941.01304,331.136842 L1927.50251,376.189474 L1853.19458,400.968421 L1857.69809,385.2 L1907.23671,355.915789 L1932.00602,299.6 Z M995.275827,189.221053 L997.527583,204.989474 L1004.28285,214 L1022.29689,232.021053 L1024.54865,243.284211 L1011.03811,247.789474 L986.268806,259.052632 L981.765296,252.294737 L988.520562,243.284211 L986.268806,234.273684 L993.024072,227.515789 L981.765296,216.252632 L979.513541,198.231579 L995.275827,189.221053 Z M966.003009,214 L972.758275,216.252632 L977.261785,241.031579 L952.492477,245.536842 L954.744233,223.010526 L966.003009,214 Z M495.386158,54.0631579 L601.218656,83.3473684 L646.253761,144.168421 L637.24674,189.221053 L589.95988,164.442105 L589.95988,126.147368 L558.435306,99.1157895 L531.414243,99.1157895 L531.414243,119.389474 L495.386158,92.3578947 L495.386158,54.0631579 Z M288.224674,72.0842105 L405.315948,85.6 L364.784353,121.642105 L288.224674,72.0842105 Z M441.344032,33.7894737 L425.581745,54.0631579 L380.54664,45.0526316 L441.344032,33.7894737 Z M571.945838,0 L533.665998,24.7789474 L495.386158,6.75789474 L571.945838,0 Z"/>
        <g stroke-linecap="round" stroke-linejoin="round" stroke-opacity=".08" transform="translate(161 18)">
          <polygon stroke="#000" points="0 220.552 105.867 339.83 337.874 321.826 407.701 333.079 459.508 290.318 520.326 290.318 529.336 272.314 475.276 209.299 459.508 220.552 412.206 213.8 387.429 258.811 360.399 252.059 283.814 209.299 331.116 159.788 306.339 87.771 265.794 135.032 29.282 114.777"/>
          <polygon stroke="#000" points="378.419 1050.998 403.196 1060 448.246 967.728 540.598 859.703 504.558 760.679 416.711 796.688 373.914 796.688" opacity="0"/>
          <polygon stroke="#000" points="763.595 459.108 763.595 522.123 819.907 587.389 919.017 587.389 1045.156 443.355 925.774 369.087 819.907 380.34"/>
          <polygon stroke="#000" points="1051.914 312.824 1045.156 342.081 1108.226 342.081 1099.216 369.087 1139.761 456.858 1108.226 488.365 1123.993 515.372 1261.395 450.106 1247.88 423.1 1191.568 409.597 1184.811 290.318"/>
          <polygon stroke="#000" points="1142.013 735.924 1142.013 765.18 1162.286 785.435 1182.558 706.667" opacity="0"/>
          <polygon stroke="#000" points="792.877 312.824 786.12 346.582 828.917 364.586 896.492 301.571 988.844 357.834 1058.671 254.31 975.329 213.8 903.249 220.552 828.917 281.316 842.432 301.571"/>
          <polygon stroke="#000" points="790.625 211.55 788.372 234.055 813.15 229.554 808.645 204.798 801.887 202.548"/>
          <polygon stroke="#000" points="1105.973 132.781 1576.744 0 1687.116 54.013 1847.043 72.017 2034 99.023 2034 132.781 1880.831 193.546 1847.043 186.794 1817.761 173.291 1779.468 186.794 1725.409 146.285 1423.575 202.548 1319.96 290.318 1153.276 243.057"/>
          <polygon stroke="#000" points="1403.302 290.318 1403.302 348.832 1513.674 456.858 1599.269 438.854 1628.552 373.588 1608.279 321.826 1615.037 297.07 1653.329 321.826 1723.156 290.318 1747.934 243.057 1702.884 175.541 1664.591 189.045 1648.824 231.805 1502.412 261.062 1432.585 231.805"/>
          <polygon stroke="#000" points="128.392 420.849 159.927 492.866 229.754 535.626 265.794 535.626 265.794 468.11 180.199 420.849"/>
          <polygon stroke="#000" points="1608.279 697.665 1696.126 720.17 1545.209 614.395" opacity="0"/>
          <polygon stroke="#000" points="1310.95 402.845 1283.92 447.856 1317.708 486.115 1335.728 474.862 1353.748 562.633 1374.02 564.883 1387.535 522.123 1387.535 506.369 1407.807 486.115 1461.867 459.108 1412.312 400.594 1362.757 396.093 1342.485 380.34 1319.96 380.34"/>
          <polygon stroke="#000" points="1835.781 726.921 1820.013 760.679 1738.924 749.427 1651.076 805.69 1669.096 902.463 1781.721 848.45 1844.791 913.715 1892.093 909.214 1921.375 825.945 1878.578 778.684 1862.811 731.423" opacity="0"/>
          <polygon stroke="#000" points="1669.096 319.575 1689.369 382.59 1657.834 355.584" transform="matrix(-1 0 0 1 3347.203 0)"/>
        </g>
      </g>
    </g>
  </g>
</svg>
