<svg xmlns="http://www.w3.org/2000/svg" xmlns:xlink="http://www.w3.org/1999/xlink" width="2180" height="1437">
  <defs>
    <path id="a" d="M0 0h2180v1437H0z" />
  </defs>
  <g fill="none" fill-rule="evenodd">
    <mask id="b" fill="#fff">
      <use xlink:href="#a" />
    </mask>
    <path stroke="#000" stroke-linecap="round" stroke-linejoin="round" stroke-opacity=".08" mask="url(#b)"
      transform="rotate(45 1404.5 503.5)" d="M1049 148h711v711h-711z" />
    <g mask="url(#b)">
      <path fill="#FFF" fill-opacity=".8" d="M1563.846 1069.154l240 415.692-415.692 240-240-415.692z" />
      <path stroke="#000" stroke-linecap="round" stroke-linejoin="round" stroke-opacity=".08"
        d="M1534.506 1057.618l243 420.888-420.888 243-243-420.888z" />
      <path fill="#DADCDC" fill-opacity=".4" d="M445.5 911.553L788.447 1254.5 445.5 1597.447 102.553 1254.5z" />
      <path stroke="#000" stroke-linecap="round" stroke-linejoin="round" stroke-opacity=".08"
        d="M465 896.618L821.382 1253 465 1609.382 108.618 1253z" />
      <path fill="#FFF" fill-opacity=".8" d="M1925 860.442L2179.558 1115 1925 1369.558 1670.442 1115z" />
      <path stroke="#000" stroke-linecap="round" stroke-linejoin="round" stroke-opacity=".08"
        d="M1898 860.442L2152.558 1115 1898 1369.558 1643.442 1115z" />
      <path fill="#FFF" fill-opacity=".8" d="M661.952 1046.167l273.881-58.215 58.215 273.881-273.881 58.215z" />
      <path stroke="#000" stroke-linecap="round" stroke-linejoin="round" stroke-opacity=".08"
        d="M671.952 1032.167l273.881-58.215 58.215 273.881-273.881 58.215z" />
      <path fill="#DADCDC" fill-opacity=".4" d="M1080.326 1179.56l263.114 95.766-95.766 263.114-263.114-95.766z" />
      <path stroke="#000" stroke-linecap="round" stroke-linejoin="round" stroke-opacity=".08"
        d="M1070.326 1161.56l263.114 95.766-95.766 263.114-263.114-95.766z" />
    </g>
  </g>
</svg>
