<?xml version="1.0" encoding="UTF-8"?>
<svg width="1000px" height="296px" viewBox="0 0 1000 296" version="1.1" xmlns="http://www.w3.org/2000/svg" xmlns:xlink="http://www.w3.org/1999/xlink">
    <!-- Generator: Sketch Experimental 61 (88704) - https://sketch.com -->
    <title>plugins-mobile</title>
    <desc>Created with Sketch Experimental.</desc>
    <g id="Page-1" stroke="none" stroke-width="1" fill="none" fill-rule="evenodd">
        <g id="plugins-mobile" fill-rule="nonzero">
            <rect id="Rectangle" fill="#FA8134" x="0" y="0" width="1000" height="296"></rect>
            <g id="Group" transform="translate(450.000000, 100.000000)">
                <path d="M50.5,101 C100.610729,101 101,78.3907292 101,50.5 C101,22.6092708 100.610729,0 50.5,0 C0.389270833,0 0,22.6092708 0,50.5 C0,78.3907292 0.389270833,101 50.5,101 Z" id="Path" fill="#D95400"></path>
                <path d="M51,19 C68.673112,19 83,33.3268879 83,51 C83,68.673112 68.673112,83 51,83 C33.3268879,83 19,68.673112 19,51 C19,33.3268879 33.3268879,19 51,19 Z M53.0266666,57.4000001 L48.9733334,57.4000001 C48.3685332,57.4000001 47.9019734,57.8285439 47.8147092,58.390144 L47.8,58.5818667 L47.8,70.2 L54.1999999,70.2 L54.1999999,58.5818667 C54.1999999,57.9183999 53.6752,57.4000001 53.0266666,57.4000001 Z M40.2580952,38.2 L36.1419048,38.2 C35.5743138,38.2 35.1034436,38.614111 35.0149456,39.1566819 L35.0000001,39.3419048 L35.0000001,49.8580952 C35.0000001,50.4256862 35.4141111,50.8965562 35.9566818,50.9850544 L36.1419048,51 L40.2580952,51 C40.8256862,51 41.2965564,50.5858889 41.3850544,50.043318 L41.3999999,49.8580952 L41.3999999,39.3419048 C41.3999999,38.7112481 40.8887518,38.2 40.2580952,38.2 Z M65.8580951,38.2 L61.7419048,38.2 C61.1112482,38.2 60.6,38.7112481 60.6,39.3419048 L60.6,39.3419048 L60.6,49.8580952 C60.6,50.4887518 61.1112482,51 61.7419048,51 L61.7419048,51 L65.8580951,51 C66.4887517,51 66.9999999,50.4887518 66.9999999,49.8580952 L66.9999999,49.8580952 L66.9999999,39.3419048 C66.9999999,38.7112481 66.4887517,38.2 65.8580951,38.2 L65.8580951,38.2 Z" id="Shape" fill="#FFFFFF"></path>
            </g>
        </g>
    </g>
</svg>