<?xml version="1.0" encoding="UTF-8"?>
<svg width="1000px" height="296px" viewBox="0 0 1000 296" version="1.1" xmlns="http://www.w3.org/2000/svg" xmlns:xlink="http://www.w3.org/1999/xlink">
    <!-- Generator: Sketch Internal 52 (66832) - http://www.bohemiancoding.com/sketch -->
    <title>sas-mobile</title>
    <desc>Created with Sketch Internal.</desc>
    <g id="sas-mobile" stroke="none" stroke-width="1" fill="none" fill-rule="evenodd">
        <rect id="Rectangle" fill="#EF6373" x="0" y="0" width="1000" height="296"></rect>
        <path d="M445.015693,108.900569 L502.539987,67.5325878 C502.102024,66.4678357 501.860465,65.3014108 501.860465,64.0785124 C501.860465,59.0645884 505.921138,55 510.930233,55 C515.939327,55 520,59.0645884 520,64.0785124 C520,69.0924363 515.939327,73.1570248 510.930233,73.1570248 C508.655519,73.1570248 506.576391,72.3188172 504.984307,70.9341419 L447.460013,112.302123 C447.897976,113.366875 448.139535,114.5333 448.139535,115.756198 C448.139535,119.909474 445.35326,123.411352 441.549652,124.491185 L467.737826,205.843192 C472.717736,205.877321 476.744186,209.928737 476.744186,214.921488 C476.744186,219.935412 472.683513,224 467.674419,224 C462.665324,224 458.604651,219.935412 458.604651,214.921488 C458.604651,211.356894 460.657054,208.272126 463.643526,206.786598 L437.200079,124.6416 C433.088001,123.779013 430,120.128574 430,115.756198 C430,110.742274 434.060673,106.677686 439.069767,106.677686 C441.344481,106.677686 443.423609,107.515894 445.015693,108.900569 Z M511.627907,96.2024793 C528.817148,96.2024793 540.807153,103.881922 546.260823,118.725662 C547.457776,121.983517 545.789629,125.595788 542.534913,126.793895 C539.280197,127.992002 535.671405,126.322247 534.474452,123.064393 C530.910807,113.364901 523.740992,108.772727 511.627907,108.772727 C495.890243,108.772727 488.953488,113.912586 488.953488,126.569056 L488.953488,126.67374 L488.950005,126.778367 C488.675748,135.017029 493.483767,137.957125 511.69765,142.234308 C511.8306,142.265528 512.860426,142.50716 513.164333,142.57858 C513.731977,142.711981 514.198304,142.822013 514.64726,142.928627 C525.574979,145.523648 531.705738,147.598469 537.367286,151.362568 C545.279447,156.622994 549.698629,164.328635 549.997411,174.740488 L550,174.830699 L550,174.920947 C550,191.963725 532.897111,205.842975 513.895349,205.842975 C493.403604,205.842975 480.000752,196.828441 475.415396,179.358518 C474.534215,176.001273 476.538841,172.56466 479.892852,171.682629 C483.246864,170.800598 486.680167,172.807157 487.561348,176.164402 C490.603899,187.756334 498.805698,193.272727 513.895349,193.272727 C526.435686,193.272727 537.375611,184.425542 537.441561,175.00654 C537.241691,168.800417 534.965422,164.856151 530.419064,161.83349 C526.384064,159.150807 521.274289,157.421515 511.748397,155.159388 C511.310242,155.055339 510.852874,154.947421 510.293962,154.816072 C509.992687,154.74527 508.964301,154.503977 508.829329,154.472281 C497.727739,151.865285 492.687084,150.291912 487.57534,147.166089 C480.101558,142.595883 476.119181,135.730974 476.395459,126.466639 C476.439375,105.97824 489.669239,96.2024793 511.627907,96.2024793 Z" id="Combined-Shape" fill="#FFFFFF" fill-rule="nonzero"></path>
    </g>
</svg>