<svg height="296" viewBox="0 0 1000 296" width="1000" xmlns="http://www.w3.org/2000/svg"><g fill="none" fill-rule="evenodd"><path d="m0 0h1000v296h-1000z" fill="#7756ff"/><g transform="translate(437.151042 98)"><path d="m67.9032 33.5139c-.233-.261-.454-.53-.705-.78-3.45-3.449-7.944-5.205-12.465-5.295-4.766-.096-9.562 1.66-13.199 5.295l-22.457 22.448c-7.087 7.084-7.087 18.569 0 25.653s18.578 7.084 25.665 0l4.711-4.71c.24.255.475.513.724.762 3.154 3.152 6.808 5.499 10.706 7.048l-6.519 6.516c-12.403 12.398-32.511 12.398-44.913 0-12.402-12.397-12.402-32.497 0-44.894l22.456-22.447c9.249-9.245 22.78-11.591 34.208-7.049 3.897 1.549 7.551 3.896 10.705 7.049.2499664.2499664.4869363.5079306.7269032.7638968 11.6620968 12.4459032 11.4250968 31.9829032-.7269032 44.1299032l-4.559 4.558c-4.52-.093-9.011-1.849-12.459-5.296-.251-.25-.473-.518-.706-.779l8.102-8.099c6.8369662-6.8329662 7.0579978-17.750892.7050943-24.8738943z" fill="#543cb4"/><path d="m49.4538 76.1253c-11.665-12.446-11.43-31.985.723-44.134l4.556-4.553c4.521.091 9.015 1.847 12.465 5.296.251.25.473.518.706.779l-8.102 8.099c-6.837 6.833-7.058 17.751-.705 24.874l-2.8929 2.8917 2.8929-2.8914c.233.261.454.529.705.779 3.448 3.447 7.94 5.203 12.459 5.296l-11.378 11.373c-3.897-1.549-7.551-3.896-10.706-7.048-.2488826-.2488826-.4837784-.5067567-.722662-.7616393zm28.0931-52.2513c-.24-.256-.477-.514-.727-.764-3.154-3.153-6.808-5.5-10.705-7.049l6.519-6.517c12.402-12.397 32.51-12.397 44.913 0 12.402 12.398 12.402 32.498 0 44.895l-22.457 22.448c-9.248 9.244-22.779 11.591-34.207 7.048l11.378-11.373c4.768.097 9.567-1.659 13.205-5.296l22.456-22.447c7.087-7.084 7.087-18.57 0-25.654-7.086-7.084-18.577-7.084-25.664 0z" fill="#fff"/></g></g></svg>