<?xml version="1.0" encoding="UTF-8"?>
<svg width="1000" height="296" viewBox="0 0 1000 296" xmlns="http://www.w3.org/2000/svg" xmlns:xlink="http://www.w3.org/1999/xlink">
  <defs>
    <linearGradient id="sm-g" x1="50%" x2="50%" y1="100%" y2="0%">
      <stop offset="0%" stop-color="#FFB22E"/>
      <stop offset="100%" stop-color="#FF640A"/>
    </linearGradient>
  </defs>
	<path fill="url(#sm-g)" d="M0 0h1000v296H0z"/>
  <g fill="none" stroke="#FFFCBE" stroke-linejoin="round" stroke-width="2.8">
    <path id="m-border-w" d="M452.3 62h25.5l24.3 35 24.2-35h25.5v83.4h-25.5V99.7l-24.2 33.6-24.3-33.6v45.7h-25.5z"/>
    <use xlink:href="#m-border-w" opacity=".5"></use>
    <path d="M452.3 62l12.8 18.8v45.8l-12.8 18.8zM525.8 100.2l-23.7 33.1V97.6M477.8 62l-12.7 18.8M526.3 62L539 80.8M465.1 80.8l37 16.2-24.3 2.7z"/>
    <path d="M539 80.8l-12.7 18.9-24.2-2.7zM539 126.6l-12.7 18.8M465 126.6l12.8 18.8M539 126.6V80.8L551.8 62v83.4z"/>
  </g>
	<path fill="#FFFCBE" stroke="#FFFCBE" stroke-width="1.1" d="M409.7 216.1c0-.2.1-.2.3-.2h1c.1 0 .3 0 .3.2l5.7 13.1 5.6-13c0-.3.2-.3.3-.3h1c.2 0 .3 0 .3.2V234c0 .2-.1.2-.3.2h-1s-.2 0-.2-.2v-14.3l-5 11.6-.2.2h-.8c-.2 0-.4 0-.4-.2l-5-11.6h-.1v14.3c0 .2-.1.2-.3.2h-1s-.2 0-.2-.2V216zm41.6 0c0-.2.1-.2.3-.2h.9c.2 0 .3 0 .3.2l6 17.8c0 .2 0 .2-.2.2h-1c-.1 0-.2 0-.3-.2l-1.5-4.5h-7.6l-1.5 4.5c0 .2-.2.2-.3.2h-1c-.2 0-.2 0-.2-.2l6-17.8zm4 11.8l-3.2-9.6h-.1l-3.3 9.6h6.6zm30.8 6.5a8.2 8.2 0 0 1-3.2-.6 8.4 8.4 0 0 1-2.5-1.5c-.1-.1-.2-.3 0-.4l.6-.8h.3c.6.4 1.3.9 2.2 1.3.8.4 1.8.6 2.8.6a5 5 0 0 0 3.3-1c.8-.7 1.2-1.6 1.2-2.8 0-.4 0-.8-.2-1.2-.1-.4-.4-.8-.7-1-.3-.4-.7-.6-1.3-.8-.5-.3-1.2-.4-2-.5l-.8-.1c-1.7-.3-3-.8-3.7-1.6-.8-.8-1.2-2-1.2-3.3 0-1.6.4-2.8 1.4-3.7 1-1 2.3-1.4 4-1.4 1 0 1.9.1 2.8.4a7 7 0 0 1 2.2 1.1c.1.1.1.2 0 .4l-.5.8c-.1.2-.2.2-.4 0l-2-1c-.7-.2-1.4-.3-2.2-.3a4 4 0 0 0-2.9 1c-.7.7-1 1.5-1 2.6a3 3 0 0 0 1 2.3c.6.6 1.6 1 3 1.2h.9c1.7.3 3 .9 3.8 1.7.8.9 1.2 2 1.2 3.3 0 .8 0 1.5-.3 2.1-.3.7-.7 1.2-1.2 1.7s-1.2.9-2 1.1c-.7.3-1.6.4-2.6.4zm31.8-.3c-.2 0-.2 0-.2-.2v-16.4l-.2-.2h-5c-.2 0-.3 0-.3-.3v-.9c0-.2.1-.2.3-.2h11.8c.1 0 .2 0 .2.2v1c0 .1 0 .2-.2.2h-5c-.1 0-.2 0-.2.2v16.4c0 .2 0 .2-.2.2h-1zm28.5-18c0-.2 0-.2.2-.2h10c.1 0 .2 0 .2.2v1c0 .1 0 .2-.3.2H548c-.1 0-.2 0-.2.2v6.5l.2.1h7.3c.2 0 .3.1.3.3v1c0 .1 0 .2-.3.2H548c-.1 0-.2 0-.2.2v6.7c0 .1 0 .2.2.2h8.5c.2 0 .3 0 .3.3v.9c0 .2 0 .2-.3.2h-9.9c-.1 0-.2 0-.2-.2V216zm43 18s-.2 0-.3-.2l-3.6-8h-4.7l-.2.2v7.8c0 .2 0 .2-.2.2h-1c-.1 0-.2 0-.2-.2V216c0-.2 0-.2.2-.2h5.8c1.7 0 3 .4 4 1.3.8.9 1.3 2.1 1.3 3.7 0 1.3-.3 2.3-1 3.2-.5.8-1.4 1.4-2.5 1.7l3.7 8v.3h-1.3zm-4.2-9.6c1.2 0 2.2-.3 2.9-1 .6-.5 1-1.4 1-2.6 0-1.1-.4-2-1-2.7-.7-.6-1.7-.9-2.9-.9h-4.4c-.1 0-.2 0-.2.2v6.9l.2.1h4.4zm-168.9-23.7a8.2 8.2 0 0 1-3.3-.7 8.4 8.4 0 0 1-2.4-1.4c-.2-.2-.2-.3 0-.4l.6-.8c0-.2.2-.2.3 0 .6.4 1.3.9 2.2 1.2.8.4 1.8.6 2.8.6a5 5 0 0 0 3.3-1c.8-.7 1.2-1.6 1.2-2.7 0-.4 0-.9-.2-1.3l-.7-1c-.3-.3-.7-.6-1.3-.8l-2-.5h-.8c-1.7-.3-3-.8-3.7-1.6-.9-.9-1.3-2-1.3-3.3 0-1.6.5-2.9 1.5-3.8 1-.9 2.3-1.3 4-1.3 1 0 1.9.1 2.7.4a7 7 0 0 1 2.2 1.1c.2 0 .2.2 0 .4l-.4.8c-.1.1-.2.1-.4 0l-2-1c-.7-.2-1.4-.3-2.2-.3a4 4 0 0 0-2.9 1c-.7.7-1 1.5-1 2.6a3 3 0 0 0 1 2.3c.5.6 1.6 1 3 1.2h.9c1.7.3 3 .9 3.8 1.7.8.8 1.2 2 1.2 3.3 0 .8-.1 1.5-.4 2.1-.2.7-.6 1.2-1.1 1.7-.5.5-1.2.8-2 1.1-.7.3-1.6.4-2.6.4zm29.7-18.3c0-.2 0-.3.2-.3h1c.1 0 .2.1.2.3V193l8.3-10.5c.1-.2.3-.3.4-.3h1.2l.2.1v.2l-5.6 7 6 10.7v.2l-.2.1h-1.1c-.2 0-.3 0-.4-.2l-5.2-9.6-3.6 4.4v5.2c0 .1 0 .2-.2.2h-1c-.1 0-.2 0-.2-.2v-17.8zm35.2 0c0-.2.1-.3.3-.3h10s.2.1.2.3v1s-.1.2-.3.2H483l-.2.1v6.6l.2.1h7.3c.2 0 .3.1.3.3v.9c0 .2-.1.3-.3.3H483l-.2.1v6.8c0 .1 0 .2.2.2h8.5c.2 0 .3 0 .3.2v1c0 .1-.1.2-.3.2h-9.9c-.2 0-.3 0-.3-.2v-17.8zm36.7 18c-.2 0-.2 0-.2-.2v-16.5l-.2-.1h-5c-.2 0-.3-.1-.3-.3v-.9c0-.2.1-.3.3-.3h11.8c.1 0 .2.1.2.3v1s0 .2-.2.2h-5l-.2.1v16.5c0 .1 0 .2-.2.2h-1zm28-3.8a10.9 10.9 0 0 1-.5-3.3 46.7 46.7 0 0 1 .4-7.3 5.9 5.9 0 0 1 2-3.1c1-.7 2.2-1 3.5-1 1.2 0 2.3.2 3.2.8.9.6 1.6 1.4 2 2.6v.3l-.9.4h-.3c-.4-.9-.9-1.5-1.5-2a4 4 0 0 0-2.5-.7c-1 0-1.9.3-2.6.8a4.7 4.7 0 0 0-1.6 2.9l-.1 1a24 24 0 0 0-.1 3.3 63.7 63.7 0 0 0 .3 4.9c.4 1 .9 1.8 1.5 2.3a4 4 0 0 0 2.6.7 4 4 0 0 0 2.5-.7c.6-.5 1.1-1 1.5-1.9 0-.1.2-.2.3 0l.9.4v.3c-.4 1.1-1.1 2-2 2.5-1 .6-2 .9-3.2.9-1.3 0-2.5-.3-3.4-1-1-.7-1.6-1.7-2-3.1zm33.3-14.2c0-.2 0-.3.2-.3h1c.1 0 .2.1.2.3v7.9l.2.1h8.5l.2-.1v-7.9c0-.2 0-.3.2-.3h1c.2 0 .2.1.2.3v17.8c0 .1 0 .2-.2.2h-1c-.1 0-.2 0-.2-.2V192l-.2-.1h-8.5l-.2.1v8.2c0 .1 0 .2-.2.2h-1c-.1 0-.2 0-.2-.2v-17.8z"/>
</svg>
