<?xml version="1.0" encoding="UTF-8"?>
<svg width="1000px" height="296px" viewBox="0 0 1000 296" version="1.1" xmlns="http://www.w3.org/2000/svg" xmlns:xlink="http://www.w3.org/1999/xlink">
    <!-- Generator: Sketch Internal 52 (66832) - http://www.bohemiancoding.com/sketch -->
    <title>ui8-mobile</title>
    <desc>Created with Sketch Internal.</desc>
    <g id="ui8-mobile" stroke="none" stroke-width="1" fill="none" fill-rule="evenodd">
        <rect id="Rectangle" fill="#232323" x="0" y="0" width="1000" height="296"></rect>
        <g id="ui8" transform="translate(444.000000, 88.000000)">
            <path d="M48.0647727,2.77263158 C52.6971818,0.233684211 60.2025,0.230526316 64.8443182,2.77263158 L104.519318,24.4989474 C109.151727,27.0378947 112.909091,33.3947368 112.909091,38.6905263 L112.909091,81.3410526 C112.909091,86.64 109.161136,92.9873684 104.519318,95.5294737 L64.8443182,117.255789 C60.2119091,119.794737 52.7065909,119.801053 48.0647727,117.255789 L8.38977273,95.5294737 C3.75736364,92.9905263 0,86.6336842 0,81.3410526 L0,38.6905263 C0,33.3915789 3.74795455,27.0442105 8.38977273,24.4989474 L48.0647727,2.77263158 Z" id="Path" fill="#FFFFFF"></path>
            <ellipse id="Oval" fill="#2F8BE6" cx="111.334636" cy="27.1736842" rx="26.6528182" ry="27.1736842"></ellipse>
            <path d="M72.8044091,74.0431579 L72.8044091,45.6568421 C72.8044091,43.0863158 74.7364091,41.0526316 77.1765,41.0526316 C79.6165909,41.0526316 81.5454545,43.0863158 81.5454545,45.6568421 L81.5454545,74.0463158 C81.5454545,76.6136842 79.6165909,78.6473684 77.1765,78.6473684 C74.7364091,78.6473684 72.8044091,76.6136842 72.8044091,74.0431579 Z M65.9828182,60.0505263 C65.9828182,72.7294737 59.2270909,78.9473684 48.5603182,78.9473684 C37.8872727,78.9473684 31.3636364,72.6694737 31.3636364,60.3473684 L31.3636364,45.6568421 C31.3636364,43.0863158 33.2925,41.0526316 35.7325909,41.0526316 C38.1726818,41.0526316 40.1046818,43.0863158 40.1046818,45.6568421 L40.1046818,60.1105263 C40.1046818,66.9284211 43.3351364,70.4557895 48.6732273,70.4557895 C54.0050455,70.4557895 57.2417727,67.0452632 57.2417727,60.4073684 L57.2417727,45.66 C57.2417727,43.0863158 59.1706364,41.0526316 61.6107273,41.0526316 C64.0508182,41.0526316 65.9828182,43.0863158 65.9828182,45.6568421 L65.9828182,60.0505263 Z" id="Shape" fill="#353535" fill-rule="nonzero"></path>
            <path d="M111.340909,37.8947368 C106.840227,37.8947368 103.5,35.4378947 103.5,31.6926316 L103.5,31.6294737 C103.5,29.0210526 104.632227,27.4863158 106.780636,26.4442105 C105.212455,25.4305263 104.196273,24.0473684 104.196273,21.7452632 L104.196273,21.6821053 C104.196273,18.4010526 107.044091,15.7894737 111.340909,15.7894737 C115.637727,15.7894737 118.485545,18.3694737 118.485545,21.6852632 L118.485545,21.7484211 C118.485545,24.0473684 117.469364,25.4305263 115.901182,26.4442105 C117.961773,27.5810526 119.181818,28.9610526 119.181818,31.5094737 L119.181818,31.5726316 C119.181818,35.5578947 115.841591,37.8947368 111.340909,37.8947368 Z M111.340909,24.8778947 C113.112955,24.8778947 114.245182,23.7726316 114.245182,22.2663158 L114.245182,22.2031579 C114.245182,20.8863158 113.169409,19.6894737 111.340909,19.6894737 C109.512409,19.6894737 108.436636,20.8578947 108.436636,22.1747368 L108.436636,22.2378947 C108.436636,23.7410526 109.568864,24.8778947 111.340909,24.8778947 Z M111.340909,33.9947368 C113.548909,33.9947368 114.853636,32.8263158 114.853636,31.3231579 L114.853636,31.2631579 C114.853636,29.6052632 113.373273,28.6231579 111.340909,28.6231579 C109.308545,28.6231579 107.828182,29.6052632 107.828182,31.2631579 L107.828182,31.3263158 C107.828182,32.7978947 109.132909,33.9947368 111.340909,33.9947368 Z" id="Shape" fill="#FFFFFF" fill-rule="nonzero"></path>
        </g>
    </g>
</svg>