<svg xmlns="http://www.w3.org/2000/svg" width="13" height="13" viewBox="0 0 13 13">
  <g fill="#000000" fill-rule="evenodd">
    <path d="M6.5,13 C10.0898509,13 13,10.0898509 13,6.5 C13,2.91014913 10.0898509,0 6.5,0 C2.91014913,0 0,2.91014913 0,6.5 C0,10.0898509 2.91014913,13 6.5,13 Z M6.5,12 C9.53756615,12 12,9.53756615 12,6.5 C12,3.46243388 9.53756615,1 6.5,1 C3.46243388,1 1,3.46243388 1,6.5 C1,9.53756615 3.46243388,12 6.5,12 Z"/>
    <rect width="1" height="3" x="6" y="6" rx=".5"/>
    <circle cx="6.5" cy="4.5" r=".5"/>
  </g>
</svg>
