<svg xmlns="http://www.w3.org/2000/svg" width="24" height="24" viewBox="0 0 24 24">
  <path fill-opacity=".2" fill-rule="evenodd" stroke="#000" stroke-linejoin="round" stroke-width="1.5" d="M12,5.75 C15.2123319,5.75 17.8586334,8.1734641 18.2103199,11.2918076 C18.3861018,11.2641369 18.5664,11.25 18.75,11.25 C20.6829966,11.25 22.25,12.8170034 22.25,14.75 C22.25,16.6185634 20.7857224,18.1451264 18.9420352,18.2448211 L18.75,18.25 L12.25,18.25 C12.1672195,18.2483507 12.0838024,18.25 12,18.25 C11.9165355,18.25 11.8334532,18.2483639 11.7507833,18.2451221 L11.75,18.25 L5.25,18.25 L5.0579648,18.2448211 C3.2142776,18.1451264 1.75,16.6185634 1.75,14.75 C1.75,12.8170034 3.31700338,11.25 5.25,11.25 C5.43360004,11.25 5.61389823,11.2641369 5.78986545,11.2913815 C6.14136656,8.1734641 8.78766809,5.75 12,5.75 Z"/>
</svg>
