<svg xmlns="http://www.w3.org/2000/svg" xmlns:xlink="http://www.w3.org/1999/xlink" width="24" height="24" viewBox="0 0 24 24">
  <defs>
    <path id="components.color.variable-a" d="M24,0 L24,24 L0,24 L0,0 L24,0 Z M11,4 L6,4 C4.8954305,4 4,4.8954305 4,6 L4,6 L3.99944107,15.4542054 C3.99770306,15.6419933 4.007744,15.8292434 4.02926405,16.0148366 C4.0898635,16.5481566 4.24386017,17.0532437 4.47440716,17.5133205 C4.49045825,17.5444059 4.50676135,17.5761433 4.5234485,17.6076989 C4.53767003,17.6351086 4.5521389,17.6616881 4.56686617,17.6881039 C4.57849933,17.7087899 4.59035932,17.7297614 4.60239235,17.7506449 C4.62315601,17.7865156 4.64415218,17.8216708 4.66560991,17.8565114 C4.68842177,17.8941385 4.71188065,17.9311563 4.73590144,17.9678573 C4.74917453,17.9872133 4.76212289,18.0065919 4.77521689,18.0258635 C5.07829276,18.4746104 5.46730568,18.8739411 5.93446058,19.197327 C5.97025968,19.2223956 6.00604924,19.2465163 6.04219926,19.2701311 L6.0582483,19.2800472 L6.0582483,19.2800472 L6.09111124,19.3016339 C6.13204269,19.3276242 6.17342248,19.3529717 6.21523638,19.3776621 L6.25,19.3971143 C6.26416431,19.4052921 6.2783546,19.4133841 6.29257027,19.4213905 C6.33561236,19.4465832 6.37983601,19.470568 6.42449876,19.4938257 C6.43683956,19.4992954 6.44850558,19.5053039 6.46018675,19.5112566 C6.5129747,19.5391092 6.56703367,19.5653082 6.62168269,19.5904442 C6.63497561,19.5956948 6.6476723,19.6014708 6.66038435,19.6071829 C6.71099469,19.6307287 6.76258418,19.6527221 6.81465748,19.6737693 C6.83081892,19.6796335 6.84651345,19.6858898 6.86222778,19.6920517 C7.1750285,19.8149967 7.50533315,19.9033903 7.84815834,19.9531342 C8.05313895,19.9836942 8.25900214,19.9991976 8.46419928,20.0006621 L8.5,20 L8.5,20 L8.52413918,20.0006621 C8.56327149,20.0004154 8.60237437,19.999658 8.64143766,19.9983926 C8.66789367,19.9970004 8.69390424,19.9959717 8.71985716,19.9947232 C8.76638167,19.9928523 8.81318796,19.9897883 8.85990969,19.9859981 C8.88287722,19.9840008 8.90607686,19.9819857 8.92922544,19.9797953 C8.95828955,19.9770222 8.98658227,19.9740121 9.01483659,19.9707359 C9.39710356,19.9273383 9.76489972,19.8358825 10.1119996,19.7026635 L10.1615778,19.6821995 C10.1703293,19.6787292 10.1790706,19.6752313 10.1878016,19.6717059 C10.2404255,19.6514605 10.2920231,19.629419 10.3431145,19.6064519 C10.3568655,19.5994344 10.3708877,19.5930683 10.3848793,19.5866295 C10.4283707,19.5673245 10.4710357,19.546782 10.5133205,19.5255928 C10.5444059,19.5095417 10.5761433,19.4932387 10.6076989,19.4765515 C10.6351086,19.46233 10.6616881,19.4478611 10.6881039,19.4331338 C10.7203202,19.4151015 10.7527027,19.3966001 10.7848714,19.3776851 C10.8088242,19.3634548 10.832741,19.3490299 10.8565114,19.3343901 C10.8941385,19.3115782 10.9311563,19.2881193 10.9678573,19.2640986 C10.9872133,19.2508255 11.0065919,19.2378771 11.0258635,19.2247831 C11.4746104,18.9217072 11.8739411,18.5326943 12.197327,18.0655394 C12.2223956,18.0297403 12.2465163,17.9939508 12.2701311,17.9578007 L12.2800472,17.9417517 L12.2800472,17.9417517 L12.3016339,17.9088888 C12.3276242,17.8679573 12.3529717,17.8265775 12.3776621,17.7847636 L12.3971143,17.75 L17.1471143,9.52275866 C17.6993991,8.56617342 17.3716488,7.34299261 16.4150635,6.79070786 L16.4150635,6.79070786 L12.0849365,4.29070786 C11.9264416,4.19920079 11.760628,4.13185296 11.5917599,4.08752176 C11.4047983,4.03115577 11.2060375,4 11,4 L11,4 Z"/>
    <path id="components.color.variable-c" d="M24,0 L24,24 L0,24 L0,0 L24,0 Z M11,4 L6,4 C4.8954305,4 4,4.8954305 4,6 L4,6 L4,15.5 C4,17.9852814 6.01471863,20 8.5,20 C10.9852814,20 13,17.9852814 13,15.5 L13,15.5 L13,6 C13,4.8954305 12.1045695,4 11,4 L11,4 Z"/>
  </defs>
  <g fill="none" fill-rule="evenodd">
    <mask id="components.color.variable-b" fill="#fff">
      <use xlink:href="#components.color.variable-a"/>
    </mask>
    <path fill="#000" fill-opacity=".2" fill-rule="nonzero" stroke="#000" stroke-width="1.5" d="M19.0597286,12.2901405 C19.2323176,12.5890734 19.2674011,12.9296619 19.1846042,13.2386643 C19.1136353,13.5035236 18.9560605,13.7451768 18.7242381,13.9175011 L18.6021969,13.9976723 L10.3749555,18.7476723 C9.47815688,19.2654392 8.45639156,19.3706898 7.52938413,19.1222988 C6.60237666,18.873908 5.77012722,18.2718757 5.25236027,17.375077 C4.73459332,16.4782783 4.62934277,15.456513 4.87773372,14.5295056 C5.1070176,13.6738064 5.63762908,12.8988478 6.42326134,12.3774489 L6.62495554,12.2524817 L14.8521969,7.50248173 C15.1511298,7.32989275 15.4917182,7.29480925 15.8007207,7.37760621 C16.0655799,7.44857503 16.3072332,7.60614991 16.4795574,7.83797225 L16.5597286,7.96001349 L19.0597286,12.2901405 Z" mask="url(#components.color.variable-b)"/>
    <mask id="components.color.variable-d" fill="#fff">
      <use xlink:href="#components.color.variable-c"/>
    </mask>
    <path fill="#000" fill-opacity=".1" fill-rule="nonzero" stroke="#000" stroke-width="1.5" d="M16.040108,7.44023882 C16.3390409,7.61282782 16.5397183,7.89024431 16.6225153,8.19924678 C16.6934841,8.46410604 16.6778468,8.75217132 16.5632449,9.01731968 L16.4976397,9.14777058 L11.7476397,17.3750119 C11.2298728,18.2718106 10.3976233,18.8738429 9.47061586,19.1222337 C8.54360848,19.3706246 7.52184312,19.2653741 6.62504446,18.7476072 C5.72824578,18.2298402 5.12621351,17.3975907 4.87782262,16.4705833 C4.64853871,15.6148842 4.7205824,14.6784446 5.14026048,13.8340838 L5.25244919,13.6250119 L10.0024492,5.39777058 C10.1750382,5.09883769 10.4524547,4.89816026 10.7614571,4.81536329 C11.0263164,4.74439447 11.3143817,4.7600317 11.57953,4.8746336 L11.7099809,4.94023882 L16.040108,7.44023882 Z" mask="url(#components.color.variable-d)"/>
    <path stroke="#000" stroke-width="1.5" d="M11,4.75 C11.345178,4.75 11.657678,4.88991102 11.8838835,5.11611652 C12.110089,5.34232203 12.25,5.65482203 12.25,6 L12.25,6 L12.25,15.5 C12.25,16.5355339 11.830267,17.4730339 11.1516504,18.1516504 C10.4730339,18.830267 9.53553391,19.25 8.5,19.25 C7.46446609,19.25 6.52696609,18.830267 5.84834957,18.1516504 C5.16973305,17.4730339 4.75,16.5355339 4.75,15.5 L4.75,15.5 L4.75,6 C4.75,5.65482203 4.88991102,5.34232203 5.11611652,5.11611652 C5.34232203,4.88991102 5.65482203,4.75 6,4.75 L6,4.75 L11,4.75 Z"/>
    <circle cx="8.5" cy="15.5" r="1.5" fill="#000" fill-rule="nonzero"/>
  </g>
</svg>
