<svg xmlns="http://www.w3.org/2000/svg" width="24" height="24" viewBox="0 0 24 24">
  <g fill="none" fill-rule="evenodd">
    <path fill="#000" fill-rule="nonzero" d="M14.5,3 C16.6779915,3 18.6057884,4.07121043 19.7852738,5.71551437 L18.7058345,6.79500192 C17.8159783,5.41427481 16.2647593,4.5 14.5,4.5 C12.3367535,4.5 10.4943709,5.87378197 9.79768814,7.79651009 L9.727,8.004 C11.8154322,8.07754518 13.6483983,9.13034392 14.7855784,10.7159391 L13.7058345,11.7950019 C12.8159783,10.4142748 11.2647593,9.5 9.5,9.5 C9.5,11.2647593 10.4142748,12.8159783 11.7950019,13.7058345 L10.7160105,14.7856296 C9.12908315,13.6475265 8.0758304,11.812475 8.00392927,9.72815244 L7.84147192,9.7816409 C5.89523451,10.4657317 4.5,12.3199286 4.5,14.5 C4.5,16.2647593 5.41427481,17.8159783 6.79500192,18.7058345 L5.71551437,19.7852738 C4.07121043,18.6057884 3,16.6779915 3,14.5 C3,11.3755783 5.20445747,8.7660352 8.14284981,8.14189333 C8.7660352,5.20445747 11.3755783,3 14.5,3 Z" opacity=".5"/>
    <path fill="#000" fill-opacity=".2" stroke="#000" stroke-width="1.5" d="M19.0625255,6.00011435 C19.8072691,6.96952497 20.25,8.18305986 20.25,9.5 C20.25,10.8687359 19.7718695,12.1258439 18.9732632,13.1131612 C18.1594428,14.1192876 17.0132534,14.8458071 15.7013198,15.124474 C15.5365274,15.1594775 15.371252,15.1869618 15.205929,15.2072619 C15.1858529,15.3725187 15.1584266,15.5377293 15.1234793,15.7024563 C14.8452594,17.0138688 14.1189769,18.1597452 13.1130279,18.9733932 C12.1258189,19.7718837 10.868721,20.25 9.5,20.25 C8.18305986,20.25 6.96952497,19.8072691 6.00011435,19.0625255 L6.00011435,19.0625255 Z"/>
  </g>
</svg>
