<svg xmlns="http://www.w3.org/2000/svg" width="24" height="24" viewBox="0 0 24 24">
  <g fill="none" fill-rule="evenodd">
    <path fill="#000" fill-opacity=".5" fill-rule="nonzero" d="M6.36537118,8.49938602 L4,8.5 C3.75454011,8.5 3.55039163,8.67687516 3.50805567,8.91012437 L3.5,9 L3.5,15 C3.5,15.2454599 3.67687516,15.4496084 3.91012437,15.4919443 L4,15.5 L6.36507224,15.5000485 C6.6520383,16.0429157 7.00367847,16.5463192 7.40973349,16.9999997 L4,17 C2.8954305,17 2,16.1045695 2,15 L2,9 C2,7.8954305 2.8954305,7 4,7 L7.41121404,6.99834656 C7.00467422,7.4522999 6.65263126,7.95607506 6.36537118,8.49938602 Z"/>
    <path fill="#000" fill-opacity=".2" stroke="#000" stroke-width="1.5" d="M13,4.75 C14.8554368,4.75 16.7108736,5.45782528 18.1265242,6.87347584 C19.5421747,8.28912639 20.25,10.1445632 20.25,12 C20.25,13.8554368 19.5421747,15.7108736 18.1265242,17.1265242 C16.7108736,18.5421747 14.8554368,19.25 13,19.25 C11.1445632,19.25 9.28912639,18.5421747 7.87347584,17.1265242 C6.45782528,15.7108736 5.75,13.8554368 5.75,12 C5.75,10.1445632 6.45782528,8.28912639 7.87347584,6.87347584 C9.28912639,5.45782528 11.1445632,4.75 13,4.75 Z"/>
    <path fill="#000" fill-opacity=".2" d="M12,7 C13.1045695,7 14,7.8954305 14,9 L14,15 C14,16.1045695 13.1045695,17 12,17 L8.10165647,17.0006263 C6.80473162,15.7300649 6,13.95901 6,12 C6,10.04099 6.80473162,8.26993507 8.10165647,6.99937371 L12,7 Z"/>
    <path fill="#000" fill-rule="nonzero" d="M12,7 C13.1045695,7 14,7.8954305 14,9 L14,15 C14,16.1045695 13.1045695,17 12,17 L8.10165647,17.0006263 C7.64888956,16.5570631 7.2561094,16.0525015 6.9366139,15.5002395 L12,15.5 C12.2454599,15.5 12.4496084,15.3231248 12.4919443,15.0898756 L12.5,15 L12.5,9 C12.5,8.75454011 12.3231248,8.55039163 12.0898756,8.50805567 L12,8.5 L6.93671038,8.49959377 C7.25642218,7.94699296 7.64950979,7.44215416 8.10265013,6.99840044 L12,7 Z"/>
  </g>
</svg>
