<svg xmlns="http://www.w3.org/2000/svg" width="24" height="24" viewBox="0 0 24 24">
  <g fill="none" fill-rule="evenodd">
    <path fill="#000" fill-rule="nonzero" d="M18.1338571,18.4998705 C18.0487257,18.6469864 18,18.817803 18,19 C18,19.4405128 18.2848347,19.814499 18.6803775,19.9478317 C18.54289,19.9814765 18.3986082,20 18.25,20 L18.25,20 L5.75,20 C5.6013918,20 5.45711,19.9814765 5.31933753,19.9466124 C5.71516528,19.814499 6,19.4405128 6,19 C6,18.817803 5.95127427,18.6469864 5.86614288,18.4998705 Z M18.25,4 C19.2164983,4 20,4.78350169 20,5.75 L20,5.75 L20,18.25 C20,18.3986082 19.9814765,18.54289 19.9466124,18.6806625 C19.814499,18.2848347 19.4405128,18 19,18 C18.817803,18 18.6469864,18.0487257 18.4998705,18.1338571 L18.5,5.75 C18.5,5.61192881 18.3880712,5.5 18.25,5.5 L18.25,5.5 L5.75,5.5 C5.61192881,5.5 5.5,5.61192881 5.5,5.75 L5.5,5.75 L5.5011143,18.1344277 C5.35377607,18.0489435 5.18260372,18 5,18 C4.55948716,18 4.18550104,18.2848347 4.05216825,18.6803775 C4.01852351,18.54289 4,18.3986082 4,18.25 L4,18.25 L4,5.75 C4,4.78350169 4.78350169,4 5.75,4 L5.75,4 Z" opacity=".5"/>
    <path fill="#000" fill-opacity=".2" d="M14.0314662,8.75014841 C14.0109247,8.8300087 14,8.91372855 14,9 C14,9.55228475 14.4477153,10 15,10 C15.2430248,10 15.4658016,9.91330843 15.6390931,9.76916285 L18.7334304,17.8940047 C18.7501072,17.9377813 18.763506,17.9820016 18.773748,18.0263953 C18.3299047,18.1288831 18,18.5259149 18,19 C18,19.0764541 18.0085798,19.1509042 18.0248291,19.2224402 C17.9518928,19.2411813 17.8756205,19.25 17.7989426,19.25 L6.20105738,19.25 C6.12320688,19.25 6.04743416,19.2411039 5.97470035,19.2242729 L5.99327227,19.1166211 L5.99327227,19.1166211 L6,19 C6,18.5262577 5.67057227,18.1294573 5.22829564,18.0261778 C5.23663424,17.9816356 5.25007014,17.9373159 5.26656965,17.8940047 L8.36107213,9.76930022 C8.53433992,9.91336351 8.75705244,10 9,10 C9.55228475,10 10,9.55228475 10,9 C10,8.91372855 9.98907529,8.8300087 9.96853381,8.75014841 Z"/>
    <path fill="#000" fill-rule="nonzero" d="M15.9501638,8.68574705 C16.0514379,8.81793164 16.134861,8.96599089 16.1962009,9.12700818 L16.1962009,9.12700818 L19.4342962,17.6270082 C19.5014864,17.8033825 19.538271,17.9838721 19.5472371,18.1627061 C19.3894099,18.059702 19.201677,18 19,18 C18.4477153,18 18,18.4477153 18,19 C18,19.3644915 18.1950072,19.6834366 18.4863818,19.8581957 L18.4219344,19.8853535 C18.2229736,19.9611482 18.0118516,20 17.7989426,20 L17.7989426,20 L6.20105738,20 C5.95589684,20 5.72251078,19.9495874 5.51070009,19.8585631 C5.80411243,19.6848747 6,19.3653134 6,19 C6,18.4477153 5.55228475,18 5,18 C4.7987209,18 4.61133097,18.0594666 4.45444081,18.1617892 C4.46257747,17.9786079 4.50044942,17.798301 4.56570385,17.6270082 L4.56570385,17.6270082 L7.80379909,9.12700818 C7.86513901,8.96599089 7.94856209,8.81793164 8.04983617,8.68574705 C8.01762547,8.78495604 8,8.89041969 8,9 C8,9.55228475 8.44771525,10 9,10 C9.02629927,10 9.05236143,9.99898477 9.07814941,9.99699137 L5.96743545,18.1610012 C5.95660765,18.1894241 5.95105738,18.2195844 5.95105738,18.25 C5.95105738,18.3880712 6.0629862,18.5 6.20105738,18.5 L6.20105738,18.5 L17.7989426,18.5 C17.8293582,18.5 17.8595185,18.4944497 17.8879414,18.4836219 C18.0169673,18.4344692 18.0817172,18.290027 18.0325646,18.1610012 L18.0325646,18.1610012 L14.9205468,9.995 L15,10 C15.5128358,10 15.9355072,9.61395981 15.9932723,9.11662113 L16,9 C16,8.92110218 15.990863,8.84433843 15.9735893,8.77070917 Z M14.5608474,8 C14.6456902,8 14.7295031,8.00612186 14.8117809,8.0180174 C14.3488044,8.10651598 14,8.51252417 14,9 C14,9.18260372 14.0489435,9.35377607 14.1344277,9.5011143 L9.86557226,9.5011143 C9.9510565,9.35377607 10,9.18260372 10,9 C10,8.51217195 9.65069137,8.10592931 9.18855157,8.01774953 L9.2848204,8.00678425 L9.2848204,8.00678425 L9.43915262,8 Z"/>
    <rect width="2.5" height="2.5" x="3.75" y="17.75" stroke="#000" stroke-width="1.5" rx="1.25"/>
    <rect width="2.5" height="2.5" x="17.75" y="17.75" stroke="#000" stroke-width="1.5" rx="1.25"/>
    <rect width="2.5" height="2.5" x="7.75" y="7.75" stroke="#000" stroke-width="1.5" rx="1.25"/>
    <rect width="2.5" height="2.5" x="13.75" y="7.75" stroke="#000" stroke-width="1.5" rx="1.25"/>
  </g>
</svg>
