<svg xmlns="http://www.w3.org/2000/svg" width="24" height="24" viewBox="0 0 24 24">
  <g fill="none" fill-rule="evenodd" transform="translate(2 3.5)">
    <path fill="#000" fill-opacity=".2" d="M13.5775601,11.5271381 C13.5973538,12.0819673 13.1100571,12.6514841 12.260039,13.2466732 C12.1126324,13.3498884 11.924363,13.3753132 11.7548586,13.3148952 C11.7164857,13.3012176 11.6782353,13.2873057 11.6401079,13.2731611 C12.2828008,12.8094706 12.8784928,12.2805301 13.4242977,11.6947911 Z M5.25744955,0.340194307 C5.50878576,0.164206796 5.85520008,0.225288988 6.03118759,0.4766252 L6.03118759,0.4766252 L9.13951257,4.91667559 L6.38845679,8.84671756 C6.00581215,8.23596941 5.67004449,7.58505049 5.38413322,6.90292581 L5.25370578,6.58075064 C4.19051585,3.85967968 4.12095794,1.13597429 5.25744955,0.340194307 Z"/>
    <path fill="#000" fill-rule="nonzero" d="M13.5775601,11.5271381 C13.5973538,12.0819673 13.1100571,12.6514841 12.260039,13.2466732 C12.1126324,13.3498884 11.924363,13.3753132 11.7548586,13.3148952 C11.7164857,13.3012176 11.6782353,13.2873057 11.6401079,13.2731611 C12.2828008,12.8094706 12.8784928,12.2805301 13.4242977,11.6947911 Z M5.25744955,0.340194307 C5.50878576,0.164206796 5.85520008,0.225288988 6.03118759,0.4766252 L6.03118759,0.4766252 L9.13951257,4.91667559 L8.22451257,6.22367559 L5.93794695,2.9571477 L5.95851065,3.26373666 C6.03609599,4.09985995 6.27335963,5.06873937 6.65084454,6.03485387 L6.65084454,6.03485387 L6.7839396,6.36217317 C6.95052465,6.75616486 7.13417594,7.13500601 7.33379604,7.49737563 L6.38845679,8.84671756 C5.94599113,8.14048767 5.56620525,7.38054494 5.25370578,6.58075064 C4.19051585,3.85967968 4.12095794,1.13597429 5.25744955,0.340194307 Z"/>
    <path stroke="#000" stroke-width="1.5" d="M17.0458015,11.0923841 L17.2958015,14.5090507 C17.2958015,14.9922999 17.0999261,15.4297999 16.7832383,15.7464876 C16.4665506,16.0631753 16.0290506,16.2590507 15.5458015,16.2590507 L15.5458015,16.2590507 L14.9902459,16.2590507 C14.5069968,16.2590507 14.0694968,16.0631753 13.752809,15.7464876 C13.4361213,15.4297999 13.2402459,14.9922999 13.2402459,14.5090507 L13.2402459,14.5090507 L13.2402459,12.8423841 C13.2402459,12.3591349 13.4361213,11.9216349 13.752809,11.6049472 C14.0694968,11.2882595 14.5069968,11.0923841 14.9902459,11.0923841 L14.9902459,11.0923841 L17.0458015,11.0923841 Z" transform="scale(-1 1) rotate(35 0 -34.748)"/>
    <path fill="#000" fill-opacity=".2" stroke="#000" stroke-width="1.5" d="M10.4949443,0.907388206 C11.0064623,1.00100024 11.3686403,1.39194786 11.708333,1.87646041 C12.3122526,2.73784678 12.8283162,3.94578459 13.1542113,5.28691385 C13.8872041,8.30333766 13.5489902,11.4109263 11.8661351,13.8383967 C11.3536609,13.8332499 10.9370254,13.7862993 10.6558793,13.630653 L10.6558793,13.630653 Z" transform="rotate(35 12.007 7.294)"/>
    <path stroke="#000" stroke-width="1.5" d="M6.55555556,11.0923841 L6.80555556,14.5090507 C6.80555556,14.9922999 6.60968013,15.4297999 6.29299242,15.7464876 C5.97630471,16.0631753 5.53880471,16.2590507 5.05555556,16.2590507 L5.05555556,16.2590507 L4.5,16.2590507 C4.01675084,16.2590507 3.57925084,16.0631753 3.26256313,15.7464876 C2.94587542,15.4297999 2.75,14.9922999 2.75,14.5090507 L2.75,14.5090507 L2.75,12.8423841 C2.75,12.3591349 2.94587542,11.9216349 3.26256313,11.6049472 C3.57925084,11.2882595 4.01675084,11.0923841 4.5,11.0923841 L4.5,11.0923841 L6.55555556,11.0923841 Z" transform="rotate(35 4.778 13.676)"/>
  </g>
</svg>
