<svg xmlns="http://www.w3.org/2000/svg" width="24" height="24" viewBox="0 0 24 24">
  <g fill="none" fill-rule="evenodd">
    <path fill="#000" fill-rule="nonzero" d="M19.4595419,6.96298618 C20.4320369,8.40038184 21,10.1338635 21,12 C21,16.9705627 16.9705627,21 12,21 C10.1338635,21 8.40038184,20.4320369 6.96298618,19.4595419 C7.39226429,19.1774093 7.68845237,18.7113637 7.74146991,18.1738827 C8.94996036,19.010043 10.4177624,19.5 12,19.5 C16.1421356,19.5 19.5,16.1421356 19.5,12 C19.5,10.4177624 19.010043,8.94996036 18.173573,7.7400378 C18.6819242,7.6913563 19.1261415,7.42398102 19.4123515,7.03352727 L19.4595419,6.96298618 Z"/>
    <path fill="#000" fill-rule="nonzero" d="M12,3 C13.8661365,3 15.5996182,3.56796307 17.0370138,4.54045813 C16.6077357,4.82259066 16.3115476,5.28863635 16.2585301,5.82611733 C15.0500396,4.98995696 13.5822376,4.5 12,4.5 C7.85786438,4.5 4.5,7.85786438 4.5,12 C4.5,13.5822376 4.98995696,15.0500396 5.82642698,16.2599622 C5.28863635,16.3115476 4.82259066,16.6077357 4.53950346,17.0355711 C3.56796307,15.5996182 3,13.8661365 3,12 C3,7.02943725 7.02943725,3 12,3 Z" opacity=".5"/>
    <rect width="2.5" height="2.5" x="4.75" y="16.75" stroke="#000" stroke-width="1.5" rx="1.25"/>
    <rect width="2.5" height="2.5" x="10.75" y="10.75" stroke="#000" stroke-width="1.5" rx="1.25"/>
    <rect width="2.5" height="2.5" x="16.75" y="4.75" stroke="#000" stroke-width="1.5" rx="1.25"/>
    <line x1="17" x2="13" y1="7" y2="11" stroke="#000" stroke-width="1.5"/>
    <line x1="11" x2="7" y1="13" y2="17" stroke="#000" stroke-width="1.5"/>
    <path fill="#000" fill-opacity=".2" d="M12,20 C16.418278,20 20,16.418278 20,12 C20,10.398236 19.5292581,8.9064197 18.7185735,7.65535023 C18.4575818,7.25258096 17.3270943,7.34850023 17,7 C15.9904693,7.80762456 14.6548099,9.1044422 13.2234876,10.561216 C12.8419875,10.9494999 13.3907284,12.0952231 13,12.5 C12.4745041,13.04439 11.0075718,12.8519822 10.4838935,13.3997625 C9.24011624,14.7007836 8.03140793,15.9685921 7,17 C7.38574273,17.3719161 7.25670645,18.4652124 7.71082816,18.7541995 C8.95042165,19.5430331 10.4218457,20 12,20 Z"/>
  </g>
</svg>
