<svg xmlns="http://www.w3.org/2000/svg" width="24" height="24" viewBox="0 0 24 24">
  <g fill="none" fill-rule="evenodd">
    <circle cx="12" cy="12" r="1.25" stroke="#000" stroke-width="1.5"/>
    <path fill="#000" fill-opacity=".2" stroke="#000" stroke-width="1.5" d="M12.5,16.75 C12.7071068,16.75 12.8946068,16.8339466 13.0303301,16.9696699 C13.1660534,17.1053932 13.25,17.2928932 13.25,17.5 L13.25,17.5 L13.25,19.5 C13.25,19.7071068 13.1660534,19.8946068 13.0303301,20.0303301 C12.8946068,20.1660534 12.7071068,20.25 12.5,20.25 L12.5,20.25 L11.5,20.25 C11.2928932,20.25 11.1053932,20.1660534 10.9696699,20.0303301 C10.8339466,19.8946068 10.75,19.7071068 10.75,19.5 L10.75,19.5 L10.75,17.5 C10.75,17.2928932 10.8339466,17.1053932 10.9696699,16.9696699 C11.1053932,16.8339466 11.2928932,16.75 11.5,16.75 L11.5,16.75 Z M16.8190254,13.5925429 C17.0044269,13.5428648 17.20878,13.5639149 17.3881397,13.6674682 L17.3881397,13.6674682 L19.1201905,14.6674682 C19.2995503,14.7710216 19.4199567,14.9374715 19.4696349,15.122873 C19.5193131,15.3082745 19.498263,15.5126276 19.3947096,15.6919873 L19.3947096,15.6919873 L18.8947096,16.5580127 C18.7911562,16.7373724 18.6247063,16.8577789 18.4393048,16.9074571 C18.2539033,16.9571352 18.0495503,16.9360851 17.8701905,16.8325318 L17.8701905,16.8325318 L16.1381397,15.8325318 C15.95878,15.7289784 15.8383735,15.5625285 15.7886954,15.377127 C15.7390172,15.1917255 15.7600673,14.9873724 15.8636207,14.8080127 L15.8636207,14.8080127 L16.3636207,13.9419873 C16.4671741,13.7626276 16.633624,13.6422211 16.8190254,13.5925429 Z M6.61186028,13.6674682 C6.79122001,13.5639149 6.99557308,13.5428648 7.18097456,13.5925429 C7.36637605,13.6422211 7.53282594,13.7626276 7.63637933,13.9419873 L7.63637933,13.9419873 L8.13637933,14.8080127 C8.23993272,14.9873724 8.26098283,15.1917255 8.21130465,15.377127 C8.16162647,15.5625285 8.04122001,15.7289784 7.86186028,15.8325318 L7.86186028,15.8325318 L6.12980947,16.8325318 C5.95044974,16.9360851 5.74609667,16.9571352 5.56069519,16.9074571 C5.37529371,16.8577789 5.20884381,16.7373724 5.10529042,16.5580127 L5.10529042,16.5580127 L4.60529042,15.6919873 C4.50173703,15.5126276 4.48068692,15.3082745 4.5303651,15.122873 C4.58004328,14.9374715 4.70044974,14.7710216 4.87980947,14.6674682 L4.87980947,14.6674682 Z M17.8701905,7.16746825 C18.0495503,7.06391485 18.2539033,7.04286475 18.4393048,7.09254293 C18.6247063,7.14222111 18.7911562,7.26262756 18.8947096,7.4419873 L18.8947096,7.4419873 L19.3947096,8.3080127 C19.498263,8.48737244 19.5193131,8.6917255 19.4696349,8.87712699 C19.4199567,9.06252847 19.2995503,9.22897836 19.1201905,9.33253175 L19.1201905,9.33253175 L17.3881397,10.3325318 C17.20878,10.4360851 17.0044269,10.4571352 16.8190254,10.4074571 C16.633624,10.3577789 16.4671741,10.2373724 16.3636207,10.0580127 L16.3636207,10.0580127 L15.8636207,9.1919873 C15.7600673,9.01262756 15.7390172,8.8082745 15.7886954,8.62287301 C15.8383735,8.43747153 15.95878,8.27102164 16.1381397,8.16746825 L16.1381397,8.16746825 Z M5.56069519,7.09254293 C5.74609667,7.04286475 5.95044974,7.06391485 6.12980947,7.16746825 L6.12980947,7.16746825 L7.86186028,8.16746825 C8.04122001,8.27102164 8.16162647,8.43747153 8.21130465,8.62287301 C8.26098283,8.8082745 8.23993272,9.01262756 8.13637933,9.1919873 L8.13637933,9.1919873 L7.63637933,10.0580127 C7.53282594,10.2373724 7.36637605,10.3577789 7.18097456,10.4074571 C6.99557308,10.4571352 6.79122001,10.4360851 6.61186028,10.3325318 L6.61186028,10.3325318 L4.87980947,9.33253175 C4.70044974,9.22897836 4.58004328,9.06252847 4.5303651,8.87712699 C4.48068692,8.6917255 4.50173703,8.48737244 4.60529042,8.3080127 L4.60529042,8.3080127 L5.10529042,7.4419873 C5.20884381,7.26262756 5.37529371,7.14222111 5.56069519,7.09254293 Z M12.5,3.75 C12.7071068,3.75 12.8946068,3.83394661 13.0303301,3.96966991 C13.1660534,4.10539322 13.25,4.29289322 13.25,4.5 L13.25,4.5 L13.25,6.5 C13.25,6.70710678 13.1660534,6.89460678 13.0303301,7.03033009 C12.8946068,7.16605339 12.7071068,7.25 12.5,7.25 L12.5,7.25 L11.5,7.25 C11.2928932,7.25 11.1053932,7.16605339 10.9696699,7.03033009 C10.8339466,6.89460678 10.75,6.70710678 10.75,6.5 L10.75,6.5 L10.75,4.5 C10.75,4.29289322 10.8339466,4.10539322 10.9696699,3.96966991 C11.1053932,3.83394661 11.2928932,3.75 11.5,3.75 L11.5,3.75 Z"/>
    <line x1="12" x2="12" y1="7.5" y2="10.5" stroke="#000" stroke-width="1.5" opacity=".5"/>
  </g>
</svg>
