<svg xmlns="http://www.w3.org/2000/svg" width="24" height="24" viewBox="0 0 24 24">
  <path d="M17.5,9.5 C19.9852814,9.5 22,11.5147186 22,14 C22,16.4852814 19.9852814,18.5 17.5,18.5 L17.5,18.5 L12.5,18.5 C10.0147186,18.5 8,16.4852814 8,14 C8,11.5147186 10.0147186,9.5 12.5,9.5 C12.9142136,9.5 13.25,9.83578644 13.25,10.25 C13.25,10.6642136 12.9142136,11 12.5,11 C10.8431458,11 9.5,12.3431458 9.5,14 C9.5,15.6568542 10.8431458,17 12.5,17 L12.5,17 L17.5,17 C19.1568542,17 20.5,15.6568542 20.5,14 C20.5,12.3431458 19.1568542,11 17.5,11 C17.0857864,11 16.75,10.6642136 16.75,10.25 C16.75,9.83578644 17.0857864,9.5 17.5,9.5 Z M11.5,5.5 C13.9852814,5.5 16,7.51471863 16,10 C16,12.4852814 13.9852814,14.5 11.5,14.5 C11.0857864,14.5 10.75,14.1642136 10.75,13.75 C10.75,13.3357864 11.0857864,13 11.5,13 C13.1568542,13 14.5,11.6568542 14.5,10 C14.5,8.34314575 13.1568542,7 11.5,7 L11.5,7 L6.5,7 C4.84314575,7 3.5,8.34314575 3.5,10 C3.5,11.6568542 4.84314575,13 6.5,13 C6.91421356,13 7.25,13.3357864 7.25,13.75 C7.25,14.1642136 6.91421356,14.5 6.5,14.5 C4.01471863,14.5 2,12.4852814 2,10 C2,7.51471863 4.01471863,5.5 6.5,5.5 L6.5,5.5 Z"/>
</svg>
