<svg xmlns="http://www.w3.org/2000/svg" xmlns:xlink="http://www.w3.org/1999/xlink" width="24" height="24" viewBox="0 0 24 24">
  <defs>
    <path id="img.insert.image.24-a" d="M5.8138852,5.25 L18.1861148,5.25 C19.0776335,5.25 19.4009198,5.34282561 19.7268457,5.5171327 C20.0527716,5.6914398 20.3085602,5.94722837 20.4828673,6.2731543 C20.6571744,6.59908022 20.75,6.92236646 20.75,7.8138852 L20.75,16.1861148 C20.75,17.0776335 20.6571744,17.4009198 20.4828673,17.7268457 C20.3085602,18.0527716 20.0527716,18.3085602 19.7268457,18.4828673 C19.4009198,18.6571744 19.0776335,18.75 18.1861148,18.75 L5.8138852,18.75 C4.92236646,18.75 4.59908022,18.6571744 4.2731543,18.4828673 C3.94722837,18.3085602 3.6914398,18.0527716 3.5171327,17.7268457 C3.34282561,17.4009198 3.25,17.0776335 3.25,16.1861148 L3.25,7.8138852 C3.25,6.92236646 3.34282561,6.59908022 3.5171327,6.2731543 C3.6914398,5.94722837 3.94722837,5.6914398 4.2731543,5.5171327 C4.59908022,5.34282561 4.92236646,5.25 5.8138852,5.25 Z"/>
  </defs>
  <g fill="none" fill-rule="evenodd">
    <mask id="img.insert.image.24-b" fill="#fff">
      <use xlink:href="#img.insert.image.24-a"/>
    </mask>
    <use stroke="#000" stroke-linejoin="round" stroke-width="1.5" xlink:href="#img.insert.image.24-a"/>
    <path fill="#000" fill-opacity=".2" stroke="#000" stroke-linecap="round" stroke-linejoin="round" stroke-width="1.5" d="M10.3845896,12.0966541 L14.5,16.373 L15.6055869,15.2339315 C16.3757,14.4396118 17.5932003,14.4714744 18.3136911,15.2922721 L22,19.49179 C22,20.1871525 20.5,20.5 20.5,20.5 L10.5,20.5 L11.493,19.475 L3.5,19.4543026 C3.5,19.4543026 1.5,19.5411503 1.5,18.9927711 L7.6591503,12.1477883 C8.39968114,11.3247981 9.62502529,11.3072293 10.3845896,12.0966541 Z" mask="url(#img.insert.image.24-b)"/>
    <circle cx="16" cy="10" r="2" fill="#000" mask="url(#img.insert.image.24-b)"/>
  </g>
</svg>
