<svg xmlns="http://www.w3.org/2000/svg" width="24" height="24" viewBox="0 0 24 24">
  <g fill="none" fill-rule="evenodd">
    <path fill="#000" fill-opacity=".2" d="M14.0451435,4.75 C15.1595419,4.75 15.5636497,4.86603201 15.9710571,5.08391588 C16.3784645,5.30179975 16.6982003,5.62153546 16.9160841,6.02894287 C17.0514458,6.28204718 17.1474968,6.53387798 17.2008371,6.9555395 C17.0671006,7.09804271 16.9285013,7.26407252 16.7841009,7.45851796 L16.7841009,7.45851796 L16.6984452,7.64404267 C16.5941449,7.89547029 16.5297202,8.16233461 16.5081223,8.43493176 L16.5081223,8.43493176 L16.502,8.592 L16.3336258,8.6583514 C15.4988645,9.01132092 14.8274964,9.58762225 14.3145513,10.3707114 C13.6472639,11.3894278 13.2514693,12.8292155 13.2472742,14.7210208 L13.2472742,14.7210208 L13.2421306,14.8809701 C13.2333414,15.0900907 13.2152178,15.2831146 13.1684408,15.4658508 L13.1684408,15.4658508 L13.154,15.51 L13.0472695,15.4158684 C12.9829211,15.3626742 12.9168741,15.3114592 12.8492199,15.2623171 C12.1895074,14.7831207 11.3778691,14.5 10.5,14.5 C9.3954305,14.5 8.3954305,14.9477153 7.67157288,15.6715729 C7.25455743,16.0885883 6.92919169,16.5972535 6.72828105,17.1647629 C6.43575658,17.1086001 6.23276264,17.0250881 6.02894287,16.9160841 C5.62153546,16.6982003 5.30179975,16.3784645 5.08391588,15.9710571 C4.86603201,15.5636497 4.75,15.1595419 4.75,14.0451435 L4.75,7.9548565 C4.75,6.84045808 4.86603201,6.43635028 5.08391588,6.02894287 C5.30179975,5.62153546 5.62153546,5.30179975 6.02894287,5.08391588 C6.43635028,4.86603201 6.84045808,4.75 7.9548565,4.75 L14.0451435,4.75 Z"/>
    <path fill="#000" fill-rule="nonzero" d="M14.75,4 C16.2480502,4 17.5093732,5.01355001 17.8856302,6.39231141 C17.5482673,6.59150141 17.1889883,6.91330821 16.7841009,7.45851796 L16.7841009,7.45851796 L16.6984452,7.64404267 C16.5941449,7.89547029 16.5297202,8.16233461 16.5081223,8.43493176 L16.5081223,8.43493176 L16.502,8.592 L16.5,8.593 L16.5,7.25 C16.5,6.3318266 15.7928897,5.57880766 14.8935272,5.5058012 L14.75,5.5 L7.25,5.5 C6.28350169,5.5 5.5,6.28350169 5.5,7.25 L5.5,7.25 L5.5,14.75 C5.5,15.6464272 6.17401222,16.3854304 7.04290108,16.487874 C6.79020641,16.9194495 6.61637451,17.4045841 6.54148926,17.9217527 C5.08775671,17.5997833 4,16.3019212 4,14.75 L4,14.75 L4,7.25 C4,5.45507456 5.45507456,4 7.25,4 L7.25,4 Z"/>
    <circle cx="10.5" cy="18.5" r="1.75" fill="#000" fill-opacity=".2" fill-rule="nonzero" stroke="#000" stroke-width="1.5"/>
    <path fill="#000" fill-opacity=".2" fill-rule="nonzero" stroke="#000" stroke-width="1.5" d="M22.0704321,10.2092441 L19.294819,8.34953573 C19.1342327,8.24194017 18.9168284,8.28489763 18.8092328,8.44548391 C18.770617,8.50311803 18.75,8.57092803 18.75,8.64030292 L18.75,12.3597333 C18.75,12.553033 18.9067003,12.7097333 19.1,12.7097333 C19.1693753,12.7097333 19.2371857,12.6891161 19.29482,12.6504998 L22.0704331,10.7907778 C22.231019,10.6831817 22.2739757,10.4657772 22.1663796,10.3051913 C22.1409622,10.2672562 22.1083673,10.2346613 22.0704321,10.2092441 Z"/>
    <path stroke="#000" stroke-width="1.5" d="M18.5,10.5 C16.5,10.5 15.5,11.8333333 15.5,14.5 C15.5,17.1666667 14.5,18.5 12.5,18.5"/>
  </g>
</svg>
