<svg xmlns="http://www.w3.org/2000/svg" width="24" height="24" viewBox="0 0 24 24">
  <g fill="none" fill-rule="evenodd">
    <path stroke="#000" stroke-linejoin="round" stroke-width="1.5" d="M17.5,10 L16.6515903,15.514663 C16.5597473,16.1116426 16.1188053,16.5952987 15.5328362,16.7417909 L5.30845208,19.297887 C5.04055463,19.3648613 4.76908738,19.201981 4.70211302,18.9340835 C4.68220802,18.8544635 4.68220802,18.7711679 4.70211302,18.6915479 L7.25820905,8.4671638 C7.40470133,7.88119468 7.88835742,7.44025271 8.48533702,7.34840969 L14,6.5 L14,6.5"/>
    <path fill="#000" fill-rule="nonzero" d="M10.4393398,13.5606602 C11.0251263,14.1464466 11.9748737,14.1464466 12.5606602,13.5606602 C13.1464466,12.9748737 13.1464466,12.0251263 12.5606602,11.4393398 C11.9748737,10.8535534 11.0251263,10.8535534 10.4393398,11.4393398 C9.85355339,12.0251263 9.85355339,12.9748737 10.4393398,13.5606602 Z"/>
    <line x1="8.141" x2="8.141" y1="11.904" y2="19.818" stroke="#000" stroke-width="1.5" transform="rotate(45 8.14 15.861)"/>
    <path fill="#000" fill-opacity=".2" fill-rule="nonzero" stroke="#000" stroke-width="1.5" d="M14.7797474,3.75 C15.1712439,3.75 15.5627404,3.89935088 15.8614422,4.19805264 L15.8614422,4.19805264 L19.8019474,8.13855783 C20.1006491,8.43725959 20.25,8.82875609 20.25,9.22025259 C20.25,9.6117491 20.1006491,10.0032456 19.8019474,10.3019474 C19.5032456,10.6006491 19.1117491,10.75 18.7202526,10.75 C18.3287561,10.75 17.9372596,10.6006491 17.6385578,10.3019474 L17.6385578,10.3019474 L13.6980526,6.36144217 C13.3993509,6.06274041 13.25,5.67124391 13.25,5.27974741 C13.25,4.8882509 13.3993509,4.4967544 13.6980526,4.19805264 C13.9967544,3.89935088 14.3882509,3.75 14.7797474,3.75 Z"/>
  </g>
</svg>
