<svg xmlns="http://www.w3.org/2000/svg" width="24" height="24" viewBox="0 0 24 24">
  <g fill="none" fill-rule="evenodd">
    <circle cx="6.5" cy="17.5" r="2.25" fill="#000" fill-opacity=".2" fill-rule="nonzero" stroke="#000" stroke-width="1.5"/>
    <path fill="#000" fill-opacity=".2" fill-rule="nonzero" stroke="#000" stroke-width="1.5" d="M20.1136053,6.20480777 L16.2880254,3.76818158 C16.1249877,3.66433803 15.9086378,3.71232433 15.8047942,3.87536198 C15.769009,3.93154586 15.75,3.99677499 15.75,4.06338736 L15.75,8.93665766 C15.75,9.12995732 15.9067003,9.28665766 16.1,9.28665766 C16.1666128,9.28665766 16.2318423,9.26764841 16.2880264,9.23186282 L20.1136063,6.79521871 C20.2766436,6.69137461 20.3246292,6.47502449 20.2207851,6.31198718 C20.1933163,6.26886066 20.156732,6.23227639 20.1136053,6.20480777 Z"/>
    <path stroke="#000" stroke-width="1.5" d="M15.5,6.5 C13.1666667,6.5 12,8.33333333 12,12 C12,15.6666667 10.8333333,17.5 8.5,17.5"/>
  </g>
</svg>
