<svg xmlns="http://www.w3.org/2000/svg" width="24" height="24" viewBox="0 0 24 24">
  <g fill="none" fill-rule="evenodd">
    <path stroke="#000" stroke-linecap="round" stroke-linejoin="round" stroke-width="1.5" d="M2.75,17.25 L6.79555131,6.17796484 C6.93770648,5.78890857 7.36833844,5.58875569 7.75739471,5.73091087 C7.96500973,5.8067702 8.12858936,5.97034982 8.20444869,6.17796484 L12.25,17.25 L12.25,17.25"/>
    <line x1="4" x2="11" y1="13.75" y2="13.75" stroke="#000" stroke-width="1.5"/>
    <path stroke="#000" stroke-linecap="round" stroke-linejoin="round" stroke-width="1.5" d="M15.25,11.0689717 C16.25,8.49354319 20.75,8.49354319 20.75,12.0991431 L20.75,17.25"/>
    <path fill="#000" fill-rule="nonzero" d="M21.2500103,13 C21.2500103,13.7151228 20.9142136,13.75 20.5,13.75 C18.7513387,13.7241199 17.562867,13.8054221 16.9345849,13.9939068 C15.9921616,14.2766337 15.5,14.6433062 15.5,15.25 C15.5,15.8631611 15.9000687,16.4218523 16.4730552,16.5474247 C17.3063303,16.7300403 19.3507304,16.8767207 20.0930658,14.1439896 C20.1918828,13.7802183 20.6721584,14.7949947 20.5698864,15.1582998 C19.8513741,17.710701 17.6145812,18.3331937 16.1519448,18.012651 C14.8540155,17.7282045 14.0098877,16.7363874 14.0098877,15.4508057 C14.0098877,13.744019 14.7676888,12.7711172 18,12.6161655 C21.2323112,12.4612139 21.2500103,12.2848772 21.2500103,13 Z"/>
  </g>
</svg>
