<svg xmlns="http://www.w3.org/2000/svg" width="24" height="24" viewBox="0 0 24 24">
  <g fill="none" fill-rule="evenodd" stroke-linejoin="round">
    <path fill="#000" fill-opacity=".2" stroke="#000" stroke-width="1.5" d="M17.1861148,4.25 C18.0776335,4.25 18.4009198,4.34282561 18.7268457,4.5171327 C19.0527716,4.6914398 19.3085602,4.94722837 19.4828673,5.2731543 C19.6571744,5.59908022 19.75,5.92236646 19.75,6.8138852 L19.75,11.6861148 C19.75,12.5776335 19.6571744,12.9009198 19.4828673,13.2268457 C19.3085602,13.5527716 19.0527716,13.8085602 18.7268457,13.9828673 C18.4009198,14.1571744 18.0776335,14.25 17.1861148,14.25 L14.25,14.25 L14.25,17.1861148 C14.25,18.0776335 14.1571744,18.4009198 13.9828673,18.7268457 C13.8085602,19.0527716 13.5527716,19.3085602 13.2268457,19.4828673 C12.9009198,19.6571744 12.5776335,19.75 11.6861148,19.75 L6.8138852,19.75 C5.92236646,19.75 5.59908022,19.6571744 5.2731543,19.4828673 C4.94722837,19.3085602 4.6914398,19.0527716 4.5171327,18.7268457 C4.34282561,18.4009198 4.25,18.0776335 4.25,17.1861148 L4.25,12.3138852 C4.25,11.4223665 4.34282561,11.0990802 4.5171327,10.7731543 C4.6914398,10.4472284 4.94722837,10.1914398 5.2731543,10.0171327 C5.59908022,9.84282561 5.92236646,9.75 6.8138852,9.75 L9.75,9.75 L9.75,6.8138852 C9.75,5.92236646 9.84282561,5.59908022 10.0171327,5.2731543 C10.1914398,4.94722837 10.4472284,4.6914398 10.7731543,4.5171327 C11.0990802,4.34282561 11.4223665,4.25 12.3138852,4.25 L17.1861148,4.25 Z"/>
    <path stroke="#000" stroke-width="1.5" d="M11.6861148,9.75 C12.5776335,9.75 12.9009198,9.84282561 13.2268457,10.0171327 C13.5527716,10.1914398 13.8085602,10.4472284 13.9828673,10.7731543 C14.1571744,11.0990802 14.25,11.4223665 14.25,12.3138852 L14.25,14.25 L12.3138852,14.25 C11.4223665,14.25 11.0990802,14.1571744 10.7731543,13.9828673 C10.4472284,13.8085602 10.1914398,13.5527716 10.0171327,13.2268457 C9.84282561,12.9009198 9.75,12.5776335 9.75,11.6861148 L9.75,9.75 L11.6861148,9.75 Z"/>
  </g>
</svg>
