<svg xmlns="http://www.w3.org/2000/svg" width="24" height="24" viewBox="0 0 24 24">
  <g fill="none" fill-rule="evenodd">
    <path fill="#000" fill-opacity=".2" stroke="#000" stroke-linejoin="round" stroke-width="1.5" d="M6.8138852,9.25 L12.1861148,9.25 C13.0776335,9.25 13.4009198,9.34282561 13.7268457,9.5171327 C14.0527716,9.6914398 14.3085602,9.94722837 14.4828673,10.2731543 C14.6571744,10.5990802 14.75,10.9223665 14.75,11.8138852 L14.75,17.1861148 C14.75,18.0776335 14.6571744,18.4009198 14.4828673,18.7268457 C14.3085602,19.0527716 14.0527716,19.3085602 13.7268457,19.4828673 C13.4009198,19.6571744 13.0776335,19.75 12.1861148,19.75 L6.8138852,19.75 C5.92236646,19.75 5.59908022,19.6571744 5.2731543,19.4828673 C4.94722837,19.3085602 4.6914398,19.0527716 4.5171327,18.7268457 C4.34282561,18.4009198 4.25,18.0776335 4.25,17.1861148 L4.25,11.8138852 C4.25,10.9223665 4.34282561,10.5990802 4.5171327,10.2731543 C4.6914398,9.94722837 4.94722837,9.6914398 5.2731543,9.5171327 C5.59908022,9.34282561 5.92236646,9.25 6.8138852,9.25 Z"/>
    <rect width="2.5" height="2.5" x="3.75" y="3.75" stroke="#000" stroke-width="1.5" rx="1.25"/>
    <rect width="2.5" height="2.5" x="17.75" y="3.75" stroke="#000" stroke-width="1.5" rx="1.25"/>
    <rect width="2.5" height="2.5" x="17.75" y="17.75" stroke="#000" stroke-width="1.5" rx="1.25"/>
    <line x1="6" x2="17.5" y1="4.75" y2="4.75" stroke="#000" stroke-width="1.5" opacity=".5"/>
    <line x1="19.25" x2="19.25" y1="6.5" y2="17.5" stroke="#000" stroke-width="1.5" opacity=".5"/>
  </g>
</svg>
