<svg xmlns="http://www.w3.org/2000/svg" width="24" height="24" viewBox="0 0 24 24">
  <path fill-rule="evenodd" d="M17,5 L17,17.5 C17,18.3284271 17.6715729,19 18.5,19 L19.25,19 L19.25,19 L19,20 L12,20 L12.25,19 L13,19 C13.8284271,19 14.5,18.3284271 14.5,17.5 L14.5,15 L14.5,15 L9.656,15 L7.73658844,17.8289043 C7.5040237,18.1716674 7.59335709,18.6380627 7.93612016,18.8706274 C8.06037054,18.9549313 8.20706493,19 8.35721587,19 L9.25,19 L9.25,19 L9,20 L4,20 L4.25,19 C5.17891772,19 6.04757831,18.5400845 6.56973041,17.7718102 L15.25,5 L15.25,5 L17,5 Z M14.5,7.862 L10.674,13.5 L14.5,13.5 L14.5,7.862 Z"/>
</svg>
