<svg xmlns="http://www.w3.org/2000/svg" width="24" height="24" viewBox="0 0 24 24">
  <g fill="none" fill-rule="evenodd">
    <path fill="#000" fill-opacity=".2" stroke="#000" stroke-opacity=".2" stroke-width="1.5" d="M17.2951435,6.25 C18.197144,6.25 18.534772,6.31740686 18.867358,6.49527578 C19.1421308,6.64222589 19.3577741,6.8578692 19.5047242,7.13264201 C19.6825931,7.46522797 19.75,7.80285599 19.75,8.7048565 L19.75,8.7048565 L19.75,15.2951435 C19.75,16.197144 19.6825931,16.534772 19.5047242,16.867358 C19.3577741,17.1421308 19.1421308,17.3577741 18.867358,17.5047242 C18.534772,17.6825931 18.197144,17.75 17.2951435,17.75 L17.2951435,17.75 L6.7048565,17.75 C5.80285599,17.75 5.46522797,17.6825931 5.13264201,17.5047242 C4.8578692,17.3577741 4.64222589,17.1421308 4.49527578,16.867358 C4.31740686,16.534772 4.25,16.197144 4.25,15.2951435 L4.25,15.2951435 L4.25,8.7048565 C4.25,7.80285599 4.31740686,7.46522797 4.49527578,7.13264201 C4.64222589,6.8578692 4.8578692,6.64222589 5.13264201,6.49527578 C5.46522797,6.31740686 5.80285599,6.25 6.7048565,6.25 L6.7048565,6.25 Z"/>
    <path stroke="#000" stroke-linecap="round" stroke-linejoin="round" stroke-width="1.5" d="M4.25,11.25 L4.25,8.49339955 C4.25,7.71332065 4.33122241,7.43044519 4.48374112,7.14526001 C4.63625982,6.86007482 4.86007482,6.63625982 5.14526001,6.48374112 C5.43044519,6.33122241 5.71332065,6.25 6.49339955,6.25 L9.25,6.25"/>
    <path stroke="#000" stroke-linecap="round" stroke-linejoin="round" stroke-width="1.5" d="M14.75,17.75 L14.75,14.9933995 C14.75,14.2133207 14.8312224,13.9304452 14.9837411,13.64526 C15.1362598,13.3600748 15.3600748,13.1362598 15.64526,12.9837411 C15.9304452,12.8312224 16.2133207,12.75 16.9933995,12.75 L19.75,12.75" transform="rotate(180 17.25 15.25)"/>
  </g>
</svg>
