<svg xmlns="http://www.w3.org/2000/svg" xmlns:xlink="http://www.w3.org/1999/xlink" width="24" height="24" viewBox="0 0 24 24">
  <defs>
    <path id="img.misc.create.symbol.24-a" d="M11.6019189,6.27379092 L7.47993164,11.6974584 C7.34403977,11.8762635 7.34403977,12.1237365 7.47993164,12.3025416 L11.6019189,17.7262091 C11.769008,17.9460632 12.0826875,17.9888377 12.3025416,17.8217485 C12.3385641,17.7943714 12.370704,17.7622316 12.3980811,17.7262091 L16.5200684,12.3025416 C16.6559602,12.1237365 16.6559602,11.8762635 16.5200684,11.6974584 L12.3980811,6.27379092 C12.230992,6.0539368 11.9173125,6.01116232 11.6974584,6.17825145 C11.6614359,6.20562856 11.629296,6.23776842 11.6019189,6.27379092 Z"/>
  </defs>
  <g fill="none" fill-rule="evenodd">
    <path stroke="#000" stroke-width="1.5" d="M8.909713,3.25 L15.090287,3.25 C17.1066859,3.25 17.8484218,3.43343888 18.5884151,3.82919166 C19.2705953,4.19402563 19.8059744,4.72940466 20.1708083,5.41158489 C20.5665611,6.15157825 20.75,6.89331407 20.75,8.909713 L20.75,8.909713 L20.75,15.090287 C20.75,17.1066859 20.5665611,17.8484218 20.1708083,18.5884151 C19.8059744,19.2705953 19.2705953,19.8059744 18.5884151,20.1708083 C17.8484218,20.5665611 17.1066859,20.75 15.090287,20.75 L15.090287,20.75 L8.909713,20.75 C6.89331407,20.75 6.15157825,20.5665611 5.41158489,20.1708083 C4.72940466,19.8059744 4.19402563,19.2705953 3.82919166,18.5884151 C3.43343888,17.8484218 3.25,17.1066859 3.25,15.090287 L3.25,15.090287 L3.25,8.909713 C3.25,6.89331407 3.43343888,6.15157825 3.82919166,5.41158489 C4.19402563,4.72940466 4.72940466,4.19402563 5.41158489,3.82919166 C6.15157825,3.43343888 6.89331407,3.25 8.909713,3.25 L8.909713,3.25 L8.909713,3.25 Z" opacity=".75"/>
    <mask id="img.misc.create.symbol.24-b" fill="#fff">
      <use xlink:href="#img.misc.create.symbol.24-a"/>
    </mask>
    <use stroke="#000" stroke-linejoin="round" stroke-width="1.5" xlink:href="#img.misc.create.symbol.24-a"/>
    <rect width="7" height="16" x="12" y="4" fill="#000" fill-opacity=".2" mask="url(#img.misc.create.symbol.24-b)"/>
  </g>
</svg>
