<svg xmlns="http://www.w3.org/2000/svg" width="24" height="24" viewBox="0 0 24 24">
  <path fill-opacity=".2" fill-rule="evenodd" stroke="#000" stroke-width="1.5" d="M8.49079617,13.75 C9.11332703,13.75 9.37479525,13.7956729 9.62314656,13.9284926 C9.81643789,14.0318659 9.96813406,14.1835621 10.0715074,14.3768534 C10.2043271,14.6252048 10.25,14.886673 10.25,15.5092038 L10.25,15.5092038 L10.25,16.4907962 C10.25,17.113327 10.2043271,17.3747952 10.0715074,17.6231466 C9.96813406,17.8164379 9.81643789,17.9681341 9.62314656,18.0715074 C9.37479525,18.2043271 9.11332703,18.25 8.49079617,18.25 L8.49079617,18.25 L5.50920383,18.25 C4.88667297,18.25 4.62520475,18.2043271 4.37685344,18.0715074 C4.18356211,17.9681341 4.03186594,17.8164379 3.9284926,17.6231466 C3.79567287,17.3747952 3.75,17.113327 3.75,16.4907962 L3.75,16.4907962 L3.75,15.5092038 C3.75,14.886673 3.79567287,14.6252048 3.9284926,14.3768534 C4.03186594,14.1835621 4.18356211,14.0318659 4.37685344,13.9284926 C4.62520475,13.7956729 4.88667297,13.75 5.50920383,13.75 L5.50920383,13.75 Z M17.9907962,13.75 C18.613327,13.75 18.8747952,13.7956729 19.1231466,13.9284926 C19.3164379,14.0318659 19.4681341,14.1835621 19.5715074,14.3768534 C19.7043271,14.6252048 19.75,14.886673 19.75,15.5092038 L19.75,15.5092038 L19.75,16.4907962 C19.75,17.113327 19.7043271,17.3747952 19.5715074,17.6231466 C19.4681341,17.8164379 19.3164379,17.9681341 19.1231466,18.0715074 C18.8747952,18.2043271 18.613327,18.25 17.9907962,18.25 L17.9907962,18.25 L15.0092038,18.25 C14.386673,18.25 14.1252048,18.2043271 13.8768534,18.0715074 C13.6835621,17.9681341 13.5318659,17.8164379 13.4284926,17.6231466 C13.2956729,17.3747952 13.25,17.113327 13.25,16.4907962 L13.25,16.4907962 L13.25,15.5092038 C13.25,14.886673 13.2956729,14.6252048 13.4284926,14.3768534 C13.5318659,14.1835621 13.6835621,14.0318659 13.8768534,13.9284926 C14.1252048,13.7956729 14.386673,13.75 15.0092038,13.75 L15.0092038,13.75 Z M8.49079617,6.25 C9.11332703,6.25 9.37479525,6.29567287 9.62314656,6.4284926 C9.81643789,6.53186594 9.96813406,6.68356211 10.0715074,6.87685344 C10.2043271,7.12520475 10.25,7.38667297 10.25,8.00920383 L10.25,8.00920383 L10.25,8.99079617 C10.25,9.61332703 10.2043271,9.87479525 10.0715074,10.1231466 C9.96813406,10.3164379 9.81643789,10.4681341 9.62314656,10.5715074 C9.37479525,10.7043271 9.11332703,10.75 8.49079617,10.75 L8.49079617,10.75 L5.50920383,10.75 C4.88667297,10.75 4.62520475,10.7043271 4.37685344,10.5715074 C4.18356211,10.4681341 4.03186594,10.3164379 3.9284926,10.1231466 C3.79567287,9.87479525 3.75,9.61332703 3.75,8.99079617 L3.75,8.99079617 L3.75,8.00920383 C3.75,7.38667297 3.79567287,7.12520475 3.9284926,6.87685344 C4.03186594,6.68356211 4.18356211,6.53186594 4.37685344,6.4284926 C4.62520475,6.29567287 4.88667297,6.25 5.50920383,6.25 L5.50920383,6.25 L8.49079617,6.25 Z M17.9907962,6.25 C18.613327,6.25 18.8747952,6.29567287 19.1231466,6.4284926 C19.3164379,6.53186594 19.4681341,6.68356211 19.5715074,6.87685344 C19.7043271,7.12520475 19.75,7.38667297 19.75,8.00920383 L19.75,8.00920383 L19.75,8.99079617 C19.75,9.61332703 19.7043271,9.87479525 19.5715074,10.1231466 C19.4681341,10.3164379 19.3164379,10.4681341 19.1231466,10.5715074 C18.8747952,10.7043271 18.613327,10.75 17.9907962,10.75 L17.9907962,10.75 L15.0092038,10.75 C14.386673,10.75 14.1252048,10.7043271 13.8768534,10.5715074 C13.6835621,10.4681341 13.5318659,10.3164379 13.4284926,10.1231466 C13.2956729,9.87479525 13.25,9.61332703 13.25,8.99079617 L13.25,8.99079617 L13.25,8.00920383 C13.25,7.38667297 13.2956729,7.12520475 13.4284926,6.87685344 C13.5318659,6.68356211 13.6835621,6.53186594 13.8768534,6.4284926 C14.1252048,6.29567287 14.386673,6.25 15.0092038,6.25 L15.0092038,6.25 L17.9907962,6.25 Z"/>
</svg>
