<svg xmlns="http://www.w3.org/2000/svg" xmlns:xlink="http://www.w3.org/1999/xlink" width="24" height="24" viewBox="0 0 24 24">
  <defs>
    <circle id="img.misc.presence.plus.24-a" cx="12" cy="12" r="8.25"/>
  </defs>
  <g fill="none" fill-rule="evenodd">
    <path fill="#000" fill-rule="nonzero" d="M12,3 C16.5170163,3 20.2568202,6.32764196 20.9016999,10.6652141 C20.4521086,10.5570032 19.9827112,10.5 19.5,10.5 L19.3506658,10.5034179 C18.6570816,7.07835468 15.6296443,4.5 12,4.5 C7.85786438,4.5 4.5,7.85786438 4.5,12 C4.5,16.1421356 7.85786438,19.5 12,19.5 C12.7423577,19.5 13.4595245,19.3921448 14.1366852,19.1912496 C14.3718276,19.6605011 14.667684,20.0948024 15.0133713,20.4838352 C14.0713459,20.8178025 13.0569502,21 12,21 C7.02943725,21 3,16.9705627 3,12 C3,7.02943725 7.02943725,3 12,3 Z"/>
    <mask id="img.misc.presence.plus.24-b" fill="#fff">
      <use xlink:href="#img.misc.presence.plus.24-a"/>
    </mask>
    <path fill="#000" fill-opacity=".2" d="M12,14 C12.6763661,14 13.3303273,14.0775208 13.9490205,14.2221677 C13.6590703,14.9244205 13.5,15.6936338 13.5,16.5 C13.5,18.6251323 14.6048325,20.492217 16.2714413,21.5581981 C12.1994599,22.5310299 5,21.8972461 5,19.6568542 C5,16.5326599 8.13400675,14 12,14 Z M12,7 C13.6568542,7 15,8.34314575 15,10 C15,11.6568542 13.6568542,13 12,13 C10.3431458,13 9,11.6568542 9,10 C9,8.34314575 10.3431458,7 12,7 Z" mask="url(#img.misc.presence.plus.24-b)"/>
    <path fill="#000" fill-rule="nonzero" d="M12,14 C12.6763661,14 13.3303273,14.0775208 13.9490205,14.2221677 C13.7596713,14.6794706 13.6266848,15.165255 13.5567787,15.6711859 C13.1418341,15.576729 12.7039973,15.5196013 12.2497475,15.5042182 L12,15.5 C9.07040822,15.5 6.76531916,17.2329939 6.52136648,19.2949811 L6.505,19.485 C6.69476101,19.6297114 7.00784513,19.7800095 7.4284878,19.9181264 L7.61527905,19.9765053 C8.73789459,20.3105309 10.3298453,20.5 12,20.5 C13.0101464,20.5 13.991685,20.4306904 14.8580781,20.302008 C15.2589759,20.7909458 15.7362421,21.2158788 16.2714413,21.5581981 C12.1994599,22.5310299 5,21.8972461 5,19.6568542 C5,16.6005772 7.99922669,14.1103952 11.7489325,14.0035708 L12,14 Z M12,7 C13.6568542,7 15,8.34314575 15,10 C15,11.5976809 13.75108,12.9036609 12.1762728,12.9949073 L12,13 C10.3431458,13 9,11.6568542 9,10 C9,8.40231912 10.24892,7.09633912 11.8237272,7.00509269 L12,7 Z M12,8.5 C11.1715729,8.5 10.5,9.17157288 10.5,10 C10.5,10.8284271 11.1715729,11.5 12,11.5 C12.8284271,11.5 13.5,10.8284271 13.5,10 C13.5,9.17157288 12.8284271,8.5 12,8.5 Z" mask="url(#img.misc.presence.plus.24-b)"/>
    <path fill="#000" d="M19.5,12 C21.9852814,12 24,14.0147186 24,16.5 C24,18.9852814 21.9852814,21 19.5,21 C17.0147186,21 15,18.9852814 15,16.5 C15,14.0147186 17.0147186,12 19.5,12 Z M19.5,14 C19.2238576,14 19,14.2238576 19,14.5 L19,14.5 L19,16 L17.5,16 C17.2238576,16 17,16.2238576 17,16.5 C17,16.7761424 17.2238576,17 17.5,17 L17.5,17 L19,17 L19,18.5 C19,18.7761424 19.2238576,19 19.5,19 C19.7761424,19 20,18.7761424 20,18.5 L20,18.5 L20,17 L21.5,17 C21.7761424,17 22,16.7761424 22,16.5 C22,16.2238576 21.7761424,16 21.5,16 L21.5,16 L20,16 L20,14.5 C20,14.2238576 19.7761424,14 19.5,14 Z"/>
  </g>
</svg>
