<svg xmlns="http://www.w3.org/2000/svg" width="24" height="24" viewBox="0 0 24 24">
  <g fill="none" fill-rule="evenodd">
    <path fill="#000" d="M14 19C14 20.1045695 13.1045695 21 12 21 10.8954305 21 10 20.1045695 10 19L10 19zM12 3C13.1045695 3 14 3.8954305 14 5L14 6 14 6 10 6 10 5C10 3.8954305 10.8954305 3 12 3z"/>
    <path fill="#000" fill-opacity=".2" stroke="#000" stroke-width="1.5" d="M12,5.75 C13.4497475,5.75 14.7622475,6.33762627 15.7123106,7.2876894 C16.6623737,8.23775253 17.25,9.55025253 17.25,11 L17.25,11 L17.25,14.013932 C17.25,15.1291826 17.8381795,16.1550277 18.785505,16.7213127 L18.785505,16.7213127 L4.75,17.25 C5.54057914,16.5682359 5.97652149,16.1615763 6.27887671,15.6723553 C6.58123192,15.1831343 6.75,14.6113519 6.75,14.013932 L6.75,14.013932 L6.75,11 C6.75,9.55025253 7.33762627,8.23775253 8.2876894,7.2876894 C9.23775253,6.33762627 10.5502525,5.75 12,5.75 L12,5.75 Z"/>
  </g>
</svg>
