<svg xmlns="http://www.w3.org/2000/svg" width="24" height="24" viewBox="0 0 24 24">
  <g fill="none" fill-rule="evenodd">
    <path stroke="#000" stroke-linejoin="round" stroke-width="1.5" d="M15.25,10.75 C15.8022847,10.75 16.25,11.1977153 16.25,11.75 L16.25,15.25 C16.25,15.8022847 15.8022847,16.25 15.25,16.25 L11.75,16.25 C11.1977153,16.25 10.75,15.8022847 10.75,15.25 L10.75,13.25 L12.25,13.25 C12.7628358,13.25 13.1855072,12.8639598 13.2432723,12.3666211 L13.25,12.25 L13.25,10.75 L15.25,10.75 Z"/>
    <path fill="#000" fill-opacity=".2" stroke="#000" stroke-linejoin="round" stroke-width="1.5" d="M8.75,7.75 L12.25,7.75 C12.8022847,7.75 13.25,8.19771525 13.25,8.75 L13.25,12.25 C13.25,12.8022847 12.8022847,13.25 12.25,13.25 L8.75,13.25 C8.19771525,13.25 7.75,12.8022847 7.75,12.25 L7.75,8.75 C7.75,8.19771525 8.19771525,7.75 8.75,7.75 Z"/>
    <rect width="2.5" height="2.5" x="3.75" y="3.75" stroke="#000" stroke-width="1.5" rx="1.25"/>
    <rect width="2.5" height="2.5" x="17.75" y="3.75" stroke="#000" stroke-width="1.5" rx="1.25"/>
    <rect width="2.5" height="2.5" x="17.75" y="17.75" stroke="#000" stroke-width="1.5" rx="1.25"/>
    <rect width="2.5" height="2.5" x="3.75" y="17.75" stroke="#000" stroke-width="1.5" rx="1.25"/>
    <line x1="6.25" x2="17.5" y1="4.75" y2="4.75" stroke="#000" stroke-width="1.5" opacity=".5"/>
    <line x1="19.25" x2="19.25" y1="6.5" y2="17.5" stroke="#000" stroke-width="1.5" opacity=".5"/>
    <line x1="4.75" x2="4.75" y1="6.5" y2="17.5" stroke="#000" stroke-width="1.5" opacity=".5"/>
    <line x1="6.25" x2="17.5" y1="19.25" y2="19.25" stroke="#000" stroke-width="1.5" opacity=".5"/>
  </g>
</svg>
