<svg xmlns="http://www.w3.org/2000/svg" width="24" height="24" viewBox="0 0 24 24">
  <g fill="none" fill-rule="evenodd">
    <path fill="#000" fill-rule="nonzero" d="M12.25,4 C12.6449387,4 13.0204324,4.08325348 13.3598888,4.2331679 C13.1395835,4.41585144 13,4.69162498 13,5 C13,5.55228475 13.4477153,6 14,6 C14.308375,6 14.5841486,5.86041647 14.7675859,5.64098417 C14.9167465,5.97956756 15,6.35506133 15,6.75 L15,6.75 L15,12.25 C15,12.6449387 14.9167465,13.0204324 14.7668321,13.3598888 C14.5841486,13.1395835 14.308375,13 14,13 C13.4477153,13 13,13.4477153 13,14 C13,14.308375 13.1395835,14.5841486 13.3590158,14.7675859 C13.0204324,14.9167465 12.6449387,15 12.25,15 L12.25,15 L6.75,15 C6.35506133,15 5.97956756,14.9167465 5.64011122,14.7668321 C5.86041647,14.5841486 6,14.308375 6,14 C6,13.4477153 5.55228475,13 5,13 C4.69162498,13 4.41585144,13.1395835 4.23241412,13.3590158 C4.08325348,13.0204324 4,12.6449387 4,12.25 L4,12.25 L4,6.75 C4,6.35506133 4.08325348,5.97956756 4.2331679,5.64011122 C4.41585144,5.86041647 4.69162498,6 5,6 C5.55228475,6 6,5.55228475 6,5 C6,4.69162498 5.86041647,4.41585144 5.64098417,4.23241412 C5.97956756,4.08325348 6.35506133,4 6.75,4 L6.75,4 Z M12.25,5.5 L6.75,5.5 C6.05964406,5.5 5.5,6.05964406 5.5,6.75 L5.5,6.75 L5.5,12.25 C5.5,12.9403559 6.05964406,13.5 6.75,13.5 L6.75,13.5 L12.25,13.5 C12.9403559,13.5 13.5,12.9403559 13.5,12.25 L13.5,12.25 L13.5,6.75 C13.5,6.05964406 12.9403559,5.5 12.25,5.5 L12.25,5.5 Z"/>
    <rect width="2.5" height="2.5" x="3.75" y="3.75" stroke="#000" stroke-width="1.5" rx="1.25"/>
    <rect width="2.5" height="2.5" x="3.75" y="12.75" stroke="#000" stroke-width="1.5" rx="1.25"/>
    <rect width="2.5" height="2.5" x="12.75" y="3.75" stroke="#000" stroke-width="1.5" rx="1.25"/>
    <rect width="2.5" height="2.5" x="12.75" y="12.75" stroke="#000" stroke-width="1.5" rx="1.25"/>
    <path fill="#000" fill-rule="nonzero" d="M17.25,9 C17.6444987,9 18.0195958,9.0830681 18.3587542,9.23266715 C18.1391483,9.41671196 18,9.69210606 18,10 C18,10.5522847 18.4477153,11 19,11 C19.3078939,11 19.583288,10.8608517 19.7667267,10.6420106 C19.8955729,10.9319328 19.9749546,11.2492041 19.9949812,11.5824777 L20,11.75 L20,17.25 C20,17.6444987 19.9169319,18.0195958 19.7673329,18.3587542 C19.583288,18.1391483 19.3078939,18 19,18 C18.4477153,18 18,18.4477153 18,19 C18,19.3078939 18.1391483,19.583288 18.3579894,19.7667267 C18.0680672,19.8955729 17.7507959,19.9749546 17.4175223,19.9949812 L17.25,20 L11.75,20 C11.3555013,20 10.9804042,19.9169319 10.6412458,19.7673329 C10.8608517,19.583288 11,19.3078939 11,19 C11,18.4477153 10.5522847,18 10,18 C9.69210606,18 9.41671196,18.1391483 9.23327332,18.3579894 C9.10442708,18.0680672 9.0250454,17.7507959 9.00501879,17.4175223 L9,17.25 L9,14.25 L10.5,14.25 L10.5,17.25 C10.5,17.8972087 10.9918747,18.4295339 11.6221948,18.4935464 L11.75,18.5 L17.25,18.5 C17.8972087,18.5 18.4295339,18.0081253 18.4935464,17.3778052 L18.5,17.25 L18.5,11.75 C18.5,11.1027913 18.0081253,10.5704661 17.3778052,10.5064536 L17.25,10.5 L14.25,10.5 L14.25,9 L17.25,9 Z"/>
    <rect width="2.5" height="2.5" x="8.75" y="17.75" stroke="#000" stroke-width="1.5" rx="1.25"/>
    <rect width="2.5" height="2.5" x="17.75" y="8.75" stroke="#000" stroke-width="1.5" rx="1.25"/>
    <rect width="2.5" height="2.5" x="17.75" y="17.75" stroke="#000" stroke-width="1.5" rx="1.25"/>
    <rect width="9" height="9" x="5" y="5" fill="#000" opacity=".2" rx="1.5"/>
  </g>
</svg>
