<svg xmlns="http://www.w3.org/2000/svg" width="24" height="24" viewBox="0 0 24 24">
  <path fill-opacity=".2" fill-rule="evenodd" stroke="#000" stroke-linejoin="round" stroke-width="1.5" d="M8.9680574,13.75 C9.41381677,13.75 9.57545989,13.7964128 9.73842285,13.8835664 C9.90138581,13.9707199 10.0292801,14.0986142 10.1164336,14.2615771 C10.2035872,14.4245401 10.25,14.5861832 10.25,15.0319426 L10.25,17.9680574 C10.25,18.4138168 10.2035872,18.5754599 10.1164336,18.7384229 C10.0292801,18.9013858 9.90138581,19.0292801 9.73842285,19.1164336 C9.57545989,19.2035872 9.41381677,19.25 8.9680574,19.25 L6.0319426,19.25 C5.58618323,19.25 5.42454011,19.2035872 5.26157715,19.1164336 C5.09861419,19.0292801 4.9707199,18.9013858 4.88356635,18.7384229 C4.79641281,18.5754599 4.75,18.4138168 4.75,17.9680574 L4.75,15.0319426 C4.75,14.5861832 4.79641281,14.4245401 4.88356635,14.2615771 C4.9707199,14.0986142 5.09861419,13.9707199 5.26157715,13.8835664 C5.42454011,13.7964128 5.58618323,13.75 6.0319426,13.75 L8.9680574,13.75 Z M17.9680574,13.75 C18.4138168,13.75 18.5754599,13.7964128 18.7384229,13.8835664 C18.9013858,13.9707199 19.0292801,14.0986142 19.1164336,14.2615771 C19.2035872,14.4245401 19.25,14.5861832 19.25,15.0319426 L19.25,17.9680574 C19.25,18.4138168 19.2035872,18.5754599 19.1164336,18.7384229 C19.0292801,18.9013858 18.9013858,19.0292801 18.7384229,19.1164336 C18.5754599,19.2035872 18.4138168,19.25 17.9680574,19.25 L15.0319426,19.25 C14.5861832,19.25 14.4245401,19.2035872 14.2615771,19.1164336 C14.0986142,19.0292801 13.9707199,18.9013858 13.8835664,18.7384229 C13.7964128,18.5754599 13.75,18.4138168 13.75,17.9680574 L13.75,15.0319426 C13.75,14.5861832 13.7964128,14.4245401 13.8835664,14.2615771 C13.9707199,14.0986142 14.0986142,13.9707199 14.2615771,13.8835664 C14.4245401,13.7964128 14.5861832,13.75 15.0319426,13.75 L17.9680574,13.75 Z M8.9680574,4.75 C9.41381677,4.75 9.57545989,4.79641281 9.73842285,4.88356635 C9.90138581,4.9707199 10.0292801,5.09861419 10.1164336,5.26157715 C10.2035872,5.42454011 10.25,5.58618323 10.25,6.0319426 L10.25,8.9680574 C10.25,9.41381677 10.2035872,9.57545989 10.1164336,9.73842285 C10.0292801,9.90138581 9.90138581,10.0292801 9.73842285,10.1164336 C9.57545989,10.2035872 9.41381677,10.25 8.9680574,10.25 L6.0319426,10.25 C5.58618323,10.25 5.42454011,10.2035872 5.26157715,10.1164336 C5.09861419,10.0292801 4.9707199,9.90138581 4.88356635,9.73842285 C4.79641281,9.57545989 4.75,9.41381677 4.75,8.9680574 L4.75,6.0319426 C4.75,5.58618323 4.79641281,5.42454011 4.88356635,5.26157715 C4.9707199,5.09861419 5.09861419,4.9707199 5.26157715,4.88356635 C5.42454011,4.79641281 5.58618323,4.75 6.0319426,4.75 L8.9680574,4.75 Z M17.9680574,4.75 C18.4138168,4.75 18.5754599,4.79641281 18.7384229,4.88356635 C18.9013858,4.9707199 19.0292801,5.09861419 19.1164336,5.26157715 C19.2035872,5.42454011 19.25,5.58618323 19.25,6.0319426 L19.25,8.9680574 C19.25,9.41381677 19.2035872,9.57545989 19.1164336,9.73842285 C19.0292801,9.90138581 18.9013858,10.0292801 18.7384229,10.1164336 C18.5754599,10.2035872 18.4138168,10.25 17.9680574,10.25 L15.0319426,10.25 C14.5861832,10.25 14.4245401,10.2035872 14.2615771,10.1164336 C14.0986142,10.0292801 13.9707199,9.90138581 13.8835664,9.73842285 C13.7964128,9.57545989 13.75,9.41381677 13.75,8.9680574 L13.75,6.0319426 C13.75,5.58618323 13.7964128,5.42454011 13.8835664,5.26157715 C13.9707199,5.09861419 14.0986142,4.9707199 14.2615771,4.88356635 C14.4245401,4.79641281 14.5861832,4.75 15.0319426,4.75 L17.9680574,4.75 Z"/>
</svg>
