<svg xmlns="http://www.w3.org/2000/svg" width="24" height="24" viewBox="0 0 24 24">
  <g fill="none" fill-rule="evenodd">
    <path fill="#000" fill-opacity=".2" stroke="#000" stroke-linejoin="round" stroke-width="1.5" d="M5.25,16.75 L18.75,16.75 C19.5784271,16.75 20.25,17.4215729 20.25,18.25 L20.25,18.75 C20.25,19.5784271 19.5784271,20.25 18.75,20.25 L5.25,20.25 C4.42157288,20.25 3.75,19.5784271 3.75,18.75 L3.75,18.25 C3.75,17.4215729 4.42157288,16.75 5.25,16.75 Z"/>
    <path stroke="#000" stroke-linejoin="round" stroke-width="1.5" d="M5.25,10.75 L18.75,10.75 C19.5784271,10.75 20.25,11.4215729 20.25,12.25 L20.25,12.75 C20.25,13.5784271 19.5784271,14.25 18.75,14.25 L5.25,14.25 C4.42157288,14.25 3.75,13.5784271 3.75,12.75 L3.75,12.25 C3.75,11.4215729 4.42157288,10.75 5.25,10.75 Z" opacity=".5"/>
    <line x1="12" x2="12" y1="4" y2="16.5" stroke="#000" stroke-width="1.5"/>
    <polygon fill="#000" stroke="#000" stroke-linecap="round" stroke-linejoin="round" stroke-width="1.5" points="9.75 6.25 12 3.75 14.25 6.25"/>
  </g>
</svg>
