<svg xmlns="http://www.w3.org/2000/svg" width="24" height="24" viewBox="0 0 24 24">
  <path fill-opacity=".2" fill-rule="evenodd" stroke="#000" stroke-linejoin="round" stroke-width="1.5" d="M6.0319426,4.75 L17.9680574,4.75 C18.4138168,4.75 18.5754599,4.79641281 18.7384229,4.88356635 C18.9013858,4.9707199 19.0292801,5.09861419 19.1164336,5.26157715 C19.2035872,5.42454011 19.25,5.58618323 19.25,6.0319426 L19.25,17.9680574 C19.25,18.4138168 19.2035872,18.5754599 19.1164336,18.7384229 C19.0292801,18.9013858 18.9013858,19.0292801 18.7384229,19.1164336 C18.5754599,19.2035872 18.4138168,19.25 17.9680574,19.25 L6.0319426,19.25 C5.58618323,19.25 5.42454011,19.2035872 5.26157715,19.1164336 C5.09861419,19.0292801 4.9707199,18.9013858 4.88356635,18.7384229 C4.79641281,18.5754599 4.75,18.4138168 4.75,17.9680574 L4.75,6.0319426 C4.75,5.58618323 4.79641281,5.42454011 4.88356635,5.26157715 C4.9707199,5.09861419 5.09861419,4.9707199 5.26157715,4.88356635 C5.42454011,4.79641281 5.58618323,4.75 6.0319426,4.75 Z"/>
</svg>
