<svg xmlns="http://www.w3.org/2000/svg" width="24" height="24" viewBox="0 0 24 24">
  <path fill-opacity=".2" fill-rule="evenodd" stroke="#000" stroke-linejoin="round" stroke-width="1.5" d="M11.7739984,16.9959833 L7.33151217,19.2470837 C7.08518868,19.371901 6.78431965,19.2734007 6.6595024,19.0270772 C6.61047763,18.9303282 6.5942418,18.8202613 6.61324373,18.7134777 L7.45256054,13.9968357 C7.48215618,13.8305194 7.42577064,13.6605045 7.30265434,13.5448353 L3.76079943,10.2172195 C3.55954546,10.028139 3.54967696,9.71171031 3.73875751,9.51045635 C3.8168132,9.42737526 3.92091534,9.37346112 4.0338098,9.35764978 L8.96155772,8.66749796 C9.12284721,8.64490869 9.26302793,8.5451803 9.33725629,8.40021573 L11.5549512,4.06915982 C11.6808086,3.82336615 11.9820913,3.72613858 12.227885,3.85199596 C12.3212624,3.89980941 12.3972354,3.97578235 12.4450488,4.06915982 L14.6627437,8.40021573 C14.7369721,8.5451803 14.8771528,8.64490869 15.0384423,8.66749796 L19.9661902,9.35764978 C20.2396635,9.39595086 20.4303082,9.64869392 20.3920071,9.92216721 C20.3761958,10.0350617 20.3222817,10.1391638 20.2392006,10.2172195 L16.6973457,13.5448353 C16.5742294,13.6605045 16.5178438,13.8305194 16.5474395,13.9968357 L17.3867563,18.7134777 C17.4351352,18.9853492 17.2539588,19.2449634 16.9820873,19.2933424 C16.8753037,19.3123443 16.7652369,19.2961085 16.6684878,19.2470837 L12.2260016,16.9959833 C12.083933,16.9239941 11.916067,16.9239941 11.7739984,16.9959833 Z"/>
</svg>
