<svg xmlns="http://www.w3.org/2000/svg" width="24" height="24" viewBox="0 0 24 24">
  <path fill-opacity=".2" fill-rule="evenodd" stroke="#000" stroke-linejoin="round" stroke-width="1.5" d="M8.5958278,4.75 L15.4041722,4.75 C16.7414503,4.75 17.2263797,4.88923842 17.7152686,5.15069906 C18.2041574,5.41215969 18.5878403,5.79584256 18.8493009,6.28473144 C19.1107616,6.77362033 19.25,7.25854969 19.25,8.5958278 L19.25,15.4041722 C19.25,16.7414503 19.1107616,17.2263797 18.8493009,17.7152686 C18.5878403,18.2041574 18.2041574,18.5878403 17.7152686,18.8493009 C17.2263797,19.1107616 16.7414503,19.25 15.4041722,19.25 L8.5958278,19.25 C7.25854969,19.25 6.77362033,19.1107616 6.28473144,18.8493009 C5.79584256,18.5878403 5.41215969,18.2041574 5.15069906,17.7152686 C4.88923842,17.2263797 4.75,16.7414503 4.75,15.4041722 L4.75,8.5958278 C4.75,7.25854969 4.88923842,6.77362033 5.15069906,6.28473144 C5.41215969,5.79584256 5.79584256,5.41215969 6.28473144,5.15069906 C6.77362033,4.88923842 7.25854969,4.75 8.5958278,4.75 Z"/>
</svg>
