<svg xmlns="http://www.w3.org/2000/svg" width="24" height="24" viewBox="0 0 24 24">
  <g fill="none" fill-rule="evenodd">
    <path fill="#000" fill-rule="nonzero" d="M21.8259962,8.27347504 C22.5254545,8.65505892 23,9.39711144 23,10.25 L23,10.25 L23,13.75 C23,14.9926407 21.9926407,16 20.75,16 L20.75,16 L13.6369526,16.0010904 C13.7956384,15.5485757 13.9256401,15.0488046 14.0246065,14.5010092 L20.75,14.5 C21.1642136,14.5 21.5,14.1642136 21.5,13.75 L21.5,13.75 L21.5,10.25 C21.5,9.83578644 21.1642136,9.5 20.75,9.5 L20.75,9.5 L20.046,9.49908375 L21.4874144,8.57892147 L21.6213069,8.47120922 C21.664579,8.43416757 21.7064707,8.39599355 21.7469159,8.35670271 Z M10.3673369,7.99770672 C10.2079515,8.45099129 10.0772406,8.95087773 9.97762874,9.49803061 L3.25,9.5 C2.83578644,9.5 2.5,9.83578644 2.5,10.25 L2.5,10.25 L2.5,13.75 C2.5,14.1642136 2.83578644,14.5 3.25,14.5 L3.15142107,14.4937762 C2.80745355,14.8766618 2.5282053,15.3188646 2.3308931,15.8031679 C1.54646695,15.4528472 1,14.6652407 1,13.75 L1,13.75 L1,10.25 C1,9.00735931 2.00735931,8 3.25,8 L3.25,8 Z"/>
    <path fill="#000" d="M21,9 C21.5522847,9 22,9.44771525 22,10 L22,14 C22,14.5522847 21.5522847,15 21,15 L13.92286,15.0002796 C14.1363727,14.0642173 14.250888,12.9720364 14.252521,11.7192023 L14.252521,11.7192023 L14.2603128,11.4308616 C14.267176,11.2428594 14.2774553,11.0633058 14.2916222,10.8921919 L14.2916222,10.8921919 L14.299,10.81 L14.3649234,10.8730363 L14.5073437,10.9918605 C14.947373,11.333267 15.4999109,11.5366577 16.1,11.5366577 C16.5948377,11.5366577 17.0793997,11.3954461 17.4967673,11.1296103 L17.4967673,11.1296103 L20.829,8.99987858 L21,9 Z M10.0800022,8.99911848 C9.86472631,9.93718866 9.74907647,11.0297749 9.74747852,12.280831 L9.74747852,12.280831 L9.73930019,12.5761042 C9.71746064,13.1534067 9.66207521,13.6513149 9.56147188,14.0710616 L9.56147188,14.0710616 L9.533,14.176 L9.3575737,14.0236558 C9.2964303,13.9733499 9.23393195,13.9246285 9.17014042,13.8775548 C8.42313291,13.3263153 7.49972584,13 6.5,13 C5.25735931,13 4.13235931,13.5036797 3.31801948,14.3180195 C3.11743473,14.5186042 2.93569818,14.7380372 2.77569439,14.9734338 C2.33185101,14.8734552 2,14.4754816 2,14 L2,10 C2,9.44771525 2.44771525,9 3,9 Z" opacity=".2"/>
    <circle cx="6.5" cy="17.5" r="2.25" fill="#000" fill-opacity=".2" fill-rule="nonzero" stroke="#000" stroke-width="1.5"/>
    <path fill="#000" fill-opacity=".2" fill-rule="nonzero" stroke="#000" stroke-width="1.5" d="M20.1136053,6.20480777 L16.2880254,3.76818158 C16.1249877,3.66433803 15.9086378,3.71232433 15.8047942,3.87536198 C15.769009,3.93154586 15.75,3.99677499 15.75,4.06338736 L15.75,8.93665766 C15.75,9.12995732 15.9067003,9.28665766 16.1,9.28665766 C16.1666128,9.28665766 16.2318423,9.26764841 16.2880264,9.23186282 L20.1136063,6.79521871 C20.2766436,6.69137461 20.3246292,6.47502449 20.2207851,6.31198718 C20.1933163,6.26886066 20.156732,6.23227639 20.1136053,6.20480777 Z"/>
    <path stroke="#000" stroke-width="1.5" d="M15.5,6.5 C13.1666667,6.5 12,8.33333333 12,12 C12,15.6666667 10.8333333,17.5 8.5,17.5"/>
  </g>
</svg>
