<svg xmlns="http://www.w3.org/2000/svg" width="24" height="24" viewBox="0 0 24 24">
  <g fill="none" fill-rule="evenodd">
    <path stroke="#000" stroke-linejoin="round" stroke-width="1.5" d="M5.8138852,5.25 L18.1861148,5.25 C19.0776335,5.25 19.4009198,5.34282561 19.7268457,5.5171327 C20.0527716,5.6914398 20.3085602,5.94722837 20.4828673,6.2731543 C20.6571744,6.59908022 20.75,6.92236646 20.75,7.8138852 L20.75,16.1861148 C20.75,17.0776335 20.6571744,17.4009198 20.4828673,17.7268457 C20.3085602,18.0527716 20.0527716,18.3085602 19.7268457,18.4828673 C19.4009198,18.6571744 19.0776335,18.75 18.1861148,18.75 L5.8138852,18.75 C4.92236646,18.75 4.59908022,18.6571744 4.2731543,18.4828673 C3.94722837,18.3085602 3.6914398,18.0527716 3.5171327,17.7268457 C3.34282561,17.4009198 3.25,17.0776335 3.25,16.1861148 L3.25,7.8138852 C3.25,6.92236646 3.34282561,6.59908022 3.5171327,6.2731543 C3.6914398,5.94722837 3.94722837,5.6914398 4.2731543,5.5171327 C4.59908022,5.34282561 4.92236646,5.25 5.8138852,5.25 Z"/>
    <path fill="#000" d="M8.5,5 L8.5,9 L11.25,9 L11.25,5 L12.75,5 L12.75,9 L15.5,9 L15.5,5 L17,5 L17,9 L21,9 L21,10.5 L17,10.5 L17,13.5 L21,13.5 L21,15 L17,15 L17,19 L15.5,19 L15.5,15 L12.75,15 L12.75,19 L11.25,19 L11.25,15 L8.5,15 L8.5,19 L7,19 L7,15 L3,15 L3,13.5 L7,13.5 L7,10.5 L3,10.5 L3,9 L7,9 L7,5 L8.5,5 Z M11.25,10.5 L8.5,10.5 L8.5,13.5 L11.25,13.5 L11.25,10.5 Z M15.5,10.5 L12.75,10.5 L12.75,13.5 L15.5,13.5 L15.5,10.5 Z" opacity=".2"/>
    <g fill="#000" opacity=".5" transform="translate(7 5)">
      <path d="M4.25,4 L14,4 L14,12 C14,13.1045695 13.1045695,14 12,14 L4.25,14 L4.25,14 L4.25,4 Z"/>
      <rect width="6" height="6" y="4" opacity=".4"/>
      <rect width="6" height="5.5" y="8.5" opacity=".8"/>
      <rect width="5.75" height="6" x="4.25" opacity=".4"/>
      <path d="M8.5,0 L13,0 C13.5522847,-1.01453063e-16 14,0.44771525 14,1 L14,6 L14,6 L8.5,6 L8.5,0 Z" opacity=".6"/>
    </g>
  </g>
</svg>
