<svg height="512" width="512" xmlns="http://www.w3.org/2000/svg"><g fill="none" fill-rule="evenodd"><path d="m415 41v4h-4v-4zm-4-4v4h-4v-4zm8 0v4h-4v-4zm-4-4v4h-4v-4zm-240 76v4h-4v-4zm-4-4v4h-4v-4zm8 0v4h-4v-4zm-4-4v4h-4v-4zm290 306v4h-4v-4zm-4-4v4h-4v-4zm8 0v4h-4v-4zm-4-4v4h-4v-4zm-168-69v4h-4v-4zm-4-4v4h-4v-4zm8 0v4h-4v-4zm-4-4v4h-4v-4zm-241-44v4h-4v-4zm-4-4v4h-4v-4zm8 0v4h-4v-4zm-4-4v4h-4v-4z" fill="#191919"/><path d="m334 151h4v4h-4zm-129 104h4v4h-4zm60 220h4v4h-4zm-167-40h4v4h-4zm-54-304h4v4h-4zm409 116h4v4h-4z" fill="#000"/></g></svg>