<svg xmlns="http://www.w3.org/2000/svg" width="64" height="64" viewBox="0 0 64 64" fill="#000">
  <g fill-rule="evenodd">
    <rect width="2" height="2" x="17" y="9" />
    <rect width="2" height="2" x="45" y="9" />
    <rect width="2" height="2" x="41" y="9" />
    <rect width="2" height="2" x="37" y="9" />
    <rect width="2" height="2" x="43" y="9" />
    <rect width="2" height="2" x="39" y="9" />
    <rect width="2" height="2" x="47" y="11" />
    <rect width="2" height="2" x="43" y="11" />
    <rect width="2" height="2" x="39" y="11" />
    <rect width="2" height="2" x="45" y="11" />
    <rect width="2" height="2" x="41" y="11" />
    <rect width="2" height="2" x="47" y="13" />
    <rect width="2" height="2" x="43" y="13" />
    <rect width="2" height="2" x="45" y="13" />
    <rect width="2" height="2" x="47" y="15" />
    <rect width="2" height="2" x="43" y="15" />
    <rect width="2" height="2" x="45" y="15" />
    <rect width="2" height="2" x="47" y="17" />
    <rect width="2" height="2" x="47" y="19" />
    <rect width="2" height="2" x="45" y="17" />
    <rect width="2" height="2" x="41" y="13" />
    <rect width="2" height="2" x="35" y="9" />
    <rect width="2" height="2" x="21" y="9" />
    <rect width="2" height="2" x="25" y="9" />
    <rect width="2" height="2" x="19" y="9" />
    <rect width="2" height="2" x="23" y="9" />
    <rect width="2" height="2" x="15" y="11" />
    <rect width="2" height="2" x="19" y="11" />
    <rect width="2" height="2" x="23" y="11" />
    <rect width="2" height="2" x="17" y="11" />
    <rect width="2" height="2" x="21" y="11" />
    <rect width="2" height="2" x="15" y="13" />
    <rect width="2" height="2" x="19" y="13" />
    <rect width="2" height="2" x="17" y="13" />
    <rect width="2" height="2" x="15" y="15" />
    <rect width="2" height="2" x="19" y="15" />
    <rect width="2" height="2" x="17" y="15" />
    <rect width="2" height="2" x="15" y="17" />
    <rect width="2" height="2" x="15" y="19" />
    <rect width="2" height="2" x="11" y="13" />
    <rect width="2" height="2" x="11" y="15" />
    <rect width="2" height="2" x="9" y="15" />
    <rect width="2" height="2" x="9" y="17" />
    <rect width="2" height="2" x="9" y="19" />
    <rect width="2" height="2" x="7" y="19" />
    <rect width="2" height="2" x="7" y="21" />
    <rect width="2" height="2" x="5" y="21" />
    <rect width="2" height="2" x="5" y="23" />
    <rect width="2" height="2" x="3" y="23" />
    <rect width="2" height="2" x="3" y="27" />
    <rect width="2" height="2" x="5" y="27" />
    <rect width="2" height="2" x="5" y="29" />
    <rect width="2" height="2" x="7" y="31" />
    <rect width="2" height="2" x="9" y="33" />
    <rect width="2" height="2" x="7" y="29" />
    <rect width="2" height="2" x="9" y="31" />
    <rect width="2" height="2" x="11" y="33" />
    <rect width="2" height="2" x="11" y="35" />
    <rect width="2" height="2" x="13" y="37" />
    <rect width="2" height="2" x="15" y="39" />
    <rect width="2" height="2" x="17" y="41" />
    <rect width="2" height="2" x="19" y="43" />
    <rect width="2" height="2" x="9" y="29" />
    <rect width="2" height="2" x="11" y="31" />
    <rect width="2" height="2" x="13" y="33" />
    <rect width="2" height="2" x="13" y="35" />
    <rect width="2" height="2" x="15" y="37" />
    <rect width="2" height="2" x="17" y="39" />
    <rect width="2" height="2" x="19" y="41" />
    <rect width="2" height="2" x="21" y="43" />
    <rect width="2" height="2" x="21" y="45" />
    <rect width="2" height="2" x="23" y="47" />
    <rect width="2" height="2" x="11" y="29" />
    <rect width="2" height="2" x="13" y="31" />
    <rect width="2" height="2" x="15" y="33" />
    <rect width="2" height="2" x="15" y="35" />
    <rect width="2" height="2" x="17" y="37" />
    <rect width="2" height="2" x="19" y="39" />
    <rect width="2" height="2" x="21" y="41" />
    <rect width="2" height="2" x="23" y="43" />
    <rect width="2" height="2" x="23" y="45" />
    <rect width="2" height="2" x="25" y="47" />
    <rect width="2" height="2" x="25" y="49" />
    <rect width="2" height="2" x="27" y="51" />
    <rect width="2" height="2" x="7" y="27" />
    <rect width="2" height="2" x="9" y="27" />
    <rect width="2" height="2" x="11" y="27" />
    <rect width="2" height="2" x="7" y="23" />
    <rect width="2" height="2" x="9" y="21" />
    <rect width="2" height="2" x="9" y="23" />
    <rect width="2" height="2" x="11" y="17" />
    <rect width="2" height="2" x="11" y="19" />
    <rect width="2" height="2" x="11" y="21" />
    <rect width="2" height="2" x="11" y="23" />
    <rect width="2" height="2" x="17" y="17" />
    <rect width="2" height="2" x="21" y="13" />
    <rect width="2" height="2" x="27" y="9" />
    <rect width="2" height="2" x="31" y="11" />
    <rect width="2" height="2" x="27" y="13" />
    <rect width="2" height="2" x="24" y="15" />
    <rect width="2" height="2" x="26" y="15" />
    <rect width="2" height="2" x="28" y="15" />
    <rect width="2" height="2" x="30" y="15" />
    <rect width="2" height="2" x="32" y="15" />
    <rect width="2" height="2" x="34" y="15" />
    <rect width="2" height="2" x="36" y="15" />
    <rect width="2" height="2" x="38" y="15" />
    <rect width="2" height="2" x="22" y="17" />
    <rect width="2" height="2" x="24" y="17" />
    <rect width="2" height="2" x="26" y="17" />
    <rect width="2" height="2" x="28" y="17" />
    <rect width="2" height="2" x="30" y="17" />
    <rect width="2" height="2" x="32" y="17" />
    <rect width="2" height="2" x="34" y="17" />
    <rect width="2" height="2" x="36" y="17" />
    <rect width="2" height="2" x="38" y="17" />
    <rect width="2" height="2" x="40" y="17" />
    <rect width="2" height="2" x="20" y="19" />
    <rect width="2" height="2" x="22" y="19" />
    <rect width="2" height="2" x="24" y="19" />
    <rect width="2" height="2" x="26" y="19" />
    <rect width="2" height="2" x="28" y="19" />
    <rect width="2" height="2" x="30" y="19" />
    <rect width="2" height="2" x="32" y="19" />
    <rect width="2" height="2" x="34" y="19" />
    <rect width="2" height="2" x="36" y="19" />
    <rect width="2" height="2" x="38" y="19" />
    <rect width="2" height="2" x="40" y="19" />
    <rect width="2" height="2" x="42" y="19" />
    <rect width="2" height="2" x="18" y="21" />
    <rect width="2" height="2" x="15" y="23" />
    <rect width="2" height="2" x="15" y="27" />
    <rect width="2" height="2" x="17" y="27" />
    <rect width="2" height="2" x="17" y="29" />
    <rect width="2" height="2" x="19" y="29" />
    <rect width="2" height="2" x="21" y="29" />
    <rect width="2" height="2" x="23" y="29" />
    <rect width="2" height="2" x="25" y="29" />
    <rect width="2" height="2" x="27" y="29" />
    <rect width="2" height="2" x="29" y="29" />
    <rect width="2" height="2" x="31" y="29" />
    <rect width="2" height="2" x="33" y="29" />
    <rect width="2" height="2" x="35" y="29" />
    <rect width="2" height="2" x="37" y="29" />
    <rect width="2" height="2" x="39" y="29" />
    <rect width="2" height="2" x="41" y="29" />
    <rect width="2" height="2" x="43" y="29" />
    <rect width="2" height="2" x="45" y="29" />
    <rect width="2" height="2" x="19" y="31" />
    <rect width="2" height="2" x="21" y="31" />
    <rect width="2" height="2" x="19" y="33" />
    <rect width="2" height="2" x="21" y="35" />
    <rect width="2" height="2" x="23" y="37" />
    <rect width="2" height="2" x="25" y="37" />
    <rect width="2" height="2" x="27" y="37" />
    <rect width="2" height="2" x="29" y="37" />
    <rect width="2" height="2" x="31" y="37" />
    <rect width="2" height="2" x="33" y="37" />
    <rect width="2" height="2" x="35" y="37" />
    <rect width="2" height="2" x="37" y="37" />
    <rect width="2" height="2" x="39" y="37" />
    <rect width="2" height="2" x="25" y="39" />
    <rect width="2" height="2" x="27" y="39" />
    <rect width="2" height="2" x="29" y="39" />
    <rect width="2" height="2" x="31" y="39" />
    <rect width="2" height="2" x="33" y="39" />
    <rect width="2" height="2" x="35" y="39" />
    <rect width="2" height="2" x="37" y="39" />
    <rect width="2" height="2" x="27" y="41" />
    <rect width="2" height="2" x="29" y="41" />
    <rect width="2" height="2" x="33" y="41" />
    <rect width="2" height="2" x="35" y="41" />
    <rect width="2" height="2" x="31" y="45" />
    <rect width="2" height="2" x="33" y="45" />
    <rect width="2" height="2" x="31" y="41" />
    <rect width="2" height="2" x="27" y="43" />
    <rect width="2" height="2" x="29" y="43" />
    <rect width="2" height="2" x="33" y="43" />
    <rect width="2" height="2" x="35" y="43" />
    <rect width="2" height="2" x="31" y="47" />
    <rect width="2" height="2" x="33" y="47" />
    <rect width="2" height="2" x="31" y="43" />
    <rect width="2" height="2" x="29" y="45" />
    <rect width="2" height="2" x="29" y="47" />
    <rect width="2" height="2" x="31" y="49" />
    <rect width="2" height="2" x="31" y="51" />
    <rect width="2" height="2" x="31" y="53" />
    <rect width="2" height="2" x="23" y="35" />
    <rect width="2" height="2" x="25" y="35" />
    <rect width="2" height="2" x="27" y="35" />
    <rect width="2" height="2" x="29" y="35" />
    <rect width="2" height="2" x="31" y="35" />
    <rect width="2" height="2" x="33" y="35" />
    <rect width="2" height="2" x="35" y="35" />
    <rect width="2" height="2" x="37" y="35" />
    <rect width="2" height="2" x="39" y="35" />
    <rect width="2" height="2" x="41" y="35" />
    <rect width="2" height="2" x="21" y="33" />
    <rect width="2" height="2" x="23" y="31" />
    <rect width="2" height="2" x="23" y="33" />
    <rect width="2" height="2" x="25" y="31" />
    <rect width="2" height="2" x="25" y="33" />
    <rect width="2" height="2" x="27" y="31" />
    <rect width="2" height="2" x="27" y="33" />
    <rect width="2" height="2" x="29" y="31" />
    <rect width="2" height="2" x="29" y="33" />
    <rect width="2" height="2" x="31" y="31" />
    <rect width="2" height="2" x="31" y="33" />
    <rect width="2" height="2" x="33" y="31" />
    <rect width="2" height="2" x="33" y="33" />
    <rect width="2" height="2" x="35" y="31" />
    <rect width="2" height="2" x="35" y="33" />
    <rect width="2" height="2" x="37" y="31" />
    <rect width="2" height="2" x="37" y="33" />
    <rect width="2" height="2" x="39" y="31" />
    <rect width="2" height="2" x="39" y="33" />
    <rect width="2" height="2" x="41" y="31" />
    <rect width="2" height="2" x="41" y="33" />
    <rect width="2" height="2" x="43" y="31" />
    <rect width="2" height="2" x="43" y="33" />
    <rect width="2" height="2" x="19" y="27" />
    <rect width="2" height="2" x="21" y="27" />
    <rect width="2" height="2" x="23" y="27" />
    <rect width="2" height="2" x="25" y="27" />
    <rect width="2" height="2" x="27" y="27" />
    <rect width="2" height="2" x="29" y="27" />
    <rect width="2" height="2" x="31" y="27" />
    <rect width="2" height="2" x="33" y="27" />
    <rect width="2" height="2" x="35" y="27" />
    <rect width="2" height="2" x="37" y="27" />
    <rect width="2" height="2" x="39" y="27" />
    <rect width="2" height="2" x="41" y="27" />
    <rect width="2" height="2" x="43" y="27" />
    <rect width="2" height="2" x="45" y="27" />
    <rect width="2" height="2" x="47" y="27" />
    <rect width="2" height="2" x="17" y="23" />
    <rect width="2" height="2" x="19" y="23" />
    <rect width="2" height="2" x="21" y="23" />
    <rect width="2" height="2" x="23" y="23" />
    <rect width="2" height="2" x="25" y="23" />
    <rect width="2" height="2" x="27" y="23" />
    <rect width="2" height="2" x="29" y="23" />
    <rect width="2" height="2" x="31" y="23" />
    <rect width="2" height="2" x="33" y="23" />
    <rect width="2" height="2" x="35" y="23" />
    <rect width="2" height="2" x="37" y="23" />
    <rect width="2" height="2" x="39" y="23" />
    <rect width="2" height="2" x="41" y="23" />
    <rect width="2" height="2" x="43" y="23" />
    <rect width="2" height="2" x="45" y="23" />
    <rect width="2" height="2" x="47" y="23" />
    <rect width="2" height="2" x="20" y="21" />
    <rect width="2" height="2" x="22" y="21" />
    <rect width="2" height="2" x="24" y="21" />
    <rect width="2" height="2" x="26" y="21" />
    <rect width="2" height="2" x="28" y="21" />
    <rect width="2" height="2" x="30" y="21" />
    <rect width="2" height="2" x="32" y="21" />
    <rect width="2" height="2" x="34" y="21" />
    <rect width="2" height="2" x="36" y="21" />
    <rect width="2" height="2" x="38" y="21" />
    <rect width="2" height="2" x="40" y="21" />
    <rect width="2" height="2" x="42" y="21" />
    <rect width="2" height="2" x="44" y="21" />
    <rect width="2" height="2" x="29" y="13" />
    <rect width="2" height="2" x="31" y="13" />
    <rect width="2" height="2" x="33" y="13" />
    <rect width="2" height="2" x="35" y="13" />
    <rect width="2" height="2" x="53" y="15" />
    <rect width="2" height="2" x="53" y="17" />
    <rect width="2" height="2" x="53" y="19" />
    <rect width="2" height="2" x="55" y="19" />
    <rect width="2" height="2" x="55" y="21" />
    <rect width="2" height="2" x="57" y="21" />
    <rect width="2" height="2" x="57" y="23" />
    <rect width="2" height="2" x="59" y="23" />
    <rect width="2" height="2" x="55" y="23" />
    <rect width="2" height="2" x="53" y="21" />
    <rect width="2" height="2" x="53" y="23" />
    <rect width="2" height="2" x="51" y="13" />
    <rect width="2" height="2" x="51" y="15" />
    <rect width="2" height="2" x="51" y="17" />
    <rect width="2" height="2" x="51" y="19" />
    <rect width="2" height="2" x="51" y="21" />
    <rect width="2" height="2" x="51" y="23" />
    <rect width="2" height="2" x="59" y="27" />
    <rect width="2" height="2" x="57" y="27" />
    <rect width="2" height="2" x="57" y="29" />
    <rect width="2" height="2" x="55" y="31" />
    <rect width="2" height="2" x="53" y="33" />
    <rect width="2" height="2" x="55" y="29" />
    <rect width="2" height="2" x="53" y="31" />
    <rect width="2" height="2" x="51" y="33" />
    <rect width="2" height="2" x="51" y="35" />
    <rect width="2" height="2" x="49" y="37" />
    <rect width="2" height="2" x="47" y="39" />
    <rect width="2" height="2" x="53" y="29" />
    <rect width="2" height="2" x="51" y="31" />
    <rect width="2" height="2" x="49" y="33" />
    <rect width="2" height="2" x="49" y="35" />
    <rect width="2" height="2" x="47" y="37" />
    <rect width="2" height="2" x="51" y="29" />
    <rect width="2" height="2" x="49" y="31" />
    <rect width="2" height="2" x="47" y="33" />
    <rect width="2" height="2" x="47" y="35" />
    <rect width="2" height="2" x="55" y="27" />
    <rect width="2" height="2" x="53" y="27" />
    <rect width="2" height="2" x="51" y="27" />
    <rect width="2" height="2" x="45" y="41" />
    <rect width="2" height="2" x="43" y="43" />
    <rect width="2" height="2" x="45" y="39" />
    <rect width="2" height="2" x="43" y="41" />
    <rect width="2" height="2" x="41" y="43" />
    <rect width="2" height="2" x="41" y="45" />
    <rect width="2" height="2" x="39" y="47" />
    <rect width="2" height="2" x="45" y="37" />
    <rect width="2" height="2" x="43" y="39" />
    <rect width="2" height="2" x="41" y="41" />
    <rect width="2" height="2" x="39" y="43" />
    <rect width="2" height="2" x="39" y="45" />
    <rect width="2" height="2" x="37" y="47" />
    <rect width="2" height="2" x="37" y="49" />
    <rect width="2" height="2" x="35" y="51" />
  </g>
</svg>
