<svg xmlns="http://www.w3.org/2000/svg" width="11" height="11" viewBox="0 0 11 11">
  <g fill="none" fill-rule="evenodd">
    <path fill="#000" d="M8.03553391,1.84314575 L10.1568542,3.96446609 C10.5473785,4.35499039 10.5473785,4.98815536 10.1568542,5.37867966 L6.99979991,8.53525253 L6.99979991,1.60555083 C7.35049444,1.48384166 7.75542812,1.56303997 8.03553391,1.84314575 Z" opacity=".5"/>
    <path fill="#000" d="M5,1 C5.55228475,1 6,1.44771525 6,2 L6,7.5 C6,8.88071187 4.88071187,10 3.5,10 C2.11928813,10 1,8.88071187 1,7.5 L1,2 C1,1.44771525 1.44771525,1 2,1 L5,1 Z M3.5,6.5 C2.94771525,6.5 2.5,6.94771525 2.5,7.5 C2.5,8.05228475 2.94771525,8.5 3.5,8.5 C4.05228475,8.5 4.5,8.05228475 4.5,7.5 C4.5,6.94771525 4.05228475,6.5 3.5,6.5 Z"/>
  </g>
</svg>
