<svg xmlns="http://www.w3.org/2000/svg" width="11" height="11" viewBox="0 0 11 11">
  <path fill-rule="evenodd" d="M1.5,1 C1.77614237,1 2,1.22385763 2,1.5 L2,10.5 C2,10.7761424 1.77614237,11 1.5,11 C1.22385763,11 1,10.7761424 1,10.5 L1,1.5 C1,1.22385763 1.22385763,1 1.5,1 Z M10.4952291,1 C10.6333003,1 10.7452291,1.11192881 10.7452291,1.25 C10.7452291,1.30474068 10.7272622,1.35796833 10.694087,1.4015108 L8.94515932,3.69697839 C8.80878047,3.87597564 8.80878047,4.12402436 8.94515932,4.30302161 L10.694087,6.5984892 C10.7777641,6.7083154 10.7565661,6.86518082 10.6467399,6.94885793 C10.6031974,6.98203315 10.5499698,7 10.4952291,7 L3.5,7 C3.22385763,7 3,6.77614237 3,6.5 L3,1.5 C3,1.22385763 3.22385763,1 3.5,1 L10.4952291,1 Z"/>
</svg>
