<svg xmlns="http://www.w3.org/2000/svg" width="24" height="24" viewBox="0 0 24 24">
  <g fill="none" fill-rule="evenodd">
    <rect width="24" height="24"/>
    <path fill="#FFF" d="M7 4L10 4C10.5522847 4 11 4.44771525 11 5L11 19C11 19.5522847 10.5522847 20 10 20L7 20C6.44771525 20 6 19.5522847 6 19L6 5C6 4.44771525 6.44771525 4 7 4zM14 4L17 4C17.5522847 4 18 4.44771525 18 5L18 19C18 19.5522847 17.5522847 20 17 20L14 20C13.4477153 20 13 19.5522847 13 19L13 5C13 4.44771525 13.4477153 4 14 4z"/>
  </g>
</svg>
