<svg xmlns="http://www.w3.org/2000/svg" width="24" height="24" viewBox="0 0 24 24">
  <g fill="none" fill-rule="evenodd">
    <rect width="24" height="24"/>
    <path fill="#FA6400" d="M12,15.1261117 L12,19.0568107 C12,19.6090954 11.5522847,20.0568107 11,20.0568107 C10.791577,20.0568107 10.5883626,19.9916875 10.4187618,19.8705441 L8.8,18.7141117 L12,15.1261117 Z M23,12 C23,15.2351164 21.2781686,18.171644 18.5365138,19.7745829 C18.1789317,19.9836473 17.719574,19.8632498 17.5105096,19.5056677 C17.3014453,19.1480856 17.4218427,18.6887279 17.7794248,18.4796635 C20.0655589,17.1430498 21.5,14.6966572 21.5,12 C21.5,10.0228215 20.7288797,8.18017182 19.416308,6.81083409 L20.4176616,5.68892015 C22.0421348,7.34021054 23,9.58705705 23,12 Z M11.8137335,4.36195113 C11.9348769,4.53155188 12,4.73476635 12,4.94318932 L12,12.8721117 L7.572,17.8371117 L5,16 L2.5,16 C1.67157288,16 1,15.3284271 1,14.5 L1,9.5 C1,8.67157288 1.67157288,8 2.5,8 L5,8 L10.4187618,4.12945585 C10.8681744,3.80844686 11.4927245,3.91253854 11.8137335,4.36195113 Z M19,12 C19,13.7972445 18.0431826,15.4289251 16.5202045,16.3191975 C16.1626067,16.528235 15.703258,16.4078031 15.4942205,16.0502052 C15.2851831,15.6926074 15.405615,15.2332587 15.7632128,15.0242212 C16.8306156,14.40026 17.5,13.2587449 17.5,12 C17.5,11.1872705 17.2209435,10.4234124 16.7358738,9.81618047 L17.7441523,8.68541655 C18.5376422,9.58131834 19,10.7506569 19,12 Z M16.5202045,7.68080246 L16.592,7.72411165 L15.5953777,8.84240775 C15.3731891,8.60650062 15.3223767,8.24376595 15.4942205,7.94979476 C15.703258,7.59219694 16.1626067,7.47176498 16.5202045,7.68080246 Z M18.5375984,4.22605132 C18.7942178,4.37613479 19.0418997,4.53790255 19.2800682,4.71050565 L18.2762716,5.83741455 C18.1158345,5.72598908 17.9504401,5.62035446 17.7803285,5.52086492 C17.4227756,5.31175061 17.3024424,4.85237607 17.5115567,4.49482316 C17.720671,4.13727026 18.1800455,4.016937 18.5375984,4.22605132 Z"/>
    <path stroke="#FA6400" stroke-linecap="round" stroke-width="1.5" d="M20.25,2.75 L3.75,21.25"/>
  </g>
</svg>
