<svg xmlns="http://www.w3.org/2000/svg" width="24" height="24" viewBox="0 0 24 24">
  <g fill="none" fill-rule="evenodd">
    <rect width="24" height="24"/>
    <path fill="#FA6400" d="M2.5,16 C1.67157288,16 1,15.3284271 1,14.5 L1,9.5 C1,8.67157288 1.67157288,8 2.5,8 L5,8 L10.4187618,4.12945585 C10.8681744,3.80844686 11.4927245,3.91253854 11.8137335,4.36195113 C11.9348769,4.53155188 12,4.73476635 12,4.94318932 L12,19.0568107 C12,19.6090954 11.5522847,20.0568107 11,20.0568107 C10.791577,20.0568107 10.5883626,19.9916875 10.4187618,19.8705441 L5,16 L2.5,16 Z"/>
    <path stroke="#FA6400" stroke-linecap="round" stroke-width="1.5" d="M16.1417087,8.32829061 C17.4028166,9.06548419 18.25,10.433807 18.25,12 C18.25,13.566193 17.4028166,14.9345158 16.1417087,15.6717094"/>
    <path stroke="#FA6400" stroke-linecap="round" stroke-width="1.5" d="M18.1589635,4.87345812 C20.6061522,6.30469302 22.25,8.9603759 22.25,12 C22.25,15.0400357 20.605707,17.6960262 18.1579693,19.1271232"/>
  </g>
</svg>
