<?xml version="1.0" encoding="UTF-8"?>
<svg width="17px" height="17px" viewBox="0 0 17 17" version="1.1" xmlns="http://www.w3.org/2000/svg" xmlns:xlink="http://www.w3.org/1999/xlink">
    <title>Mac/Monochrome/17x17/img.arrows.up.down.square.17</title>
    <g id="Mac/Monochrome/17x17/img.arrows.up.down.square.17" stroke="none" stroke-width="1" fill="none" fill-rule="evenodd">
        <g id="Icon" transform="translate(8.500000, 8.500000) rotate(-270.000000) translate(-8.500000, -8.500000) translate(1.000000, 1.000000)">
            <path d="M3.8458278,0.5 L11.1541722,0.5 C12.3498517,0.5 12.7904612,0.606821649 13.2294691,0.841605655 C13.629935,1.05577712 13.9442229,1.37006505 14.1583943,1.77053087 C14.3931784,2.2095388 14.5,2.6501483 14.5,3.8458278 L14.5,3.8458278 L14.5,11.1541722 C14.5,12.3498517 14.3931784,12.7904612 14.1583943,13.2294691 C13.9442229,13.629935 13.629935,13.9442229 13.2294691,14.1583943 C12.7904612,14.3931784 12.3498517,14.5 11.1541722,14.5 L11.1541722,14.5 L3.8458278,14.5 C2.6501483,14.5 2.2095388,14.3931784 1.77053087,14.1583943 C1.37006505,13.9442229 1.05577712,13.629935 0.841605655,13.2294691 C0.606821649,12.7904612 0.5,12.3498517 0.5,11.1541722 L0.5,11.1541722 L0.5,3.8458278 C0.5,2.6501483 0.606821649,2.2095388 0.841605655,1.77053087 C1.05577712,1.37006505 1.37006505,1.05577712 1.77053087,0.841605655 C2.2095388,0.606821649 2.6501483,0.5 3.8458278,0.5 L3.8458278,0.5 Z" id="Rectangle" stroke="#000000"></path>
            <path d="M5,5.5 C5.27614237,5.5 5.5,5.72385763 5.5,6 L5.5,9 C5.5,9.27614237 5.27614237,9.5 5,9.5 C4.72385763,9.5 4.5,9.27614237 4.5,9 L4.5,6 C4.5,5.72385763 4.72385763,5.5 5,5.5 Z" id="Rectangle-2-Copy" fill="#000000" transform="translate(5.000000, 7.500000) rotate(-270.000000) translate(-5.000000, -7.500000) "></path>
            <path d="M10,5.5 C10.2761424,5.5 10.5,5.72385763 10.5,6 L10.5,9 C10.5,9.27614237 10.2761424,9.5 10,9.5 C9.72385763,9.5 9.5,9.27614237 9.5,9 L9.5,6 C9.5,5.72385763 9.72385763,5.5 10,5.5 Z" id="Rectangle-2-Copy-2" fill="#000000" transform="translate(10.000000, 7.500000) rotate(-270.000000) translate(-10.000000, -7.500000) "></path>
            <path d="M12.8535534,5.35355339 C13.0488155,5.15829124 13.0488155,4.84170876 12.8535534,4.64644661 C12.6582912,4.45118446 12.3417088,4.45118446 12.1464466,4.64644661 L9.64644661,7.14644661 C9.45118446,7.34170876 9.45118446,7.65829124 9.64644661,7.85355339 L12.1464466,10.3535534 C12.3417088,10.5488155 12.6582912,10.5488155 12.8535534,10.3535534 C13.0488155,10.1582912 13.0488155,9.84170876 12.8535534,9.64644661 L10.7071068,7.5 L12.8535534,5.35355339 Z" id="Path-5" fill="#000000" fill-rule="nonzero" transform="translate(11.250000, 7.500000) scale(-1, 1) translate(-11.250000, -7.500000) "></path>
            <path d="M3.20710678,7.5 L5.35355339,5.35355339 C5.54881554,5.15829124 5.54881554,4.84170876 5.35355339,4.64644661 C5.15829124,4.45118446 4.84170876,4.45118446 4.64644661,4.64644661 L2.14644661,7.14644661 C1.95118446,7.34170876 1.95118446,7.65829124 2.14644661,7.85355339 L4.64644661,10.3535534 C4.84170876,10.5488155 5.15829124,10.5488155 5.35355339,10.3535534 C5.54881554,10.1582912 5.54881554,9.84170876 5.35355339,9.64644661 L3.20710678,7.5 Z" id="Path-5-Copy" fill="#000000" fill-rule="nonzero" transform="translate(3.750000, 7.500000) scale(-1, 1) rotate(-180.000000) translate(-3.750000, -7.500000) "></path>
        </g>
    </g>
</svg>