<?xml version="1.0" encoding="UTF-8"?>
<svg width="17px" height="17px" viewBox="0 0 17 17" version="1.1" xmlns="http://www.w3.org/2000/svg" xmlns:xlink="http://www.w3.org/1999/xlink">
    <title>Mac/Monochrome/17x17/img.arrows.up.down.from.line.17</title>
    <g id="Mac/Monochrome/17x17/img.arrows.up.down.from.line.17" stroke="none" stroke-width="1" fill="none" fill-rule="evenodd">
        <g id="Icon" transform="translate(8.500000, 8.500000) rotate(-270.000000) translate(-8.500000, -8.500000) translate(2.000000, 2.000000)">
            <path d="M3,4.5 C3.27614237,4.5 3.5,4.72385763 3.5,5 L3.5,8 C3.5,8.27614237 3.27614237,8.5 3,8.5 C2.72385763,8.5 2.5,8.27614237 2.5,8 L2.5,5 C2.5,4.72385763 2.72385763,4.5 3,4.5 Z" id="Rectangle-2-Copy" fill="#000000" transform="translate(3.000000, 6.500000) rotate(-270.000000) translate(-3.000000, -6.500000) "></path>
            <path d="M10,4.5 C10.2761424,4.5 10.5,4.72385763 10.5,5 L10.5,8 C10.5,8.27614237 10.2761424,8.5 10,8.5 C9.72385763,8.5 9.5,8.27614237 9.5,8 L9.5,5 C9.5,4.72385763 9.72385763,4.5 10,4.5 Z" id="Rectangle-2-Copy-2" fill="#000000" transform="translate(10.000000, 6.500000) rotate(-270.000000) translate(-10.000000, -6.500000) "></path>
            <polyline id="Path-5" stroke="#000000" stroke-linecap="round" stroke-linejoin="round" transform="translate(11.250000, 6.500000) scale(-1, 1) translate(-11.250000, -6.500000) " points="12.5 4 10 6.5 12.5 9"></polyline>
            <polyline id="Path-5" stroke="#000000" stroke-linecap="round" stroke-linejoin="round" points="3 4 0.5 6.5 3 9"></polyline>
            <rect id="Combined-Shape" fill="#000000" transform="translate(6.500000, 6.500000) rotate(-180.000000) translate(-6.500000, -6.500000) " x="6" y="0" width="1" height="13" rx="0.5"></rect>
        </g>
    </g>
</svg>