<?xml version="1.0" encoding="UTF-8"?>
<svg width="17px" height="17px" viewBox="0 0 17 17" version="1.1" xmlns="http://www.w3.org/2000/svg" xmlns:xlink="http://www.w3.org/1999/xlink">
    <title>Mac/Monochrome/17x17/img.arrow.down.from.line.to.dotted.line.17</title>
    <g id="Mac/Monochrome/17x17/img.arrow.down.from.line.to.dotted.line.17" stroke="none" stroke-width="1" fill="none" fill-rule="evenodd">
        <g id="Icon" transform="translate(8.500000, 8.500000) rotate(-270.000000) translate(-8.500000, -8.500000) translate(2.000000, 2.000000)">
            <path d="M-5.5,6 L6.5,6 C6.77614237,6 7,6.22385763 7,6.5 C7,6.77614237 6.77614237,7 6.5,7 L-5.5,7 C-5.77614237,7 -6,6.77614237 -6,6.5 C-6,6.22385763 -5.77614237,6 -5.5,6 Z" id="Rectangle" fill="#000000" transform="translate(0.500000, 6.500000) rotate(-270.000000) translate(-0.500000, -6.500000) "></path>
            <path d="M5.5,3 C5.77614237,3 6,3.22385763 6,3.5 L6,9.5 C6,9.77614237 5.77614237,10 5.5,10 C5.22385763,10 5,9.77614237 5,9.5 L5,3.5 C5,3.22385763 5.22385763,3 5.5,3 Z" id="Rectangle-2-Copy" fill="#000000" transform="translate(5.500000, 6.500000) rotate(-270.000000) translate(-5.500000, -6.500000) "></path>
            <polyline id="Path-5" stroke="#000000" stroke-linecap="round" stroke-linejoin="round" transform="translate(8.250000, 6.500000) scale(-1, 1) translate(-8.250000, -6.500000) " points="9.5 4 7 6.5 9.5 9"></polyline>
            <path d="M12.5,12 C12.7761424,12 13,12.2238576 13,12.5 C13,12.7761424 12.7761424,13 12.5,13 C12.2238576,13 12,12.7761424 12,12.5 C12,12.2238576 12.2238576,12 12.5,12 Z M12.5,10 C12.7761424,10 13,10.2238576 13,10.5 C13,10.7761424 12.7761424,11 12.5,11 C12.2238576,11 12,10.7761424 12,10.5 C12,10.2238576 12.2238576,10 12.5,10 Z M12.5,8 C12.7761424,8 13,8.22385763 13,8.5 C13,8.77614237 12.7761424,9 12.5,9 C12.2238576,9 12,8.77614237 12,8.5 C12,8.22385763 12.2238576,8 12.5,8 Z M12.5,6 C12.7761424,6 13,6.22385763 13,6.5 C13,6.77614237 12.7761424,7 12.5,7 C12.2238576,7 12,6.77614237 12,6.5 C12,6.22385763 12.2238576,6 12.5,6 Z M12.5,4 C12.7761424,4 13,4.22385763 13,4.5 C13,4.77614237 12.7761424,5 12.5,5 C12.2238576,5 12,4.77614237 12,4.5 C12,4.22385763 12.2238576,4 12.5,4 Z M12.5,2 C12.7761424,2 13,2.22385763 13,2.5 C13,2.77614237 12.7761424,3 12.5,3 C12.2238576,3 12,2.77614237 12,2.5 C12,2.22385763 12.2238576,2 12.5,2 Z M12.5,0 C12.7761424,-5.07265313e-17 13,0.223857625 13,0.5 C13,0.776142375 12.7761424,1 12.5,1 C12.2238576,1 12,0.776142375 12,0.5 C12,0.223857625 12.2238576,5.07265313e-17 12.5,0 Z" id="Combined-Shape" fill="#000000" transform="translate(12.500000, 6.500000) rotate(-180.000000) translate(-12.500000, -6.500000) "></path>
        </g>
    </g>
</svg>