<?xml version="1.0" encoding="UTF-8"?>
<svg width="17px" height="17px" viewBox="0 0 17 17" version="1.1" xmlns="http://www.w3.org/2000/svg" xmlns:xlink="http://www.w3.org/1999/xlink">
    <title>Mac/Monochrome/17x17/img.arrow.triangle.up.right.17</title>
    <g id="Mac/Monochrome/17x17/img.arrow.triangle.up.right.17" stroke="none" stroke-width="1" fill="none" fill-rule="evenodd">
        <line x1="2.5" y1="14.5" x2="10.104248" y2="6.89575195" id="Path-4" stroke="#000000" stroke-linecap="round" fill-rule="nonzero"></line>
        <path d="M13.8689832,2.67717685 L13.9563394,2.69283737 C14.0895455,2.7291663 14.1954158,2.81604841 14.2589023,2.92714981 C14.3223888,3.03825121 14.3434916,3.1735719 14.3071626,3.30677798 L14.3071626,3.30677798 L12.9710167,8.20597989 C12.9481219,8.28992733 12.903716,8.36644676 12.8421881,8.42797457 C12.7445571,8.52560565 12.6165959,8.57442118 12.4886347,8.57442118 C12.3606736,8.57442118 12.2327124,8.52560565 12.1350814,8.42797457 L12.1350814,8.42797457 L8.57202543,4.86491865 C8.51049761,4.80339083 8.46609166,4.7268714 8.44319691,4.64292396 C8.40686797,4.50971787 8.42797073,4.37439718 8.49145725,4.26329579 L8.49145725,4.26329579 L13.693222,2.69283737 C13.7793549,2.66934658 13.8702065,2.66934658 13.9563394,2.69283737 Z" id="Path-2" stroke="#000000" fill-opacity="0.2" fill="#000000"></path>
    </g>
</svg>