<?xml version="1.0" encoding="UTF-8"?>
<svg width="17px" height="17px" viewBox="0 0 17 17" version="1.1" xmlns="http://www.w3.org/2000/svg" xmlns:xlink="http://www.w3.org/1999/xlink">
    <title>Mac/Monochrome/17x17/img.artboard.17</title>
    <g id="Mac/Monochrome/17x17/img.artboard.17" stroke="none" stroke-width="1" fill="none" fill-rule="evenodd">
        <g id="Icon" transform="translate(0.000000, 1.000000)" fill="#000000">
            <path d="M4.0638852,1.5 L12.9361148,1.5 C13.8276335,1.5 14.1509198,1.59282561 14.4768457,1.7671327 C14.8027716,1.9414398 15.0585602,2.19722837 15.2328673,2.5231543 C15.4071744,2.84908022 15.5,3.17236646 15.5,4.0638852 L15.5,11.5 L15.5,11.5 L1.5,11.5 L1.5,4.0638852 C1.5,3.17236646 1.59282561,2.84908022 1.7671327,2.5231543 C1.9414398,2.19722837 2.19722837,1.9414398 2.5231543,1.7671327 C2.84908022,1.59282561 3.17236646,1.5 4.0638852,1.5 Z" id="Rectangle" stroke="#000000" fill-opacity="0.2"></path>
            <path d="M12.4,11 L13.4760143,14.3469954 C13.5605164,14.6098908 13.4159,14.8915122 13.1530046,14.9760143 C12.8901092,15.0605164 12.6084878,14.9159 12.5239857,14.6530046 L12.5239857,14.6530046 L12.313,14 L4.686,14 L4.47601428,14.6530046 C4.4009013,14.8866894 4.17003979,15.0269192 3.93502469,14.9958478 L3.84699541,14.9760143 C3.58409998,14.8915122 3.43948362,14.6098908 3.52398572,14.3469954 L3.52398572,14.3469954 L4.599,11 L5.65,11 L5.007,13 L11.992,13 L11.349,11 L12.4,11 Z M8.02398572,0.34699541 C8.17269804,-0.115665137 8.82730196,-0.115665137 8.97601428,0.34699541 L8.97601428,0.34699541 L9.508,2 L7.491,2 Z M0.5,12 L16.5,12 C16.7761424,12 17,11.7761424 17,11.5 C17,11.2238576 16.7761424,11 16.5,11 L0.5,11 C0.223857625,11 0,11.2238576 0,11.5 C0,11.7761424 0.223857625,12 0.5,12 Z" id="Combined-Shape"></path>
        </g>
    </g>
</svg>