<?xml version="1.0" encoding="UTF-8"?>
<svg width="17px" height="17px" viewBox="0 0 17 17" version="1.1" xmlns="http://www.w3.org/2000/svg" xmlns:xlink="http://www.w3.org/1999/xlink">
    <title>Mac/Monochrome/17x17/img.boolean.union.17</title>
    <g id="Mac/Monochrome/17x17/img.boolean.union.17" stroke="none" stroke-width="1" fill="none" fill-rule="evenodd" fill-opacity="0.2">
        <path d="M11.7951435,2.5 C12.7679433,2.5 13.1277313,2.58361525 13.4852577,2.77482248 C13.804242,2.94541717 14.0545828,3.19575795 14.2251775,3.5147423 C14.4163848,3.87226874 14.5,4.23205669 14.5,5.2048565 L14.5,5.2048565 L14.5,7.7951435 C14.5,8.76794331 14.4163848,9.12773126 14.2251775,9.4852577 C14.0545828,9.80424205 13.804242,10.0545828 13.4852577,10.2251775 C13.1277313,10.4163848 12.7679433,10.5 11.7951435,10.5 L11.7951435,10.5 L10.5,10.5 L10.5,11.7951435 C10.5,12.7679433 10.4163848,13.1277313 10.2251775,13.4852577 C10.0545828,13.804242 9.80424205,14.0545828 9.4852577,14.2251775 C9.12773126,14.4163848 8.76794331,14.5 7.7951435,14.5 L7.7951435,14.5 L5.2048565,14.5 C4.23205669,14.5 3.87226874,14.4163848 3.5147423,14.2251775 C3.19575795,14.0545828 2.94541717,13.804242 2.77482248,13.4852577 C2.58361525,13.1277313 2.5,12.7679433 2.5,11.7951435 L2.5,11.7951435 L2.5,9.2048565 C2.5,8.23205669 2.58361525,7.87226874 2.77482248,7.5147423 C2.94541717,7.19575795 3.19575795,6.94541717 3.5147423,6.77482248 C3.87226874,6.58361525 4.23205669,6.5 5.2048565,6.5 L5.2048565,6.5 L6.5,6.5 L6.5,5.2048565 C6.5,4.23205669 6.58361525,3.87226874 6.77482248,3.5147423 C6.94541717,3.19575795 7.19575795,2.94541717 7.5147423,2.77482248 C7.87226874,2.58361525 8.23205669,2.5 9.2048565,2.5 L9.2048565,2.5 Z" id="Combined-Shape" stroke="#000000" fill="#000000"></path>
    </g>
</svg>