<?xml version="1.0" encoding="UTF-8"?>
<svg width="17px" height="17px" viewBox="0 0 17 17" version="1.1" xmlns="http://www.w3.org/2000/svg" xmlns:xlink="http://www.w3.org/1999/xlink">
    <title>Mac/Monochrome/17x17/img.border.cap.projecting.17</title>
    <g id="Mac/Monochrome/17x17/img.border.cap.projecting.17" stroke="none" stroke-width="1" fill="none" fill-rule="evenodd">
        <g id="Group-8" transform="translate(3.000000, 3.000000)">
            <path d="M11,0.5 L11,10.5 L1,10.5 L1,0.5 L11,0.5 Z M6.5,4 L4.5,4 C4.22385763,4 4,4.22385763 4,4.5 L4,4.5 L4,6.5 C4,6.77614237 4.22385763,7 4.5,7 L4.5,7 L6.5,7 C6.77614237,7 7,6.77614237 7,6.5 L7,6.5 L7,4.5 C7,4.22385763 6.77614237,4 6.5,4 L6.5,4 Z" id="Combined-Shape" fill="#000000" opacity="0.2"></path>
            <polyline id="Path-22" stroke="#000000" stroke-linejoin="round" points="11 0.5 0.5 0.5 0.5 10.5 11 10.5"></polyline>
            <line x1="6.5" y1="5.5" x2="11" y2="5.5" id="Path-21" stroke="#000000"></line>
            <rect id="Rectangle-29" stroke="#000000" x="4.5" y="4.5" width="2" height="2" rx="0.5"></rect>
        </g>
    </g>
</svg>