<?xml version="1.0" encoding="UTF-8"?>
<svg width="17px" height="17px" viewBox="0 0 17 17" version="1.1" xmlns="http://www.w3.org/2000/svg" xmlns:xlink="http://www.w3.org/1999/xlink">
    <title>Mac/Monochrome/17x17/img.circle.data.button.17</title>
    <g id="Mac/Monochrome/17x17/img.circle.data.button.17" stroke="none" stroke-width="1" fill="none" fill-rule="evenodd">
        <g id="Group" transform="translate(2.000000, 2.000000)" fill="#000000">
            <path d="M-2.84217094e-14,6.5 C-2.84217094e-14,2.91014913 2.91014913,0 6.5,0 C10.0898509,0 13,2.91014913 13,6.5 C13,10.0898509 10.0898509,13 6.5,13 C2.91014913,13 -2.84217094e-14,10.0898509 -2.84217094e-14,6.5 Z" id="Combined-Shape" opacity="0.2"></path>
            <path d="M6.5,8.87867947 L3.26119207,7.11205696 C2.99672934,6.96780456 2.66540027,7.06525429 2.52114787,7.32971702 C2.37689547,7.59417975 2.4743452,7.92550882 2.73880793,8.06976122 L6.23880793,9.97885213 C6.40161383,10.0676554 6.59838617,10.0676554 6.76119207,9.97885213 L10.2611921,8.06976122 C10.5256548,7.92550882 10.6231045,7.59417975 10.4788521,7.32971702 C10.3345997,7.06525429 10.0032707,6.96780456 9.73880793,7.11205696 L6.5,8.87867947 Z" id="Path"></path>
            <path d="M6.22937876,3.02641283 C6.39706931,2.93058966 6.60293069,2.93058966 6.77062124,3.02641283 L6.77062124,3.02641283 L10.2706212,5.02641283 C10.6370656,5.23580964 10.6370656,5.76419036 10.2706212,5.97358717 L10.2706212,5.97358717 L6.77062124,7.97358717 C6.60293069,8.06941034 6.39706931,8.06941034 6.22937876,7.97358717 L6.22937876,7.97358717 L2.72937876,5.97358717 C2.36293435,5.76419036 2.36293435,5.23580964 2.72937876,5.02641283 L2.72937876,5.02641283 Z M6.5,4.12822788 L4.09939878,5.5 L6.5,6.87177212 L8.90060122,5.5 L6.5,4.12822788 Z" id="Combined-Shape"></path>
        </g>
    </g>
</svg>