<?xml version="1.0" encoding="UTF-8"?>
<svg width="17px" height="17px" viewBox="0 0 17 17" version="1.1" xmlns="http://www.w3.org/2000/svg" xmlns:xlink="http://www.w3.org/1999/xlink">
    <title>Mac/Monochrome/17x17/img.circles.flatten.17</title>
    <g id="Mac/Monochrome/17x17/img.circles.flatten.17" stroke="none" stroke-width="1" fill="none" fill-rule="evenodd">
        <g id="Group" transform="translate(1.000000, 1.000000)" fill="#000000">
            <path d="M14.5,5.5 C14.5,7.94852354 12.7399932,9.98597546 10.4160653,10.41627 C9.98597546,12.7399932 7.94852354,14.5 5.5,14.5 C4.11978586,14.5 2.87018937,13.9407594 1.96544477,13.0365123 L13.0365123,1.96544477 C13.9407594,2.87018937 14.5,4.11978586 14.5,5.5 Z" id="Combined-Shape" stroke="#000000" fill-opacity="0.2" stroke-linejoin="round"></path>
            <path d="M9.5,-7.10542736e-15 C11.0192905,-7.10542736e-15 12.3947019,0.616019903 13.3900848,1.61191046 L12.6829775,2.31901679 C11.868559,1.50409091 10.7431479,1 9.5,1 C7.53882558,1 5.87067224,2.25457235 5.25431512,4.00494188 C5.33668217,4.00178871 5.4181322,4 5.5,4 C7.01929051,4 8.39470186,4.6160199 9.3900848,5.61191046 L8.68297751,6.31901679 C7.86855903,5.50409091 6.74314789,5 5.5,5 C5.33971486,5 5.18138701,5.00838011 5.02543066,5.0247261 C5.00838011,5.18138701 5,5.33971486 5,5.5 C5,6.74314789 5.50409091,7.86855903 6.31901679,8.68297751 L5.61191046,9.3900848 C4.6160199,8.39470186 4,7.01929051 4,5.5 C4,5.4181322 4.00178871,5.33668217 4.00532917,5.25568687 L3.8880004,5.29733647 C2.19896317,5.94559873 1,7.58278294 1,9.5 C1,10.7431479 1.50409091,11.868559 2.31901679,12.6829775 L1.61191046,13.3900848 C0.616019903,12.3947019 -9.23705556e-14,11.0192905 -9.23705556e-14,9.5 C-9.23705556e-14,6.9231398 1.77212688,4.760182 4.16415729,4.16334996 C4.760182,1.77212688 6.9231398,-7.10542736e-15 9.5,-7.10542736e-15 Z" id="Combined-Shape" fill-rule="nonzero"></path>
        </g>
    </g>
</svg>