<?xml version="1.0" encoding="UTF-8"?>
<svg width="17px" height="17px" viewBox="0 0 17 17" version="1.1" xmlns="http://www.w3.org/2000/svg" xmlns:xlink="http://www.w3.org/1999/xlink">
    <title>Mac/Monochrome/17x17/img.circles.3.scale.17</title>
    <g id="Mac/Monochrome/17x17/img.circles.3.scale.17" stroke="none" stroke-width="1" fill="none" fill-rule="evenodd">
        <path d="M9.5,1.5 C12.8137085,1.5 15.5,4.1862915 15.5,7.5 C15.5,10.6992214 12.9961222,13.3136308 9.84112953,13.4904653 C10.8534114,12.6648496 11.5,11.4079342 11.5,10 C11.5,7.51471863 9.48528137,5.5 7,5.5 C5.59206576,5.5 4.33515038,6.14658855 3.50999853,7.15902096 C3.68636915,4.00387782 6.30077858,1.5 9.5,1.5 Z" id="Combined-Shape" fill-opacity="0.2" fill="#000000"></path>
        <path d="M7,5.5 C9.48528137,5.5 11.5,7.51471863 11.5,10 C11.5,12.4852814 9.48528137,14.5 7,14.5 C6.91343782,14.5 6.82744649,14.4975559 6.74209125,14.4927329 C7.21366808,13.9631101 7.5,13.2649933 7.5,12.5 C7.5,10.8431458 6.15685425,9.5 4.5,9.5 C3.73456388,9.5 3.03608161,9.78666353 2.50605501,10.2584888 C2.50246324,10.1732253 2.5,10.0869003 2.5,10 C2.5,7.51471863 4.51471863,5.5 7,5.5 Z" id="Combined-Shape" fill-opacity="0.2" fill="#000000"></path>
        <circle id="Oval" fill-opacity="0.2" fill="#000000" cx="4.5" cy="12.5" r="3"></circle>
        <path d="M4.90380592,2.90380592 C7.44221382,0.365398026 11.5577862,0.365398026 14.0961941,2.90380592 C16.634602,5.44221382 16.634602,9.55778618 14.0961941,12.0961941 C12.7221467,13.4702414 10.8859764,14.1005131 9.08798002,13.987009 C9.59814601,13.7195206 10.0502235,13.3571294 10.4212376,12.9233358 C11.5071426,12.7395169 12.5499582,12.2282164 13.3890873,11.3890873 C15.5369709,9.24120369 15.5369709,5.75879631 13.3890873,3.6109127 C11.2412037,1.4630291 7.75879631,1.4630291 5.6109127,3.6109127 C4.77228143,4.44954398 4.26108987,5.49162022 4.07733805,6.57827313 C3.6431416,6.94932749 3.28021135,7.40205386 3.01243066,7.91252845 C2.89920686,6.11483964 3.52945325,4.27815859 4.90380592,2.90380592 Z" id="Combined-Shape" fill="#000000" fill-rule="nonzero"></path>
        <path d="M3.46446609,6.46446609 C5.41708755,4.51184464 8.58291245,4.51184464 10.5355339,6.46446609 C12.4881554,8.41708755 12.4881554,11.5829124 10.5355339,13.5355339 C9.36621514,14.7048527 7.76182215,15.17393 6.2434395,14.942766 C6.59176726,14.6925948 6.88480514,14.370442 7.09998696,13.9976923 C8.08967401,13.974322 9.07264776,13.5842065 9.82842712,12.8284271 C11.3905243,11.26633 11.3905243,8.73367004 9.82842712,7.17157288 C8.26632996,5.60947571 5.73367004,5.60947571 4.17157288,7.17157288 C3.41579351,7.92735224 3.02567799,8.91032599 3.0012263,9.90065014 C2.62955801,10.1151949 2.30740523,10.4082327 2.05807166,10.7569044 C1.82606996,9.23817785 2.29514733,7.63378486 3.46446609,6.46446609 Z" id="Combined-Shape" fill="#000000" fill-rule="nonzero"></path>
        <path d="M2.02512627,10.0251263 C0.658291245,11.3919613 0.658291245,13.6080387 2.02512627,14.9748737 C3.39196129,16.3417088 5.60803871,16.3417088 6.97487373,14.9748737 C8.34170876,13.6080387 8.34170876,11.3919613 6.97487373,10.0251263 C5.60803871,8.65829124 3.39196129,8.65829124 2.02512627,10.0251263 Z M6.26776695,10.732233 C7.24407768,11.7085438 7.24407768,13.2914562 6.26776695,14.267767 C5.29145622,15.2440777 3.70854378,15.2440777 2.73223305,14.267767 C1.75592232,13.2914562 1.75592232,11.7085438 2.73223305,10.732233 C3.70854378,9.75592232 5.29145622,9.75592232 6.26776695,10.732233 Z" id="Mask" fill="#000000" fill-rule="nonzero"></path>
    </g>
</svg>