<?xml version="1.0" encoding="UTF-8"?>
<svg width="17px" height="17px" viewBox="0 0 17 17" version="1.1" xmlns="http://www.w3.org/2000/svg" xmlns:xlink="http://www.w3.org/1999/xlink">
    <title>Mac/Monochrome/17x17/img.crop.17</title>
    <g id="Mac/Monochrome/17x17/img.crop.17" stroke="none" stroke-width="1" fill="none" fill-rule="evenodd">
        <g id="Group-2" transform="translate(2.000000, 2.000000)" fill="#000000" fill-rule="nonzero">
            <path d="M3,5 L3,10 L8,10 L8,11 L3,11 C2.44771525,11 2,10.5522847 2,10 L2,5 L3,5 Z M11,8 L12,8 C12.5522847,8 13,8.44771525 13,9 L13,10 C13,10.5522847 12.5522847,11 12,11 L11,11 L11,10 L12,10 L12,9 L11,9 L11,8 Z M5,8 L8,8 L8,9 L4,9 L4,5 L5,5 L5,8 Z M4,0 C4.55228475,0 5,0.44771525 5,1 L5,2 L4,2 L4,1 L3,1 L3,2 L2,2 L2,1 C2,0.44771525 2.44771525,0 3,0 L4,0 Z" id="Combined-Shape"></path>
            <path d="M2,2.5 L2.5,10.5 L10,10.5 L10.5,12 L1,12.5 L0.5,3 L2,2.5 Z" id="Combined-Shape" stroke="#000000" fill-opacity="0.2" transform="translate(5.500000, 7.500000) scale(-1, -1) translate(-5.500000, -7.500000) "></path>
        </g>
    </g>
</svg>