<?xml version="1.0" encoding="UTF-8"?>
<svg width="17px" height="17px" viewBox="0 0 17 17" version="1.1" xmlns="http://www.w3.org/2000/svg" xmlns:xlink="http://www.w3.org/1999/xlink">
    <title>Mac/Monochrome/17x17/img.data.17</title>
    <g id="Mac/Monochrome/17x17/img.data.17" stroke="none" stroke-width="1" fill="none" fill-rule="evenodd" stroke-linecap="round" stroke-linejoin="round">
        <path d="M2.60604901,5.55612273 L7.80663531,2.85952243 C8.24118915,2.63419822 8.75835085,2.63508167 9.19213232,2.86188923 L14.3954598,5.58250795 C14.6401707,5.71045783 14.7348243,6.01255911 14.6068744,6.25727004 C14.5590743,6.34869015 14.4841665,6.42308694 14.3924214,6.47026008 L9.18880004,9.14583575 C8.75670099,9.36801059 8.24375307,9.36713122 7.81241833,9.14347617 L2.60604901,6.44387727 C2.36090237,6.31676419 2.26521725,6.01498806 2.39233033,5.76984142 C2.4398168,5.67826037 2.51446797,5.6036092 2.60604901,5.55612273 Z" id="Path" stroke="#000000" fill-opacity="0.2" fill="#000000" fill-rule="nonzero"></path>
        <path d="M14.7014338,8.80686848 L9.18880004,11.6413309 C8.75670099,11.8635057 8.24375307,11.8626263 7.81241833,11.6389713 L2.298688,8.78" id="Path" stroke="#000000" fill-rule="nonzero"></path>
        <path d="M14.7014338,11.3068685 L9.18880004,14.1413309 C8.75670099,14.3635057 8.24375307,14.3626263 7.81241833,14.1389713 L2.298688,11.28" id="Path" stroke="#000000" fill-rule="nonzero"></path>
    </g>
</svg>