<?xml version="1.0" encoding="UTF-8"?>
<svg width="17px" height="17px" viewBox="0 0 17 17" version="1.1" xmlns="http://www.w3.org/2000/svg" xmlns:xlink="http://www.w3.org/1999/xlink">
    <title>Mac/Monochrome/17x17/img.distribute.vertical.17</title>
    <g id="Mac/Monochrome/17x17/img.distribute.vertical.17" stroke="none" stroke-width="1" fill="none" fill-rule="evenodd">
        <g id="Icon" transform="translate(8.500000, 8.500000) rotate(90.000000) translate(-8.500000, -8.500000) translate(2.000000, 2.000000)" fill="#000000">
            <rect id="Rectangle-16" x="0" y="0" width="1" height="13" rx="0.5"></rect>
            <rect id="Rectangle-16" x="12" y="0" width="1" height="13" rx="0.5"></rect>
            <path d="M5.7819426,2.5 L7.2180574,2.5 C7.66381677,2.5 7.82545989,2.54641281 7.98842285,2.63356635 C8.15138581,2.7207199 8.2792801,2.84861419 8.36643365,3.01157715 C8.45358719,3.17454011 8.5,3.33618323 8.5,3.7819426 L8.5,9.2180574 C8.5,9.66381677 8.45358719,9.82545989 8.36643365,9.98842285 C8.2792801,10.1513858 8.15138581,10.2792801 7.98842285,10.3664336 C7.82545989,10.4535872 7.66381677,10.5 7.2180574,10.5 L5.7819426,10.5 C5.33618323,10.5 5.17454011,10.4535872 5.01157715,10.3664336 C4.84861419,10.2792801 4.7207199,10.1513858 4.63356635,9.98842285 C4.54641281,9.82545989 4.5,9.66381677 4.5,9.2180574 L4.5,3.7819426 C4.5,3.33618323 4.54641281,3.17454011 4.63356635,3.01157715 C4.7207199,2.84861419 4.84861419,2.7207199 5.01157715,2.63356635 C5.17454011,2.54641281 5.33618323,2.5 5.7819426,2.5 Z" id="Rectangle-2" stroke="#000000" fill-opacity="0.2"></path>
        </g>
    </g>
</svg>