<?xml version="1.0" encoding="UTF-8"?>
<svg width="17px" height="17px" viewBox="0 0 17 17" version="1.1" xmlns="http://www.w3.org/2000/svg" xmlns:xlink="http://www.w3.org/1999/xlink">
    <title>Mac/Monochrome/17x17/img.drop.17</title>
    <g id="Mac/Monochrome/17x17/img.drop.17" stroke="none" stroke-width="1" fill="none" fill-rule="evenodd" fill-opacity="0.2">
        <path d="M8.5,2.5 C8.63725329,2.5 9.05861625,3.16427918 9.57372507,3.84976417 C10.1120378,4.56612793 10.7154491,5.47986587 11.2356806,6.46252544 C11.9390689,7.79114781 12.5,9.24767373 12.5,10.5 C12.5,11.6045695 12.0522847,12.6045695 11.3284271,13.3284271 C10.6045695,14.0522847 9.6045695,14.5 8.5,14.5 C7.3954305,14.5 6.3954305,14.0522847 5.67157288,13.3284271 C4.94771525,12.6045695 4.5,11.6045695 4.5,10.5 C4.5,9.24767373 5.06093108,7.79114781 5.7643194,6.46252544 C6.28455094,5.47986587 6.88796221,4.56612793 7.42627493,3.84976417 C7.94138375,3.16427918 8.36274671,2.5 8.5,2.5 Z" id="Oval" stroke="#000000" fill="#000000" fill-rule="nonzero"></path>
    </g>
</svg>