<?xml version="1.0" encoding="UTF-8"?>
<svg width="17px" height="17px" viewBox="0 0 17 17" version="1.1" xmlns="http://www.w3.org/2000/svg" xmlns:xlink="http://www.w3.org/1999/xlink">
    <title>Mac/Monochrome/17x17/img.eye.slash.17</title>
    <g id="Mac/Monochrome/17x17/img.eye.slash.17" stroke="none" stroke-width="1" fill="none" fill-rule="evenodd">
        <path d="M16,8.5 C16,9.71502645 12.6421356,14 8.5,14 C7.18312194,14 5.94551387,13.5668976 4.86987543,12.9370351 L5.77213113,12.2933449 C6.66240236,12.7480159 7.58858448,13 8.5,13 C10.0892829,13 11.7234663,12.233799 13.1338488,10.9627796 C14.2093356,9.99356424 15,8.80069599 15,8.5 C15,8.25736603 14.4851981,7.4338384 13.7213527,6.61564707 L14.543092,6.02832999 C15.4588654,7.0297432 16,8.01223932 16,8.5 Z M8.5,3 C10.1992343,3 11.7664837,3.72111753 13.0240731,4.65558514 L15.2093809,3.09313326 C15.4340872,2.93262877 15.7463622,2.98467461 15.9068667,3.2093809 C16.0673712,3.4340872 16.0153254,3.74636224 15.7906191,3.90686674 L15.7906191,3.90686674 L13.8225967,5.31179603 C13.8229346,5.31210201 13.8232725,5.312408 13.8236103,5.312714 L12.9869612,5.90996116 L12.9859612,5.90896116 L11.6098467,6.89253343 C11.6101868,6.89319012 11.6105268,6.89384693 11.6108665,6.89450387 L10.7849758,7.48412457 C10.7848272,7.4837908 10.7846785,7.48345708 10.7845298,7.48312339 L6.79709452,10.3303452 C6.79742035,10.3306484 6.79774626,10.3309516 6.79807226,10.3312547 L5.97266728,10.9212857 C5.97234698,10.9209515 5.97202675,10.9206172 5.97170659,10.9202828 L4.83605529,11.7320842 C4.83639001,11.7323154 4.83672474,11.7325466 4.83705948,11.7327778 L3.97791649,12.3458929 C3.97758485,12.3456466 3.97725323,12.3454002 3.97692163,12.3451539 L1.7906191,13.9068667 C1.5659128,14.0673712 1.25363776,14.0153254 1.09313326,13.7906191 C0.932628769,13.5659128 0.98467461,13.2536378 1.2093809,13.0931333 L1.2093809,13.0931333 L3.17740328,11.688204 C1.83151407,10.4694746 1,9.10462898 1,8.5 C1,7.28497355 4.35786438,3 8.5,3 Z M12,8.5 C12,10.4329966 10.4329966,12 8.5,12 C7.88258293,12 7.30250534,11.8401307 6.79890437,11.5595293 L7.74545182,10.8841161 C7.98353286,10.9593963 8.23702468,11 8.5,11 C9.86084309,11 10.9677322,9.91269375 10.9993072,8.55944138 L11.945776,7.88292256 C11.9814079,8.08323786 12,8.28944773 12,8.5 Z M8.5,4 C6.91071707,4 5.27653371,4.76620101 3.86615117,6.03722037 C2.79066443,7.00643576 2,8.19930401 2,8.5 C2,8.80069599 2.79066443,9.99356424 3.86615117,10.9627796 L4.01296116,11.0899612 L5.39015329,10.1074666 C5.1408381,9.62611288 5,9.07950369 5,8.5 C5,6.56700338 6.56700338,5 8.5,5 C9.49375852,5 10.3907845,5.41416126 11.027887,6.07929286 L12.1639447,5.26791581 C10.9997835,4.46365242 9.73630643,4 8.5,4 Z M8.5,6 C7.11928813,6 6,7.11928813 6,8.5 C6,8.86209655 6.07698118,9.20621318 6.21547025,9.51687661 L10.2029055,6.66965484 C9.75651618,6.25416008 9.15793922,6 8.5,6 Z" id="Mask" fill="#000000" fill-rule="nonzero"></path>
        <path d="M10.9992836,8.56044597 C10.9671844,9.91323182 9.86050633,11 8.5,11 C8.23739043,11 7.984238,10.9595092 7.74644529,10.88443 Z M8.5,6 C9.51939319,6 10.3962839,6.61012558 10.7854214,7.48512598 L6.79905048,10.3321638 C6.30753369,9.87563795 6,9.22373315 6,8.5 C6,7.11928813 7.11928813,6 8.5,6 Z" id="Mask" fill-opacity="0.2" fill="#000000"></path>
    </g>
</svg>