<?xml version="1.0" encoding="UTF-8"?>
<svg width="17px" height="17px" viewBox="0 0 17 17" version="1.1" xmlns="http://www.w3.org/2000/svg" xmlns:xlink="http://www.w3.org/1999/xlink">
    <title>Mac/Monochrome/17x17/img.eye.17</title>
    <g id="Mac/Monochrome/17x17/img.eye.17" stroke="none" stroke-width="1" fill="none" fill-rule="evenodd">
        <g id="Page-1" transform="translate(1.000000, 3.000000)" fill="#000000">
            <path d="M7.5,11 C3.357864,11 0,6.715026 0,5.5 C0,4.284974 3.357864,0 7.5,0 C11.64214,0 15,4.284974 15,5.5 C15,6.715026 11.64214,11 7.5,11 Z M7.5,10 C9.089283,10 10.72347,9.233799 12.13385,7.96278 C13.20934,6.993564 14,5.800696 14,5.5 C14,5.199304 13.20934,4.006436 12.13385,3.03722 C10.72347,1.766201 9.089283,1 7.5,1 C5.910717,1 4.276534,1.766201 2.866151,3.03722 C1.790664,4.006436 1,5.199304 1,5.5 C1,5.800696 1.790664,6.993564 2.866151,7.96278 C4.276534,9.233799 5.910717,10 7.5,10 Z M7.5,9 C5.567003,9 4,7.432997 4,5.5 C4,3.567003 5.567003,2 7.5,2 C9.432997,2 11,3.567003 11,5.5 C11,7.432997 9.432997,9 7.5,9 Z M7.5,8 C8.880712,8 10,6.880712 10,5.5 C10,4.119288 8.880712,3 7.5,3 C6.119288,3 5,4.119288 5,5.5 C5,6.880712 6.119288,8 7.5,8 Z" id="Clip-2"></path>
            <path d="M7.5,8 C8.880712,8 10,6.880712 10,5.5 C10,4.119288 8.880712,3 7.5,3 C6.119288,3 5,4.119288 5,5.5 C5,6.880712 6.119288,8 7.5,8 Z" id="Clip-5" opacity="0.200000003"></path>
        </g>
    </g>
</svg>