<?xml version="1.0" encoding="UTF-8"?>
<svg width="17px" height="17px" viewBox="0 0 17 17" version="1.1" xmlns="http://www.w3.org/2000/svg" xmlns:xlink="http://www.w3.org/1999/xlink">
    <title>Mac/Monochrome/17x17/img.folder.closed.17</title>
    <g id="Mac/Monochrome/17x17/img.folder.closed.17" stroke="none" stroke-width="1" fill="none" fill-rule="evenodd">
        <rect id="Rectangle" fill-opacity="0.2" fill="#000000" x="2" y="6" width="13" height="8"></rect>
        <path d="M5.26230772,2.5 L13.4057924,3.50003231 C14.1785774,3.49840081 14.4613119,3.55843571 14.7410463,3.7080393 C14.9785491,3.83505722 15.1649428,4.02145086 15.2919607,4.25895373 C15.4395912,4.53499868 15.5,4.81396507 15.5,5.5638852 L15.5,5.5638852 L15.5,12.4361148 C15.5,13.1860349 15.4395912,13.4650013 15.2919607,13.7410463 C15.1649428,13.9785491 14.9785491,14.1649428 14.7410463,14.2919607 C14.4650013,14.4395912 14.1860349,14.5 13.4361148,14.5 L13.4361148,14.5 L3.5638852,14.5 C2.81396507,14.5 2.53499868,14.4395912 2.25895373,14.2919607 C2.02145086,14.1649428 1.83505722,13.9785491 1.7080393,13.7410463 C1.56040884,13.4650013 1.5,13.1860349 1.5,12.4361148 L1.5,12.4361148 L1.5,4.31595144 C1.5,3.83258994 1.56552491,3.52543247 1.7080393,3.25895373 C1.83505722,3.02145086 2.02145086,2.83505722 2.25895373,2.7080393 C2.52543247,2.56552491 2.83258994,2.5 3.31595144,2.5 L3.31595144,2.5 L5.26230772,2.5 Z" id="Rectangle" stroke="#000000"></path>
        <line x1="1.5" y1="5.5" x2="15.5" y2="5.5" id="Path-49" stroke="#000000"></line>
    </g>
</svg>