<?xml version="1.0" encoding="UTF-8"?>
<svg width="17px" height="17px" viewBox="0 0 17 17" version="1.1" xmlns="http://www.w3.org/2000/svg" xmlns:xlink="http://www.w3.org/1999/xlink">
    <title>Mac/Monochrome/17x17/img.gear.small.17</title>
    <g id="Mac/Monochrome/17x17/img.gear.small.17" stroke="none" stroke-width="1" fill="none" fill-rule="evenodd">
        <path d="M9.18983355,2.5 C9.47093449,2.5 9.73318682,2.71484375 9.77844363,2.99769878 L9.97894881,4.24867713 C10.5205743,4.4370758 11.0151131,4.72605782 11.4402006,5.09325835 L12.6241285,4.64065574 C12.8841639,4.54130732 13.2057064,4.65258061 13.3494534,4.90155763 L14.0404751,6.09844237 C14.1810256,6.34188292 14.1260916,6.67642198 13.9037604,6.85704304 L12.9208886,7.65551864 C12.9728231,7.92905214 13,8.21135232 13,8.5 C13,8.78864768 12.9728231,9.07094786 12.9208886,9.34448136 L13.9037604,10.142957 C14.1198163,10.31848 14.1842221,10.6525806 14.0404751,10.9015576 L13.3494534,12.0984424 C13.2089029,12.3418829 12.8917166,12.4615782 12.6241285,12.3593443 L11.4402006,11.9067417 C11.0151131,12.2739422 10.5205743,12.5629242 9.97894881,12.7513229 L9.77844363,14.0023012 C9.73446419,14.2771727 9.47732745,14.5 9.18983355,14.5 L7.80779009,14.5 C7.52668915,14.5 7.26443682,14.2851562 7.21918001,14.0023012 L7.01802857,12.7502703 C6.47758578,12.5618486 5.98409598,12.273259 5.55979945,11.9067417 L4.37349509,12.3593443 C4.11345972,12.4586927 3.79191721,12.3474194 3.64817026,12.0984424 L2.95714853,10.9015576 C2.81659806,10.6581171 2.87153204,10.323578 3.09386329,10.142957 L4.07853751,9.34145296 C4.02697667,9.06886438 4,8.78758256 4,8.5 C4,8.2120624 4.02704332,7.93044111 4.07872859,7.65753749 L3.09386329,6.85704304 C2.87780734,6.68152001 2.81340158,6.34741939 2.95714853,6.09844237 L3.64817026,4.90155763 C3.78872073,4.65811708 4.10590704,4.53842177 4.37349509,4.64065574 L5.55979945,5.09325835 C5.98409598,4.726741 6.47758578,4.43815138 7.01802857,4.24972973 L7.21918001,2.99769878 C7.26315945,2.72282734 7.5202962,2.5 7.80779009,2.5 L9.18983355,2.5 Z M8.5,6.5 C7.3954305,6.5 6.5,7.3954305 6.5,8.5 C6.5,9.6045695 7.3954305,10.5 8.5,10.5 C9.6045695,10.5 10.5,9.6045695 10.5,8.5 C10.5,7.3954305 9.6045695,6.5 8.5,6.5 Z" id="Combined-Shape" fill-opacity="0.2" fill="#000000"></path>
        <path d="M7.51262419,4.32841992 C7.48356242,4.51005595 7.3571154,4.66106674 7.18341023,4.72158741 C6.70730152,4.88746859 6.26744175,5.14259906 5.88619759,5.47202563 C5.74692213,5.59237118 5.55278781,5.62646259 5.38084263,5.56076968 L4.19504683,5.1077277 C4.16132249,5.09484307 4.10126926,5.11676715 4.08118296,5.15155763 L3.39016124,6.34844237 C3.37029452,6.38285253 3.38210225,6.44700476 3.40913534,6.46896633 L4.39406526,7.26911968 C4.53668407,7.38498265 4.60425984,7.56973685 4.57005307,7.75027563 C4.52359135,7.9954944 4.5,8.24610506 4.5,8.5 C4.5,8.75389494 4.52359135,9.0045056 4.57005307,9.24972437 C4.60425984,9.43026315 4.53668407,9.61501735 4.39406526,9.73088032 L3.40913534,10.5310337 C3.38111475,10.5537975 3.37007494,10.6167671 3.39016124,10.6515576 L4.08118296,11.8484424 C4.10104968,11.8828525 4.162511,11.9047028 4.19504683,11.8922723 L5.38084263,11.4392303 C5.55278781,11.3735374 5.74692213,11.4076288 5.88619759,11.5279744 C6.26744175,11.8574009 6.70730152,12.1125314 7.18341023,12.2784126 C7.3571154,12.3389333 7.48356242,12.489944 7.51262419,12.6715801 L7.71290033,13.923306 C7.71860408,13.9589544 7.76761751,14 7.80779009,14 L9.18983355,14 C9.22956698,14 9.27922057,13.9576981 9.28472331,13.923306 L9.4848593,12.672456 C9.51393798,12.4907143 9.6405127,12.3396426 9.81435504,12.2791904 C10.2910464,12.1134252 10.7314572,11.8582104 11.1131542,11.5285343 C11.2524264,11.4082434 11.4465192,11.3741805 11.6184287,11.4398598 L12.8025768,11.8922723 C12.8363011,11.9051569 12.8963544,11.8832329 12.9164407,11.8484424 L13.6074624,10.6515576 C13.6273291,10.6171475 13.6155214,10.5529952 13.5884883,10.5310337 L12.6056175,9.73255312 C12.4629458,9.61664716 12.395377,9.43180317 12.4296651,9.25121044 C12.4763131,9.00551883 12.5,8.75440842 12.5,8.5 C12.5,8.24559158 12.4763131,7.99448117 12.4296651,7.74878956 C12.395377,7.56819683 12.4629458,7.38335284 12.6056175,7.26744688 L13.5884883,6.46896633 C13.6165089,6.44620252 13.6275487,6.38323285 13.6074624,6.34844237 L12.9164407,5.15155763 C12.896574,5.11714747 12.8351126,5.09529715 12.8025768,5.1077277 L11.6184287,5.56014017 C11.4465192,5.62581946 11.2524264,5.59175664 11.1131542,5.47146568 C10.7314572,5.14178964 10.2910464,4.88657481 9.81435504,4.72080956 C9.6405127,4.6603574 9.51393798,4.5092857 9.4848593,4.32754398 L9.28472331,3.07669403 C9.27901956,3.04104559 9.23000613,3 9.18983355,3 L7.80779009,3 C7.76805666,3 7.71840307,3.04230191 7.71290033,3.07669403 L7.51262419,4.32841992 Z M6.7254597,2.91870353 C6.80861275,2.39899693 7.27695163,2 7.80779009,2 L9.18983355,2 C9.71756561,2 10.1882364,2.39415652 10.2721639,2.91870353 L10.4267521,3.88487939 C10.8208839,4.04959874 11.1918444,4.26429641 11.5309189,4.52307507 L12.4456803,4.17358378 C12.9373359,3.98574314 13.5170468,4.19183803 13.7824661,4.65155763 L14.4734878,5.84844237 C14.7373538,6.30547175 14.6313397,6.91016288 14.2190324,7.24511975 L13.4596309,7.86205463 C13.4864562,8.0724859 13.5,8.28543777 13.5,8.5 C13.5,8.71456223 13.4864562,8.9275141 13.4596309,9.13794537 L14.2190324,9.75488025 C14.627535,10.0867462 14.738907,10.691838 14.4734878,11.1515576 L13.7824661,12.3484424 C13.5186,12.8054717 12.9419151,13.0160064 12.4456803,12.8264162 L11.5309189,12.4769249 C11.1918444,12.7357036 10.8208839,12.9504013 10.4267521,13.1151206 L10.2721639,14.0812965 C10.1890109,14.6010031 9.72067201,15 9.18983355,15 L7.80779009,15 C7.28005803,15 6.80938722,14.6058435 6.7254597,14.0812965 L6.57070113,13.1140554 C6.17720742,12.9493461 5.80684369,12.7348087 5.46828845,12.4763199 L4.55194335,12.8264162 C4.06028771,13.0142569 3.48057679,12.808162 3.21515756,12.3484424 L2.52413583,11.1515576 C2.2602698,10.6945283 2.36628396,10.0898371 2.77859123,9.75488025 L3.54014634,9.13619576 C3.51346881,8.9263333 3.5,8.71396718 3.5,8.5 C3.5,8.28603282 3.51346881,8.0736667 3.54014634,7.86380424 L2.77859123,7.24511975 C2.37008864,6.9132538 2.2587166,6.30816197 2.52413583,5.84844237 L3.21515756,4.65155763 C3.47902359,4.19452825 4.05570856,3.98399364 4.55194335,4.17358378 L5.46828845,4.52368014 C5.80684369,4.2651913 6.17720742,4.05065394 6.57070113,3.88594458 L6.7254597,2.91870353 Z M8.5,11 C7.11928813,11 6,9.88071187 6,8.5 C6,7.11928813 7.11928813,6 8.5,6 C9.88071187,6 11,7.11928813 11,8.5 C11,9.88071187 9.88071187,11 8.5,11 Z M8.5,10 C9.32842712,10 10,9.32842712 10,8.5 C10,7.67157288 9.32842712,7 8.5,7 C7.67157288,7 7,7.67157288 7,8.5 C7,9.32842712 7.67157288,10 8.5,10 Z" id="Combined-Shape" fill="#000000" fill-rule="nonzero"></path>
    </g>
</svg>