<?xml version="1.0" encoding="UTF-8"?>
<svg width="17px" height="17px" viewBox="0 0 17 17" version="1.1" xmlns="http://www.w3.org/2000/svg" xmlns:xlink="http://www.w3.org/1999/xlink">
    <title>Mac/Monochrome/17x17/img.image.17</title>
    <defs>
        <path d="M4.2048565,2 L12.7951435,2 C13.9095419,2 14.3136497,2.11603201 14.7210571,2.33391588 C15.1284645,2.55179975 15.4482003,2.87153546 15.6660841,3.27894287 C15.883968,3.68635028 16,4.09045808 16,5.2048565 L16,11.7951435 C16,12.9095419 15.883968,13.3136497 15.6660841,13.7210571 C15.4482003,14.1284645 15.1284645,14.4482003 14.7210571,14.6660841 C14.3136497,14.883968 13.9095419,15 12.7951435,15 L4.2048565,15 C3.09045808,15 2.68635028,14.883968 2.27894287,14.6660841 C1.87153546,14.4482003 1.55179975,14.1284645 1.33391588,13.7210571 C1.11603201,13.3136497 1,12.9095419 1,11.7951435 L1,5.2048565 C1,4.09045808 1.11603201,3.68635028 1.33391588,3.27894287 C1.55179975,2.87153546 1.87153546,2.55179975 2.27894287,2.33391588 C2.68635028,2.11603201 3.09045808,2 4.2048565,2 Z" id="path-1"></path>
    </defs>
    <g id="Mac/Monochrome/17x17/img.image.17" stroke="none" stroke-width="1" fill="none" fill-rule="evenodd">
        <mask id="mask-2" fill="white">
            <use xlink:href="#path-1"></use>
        </mask>
        <path stroke="#000000" d="M12.7951435,2.5 C13.7679433,2.5 14.1277313,2.58361525 14.4852577,2.77482248 C14.804242,2.94541717 15.0545828,3.19575795 15.2251775,3.5147423 C15.4163848,3.87226874 15.5,4.23205669 15.5,5.2048565 L15.5,5.2048565 L15.5,11.7951435 C15.5,12.7679433 15.4163848,13.1277313 15.2251775,13.4852577 C15.0545828,13.804242 14.804242,14.0545828 14.4852577,14.2251775 C14.1277313,14.4163848 13.7679433,14.5 12.7951435,14.5 L12.7951435,14.5 L4.2048565,14.5 C3.23205669,14.5 2.87226874,14.4163848 2.5147423,14.2251775 C2.19575795,14.0545828 1.94541717,13.804242 1.77482248,13.4852577 C1.58361525,13.1277313 1.5,12.7679433 1.5,11.7951435 L1.5,11.7951435 L1.5,5.2048565 C1.5,4.23205669 1.58361525,3.87226874 1.77482248,3.5147423 C1.94541717,3.19575795 2.19575795,2.94541717 2.5147423,2.77482248 C2.87226874,2.58361525 3.23205669,2.5 4.2048565,2.5 L4.2048565,2.5 Z"></path>
        <path d="M1.5,12 L5.296875,8.203125 C5.68520021,7.81479979 6.3236289,7.8236289 6.703125,8.203125 L10.5,12 L12.2902875,10.2097125 C12.6822509,9.81774911 13.322998,9.82299805 13.7082772,10.2082772 L16.5,13 L16.5,15.1496582 L1.5,15.1496582 L1.5,12 Z" id="Path-2" stroke="#000000" fill-opacity="0.2" fill="#000000" stroke-linecap="round" stroke-linejoin="round" mask="url(#mask-2)"></path>
        <circle id="Oval" stroke="#000000" mask="url(#mask-2)" cx="11" cy="6" r="1.5"></circle>
    </g>
</svg>