<?xml version="1.0" encoding="UTF-8"?>
<svg width="17px" height="17px" viewBox="0 0 17 17" version="1.1" xmlns="http://www.w3.org/2000/svg" xmlns:xlink="http://www.w3.org/1999/xlink">
    <title>Mac/Monochrome/17x17/img.lines.3.horizontal.17</title>
    <g id="Mac/Monochrome/17x17/img.lines.3.horizontal.17" stroke="none" stroke-width="1" fill="none" fill-rule="evenodd">
        <path d="M13.4987692,12 C13.7448333,12 13.9494843,12.1832562 13.9919245,12.4122514 L14,12.5 C14,12.7761424 13.7702494,13 13.4987692,13 L3.50123084,13 C3.22440869,13 3,12.7680664 3,12.5 C3,12.2238576 3.22975063,12 3.50123084,12 L13.4987692,12 Z M13.4987692,8 C13.7448333,8 13.9494843,8.18325617 13.9919245,8.41225137 L14,8.5 C14,8.77614237 13.7702494,9 13.4987692,9 L3.50123084,9 C3.22440869,9 3,8.76806641 3,8.5 C3,8.22385763 3.22975063,8 3.50123084,8 L13.4987692,8 Z M13.4987692,4 C13.7448333,4 13.9494843,4.18325617 13.9919245,4.41225137 L14,4.5 C14,4.77614237 13.7702494,5 13.4987692,5 L3.50123084,5 C3.22440869,5 3,4.76806641 3,4.5 C3,4.22385763 3.22975063,4 3.50123084,4 L13.4987692,4 Z" id="Combined-Shape" fill="#000000"></path>
    </g>
</svg>