<?xml version="1.0" encoding="UTF-8"?>
<svg width="17px" height="17px" viewBox="0 0 17 17" version="1.1" xmlns="http://www.w3.org/2000/svg" xmlns:xlink="http://www.w3.org/1999/xlink">
    <title>Mac/Monochrome/17x17/img.link.open.17</title>
    <g id="Mac/Monochrome/17x17/img.link.open.17" stroke="none" stroke-width="1" fill="none" fill-rule="evenodd" stroke-linecap="round">
        <path d="M8.08581056,6.08576232 C8.38949304,5.78207984 8.72281833,5.44875455 9.08578644,5.08578644 C9.47824727,4.6933256 10.1449139,4.02665894 11.0857864,3.08578644 C11.866835,2.30473785 13.133165,2.30473785 13.9142136,3.08578644 C14.6952621,3.86683502 14.6952621,5.13316498 13.9142136,5.91421356 C12.9733411,6.85508606 12.3066744,7.52175273 11.9142136,7.91421356 C11.5512455,8.27718167 11.2179202,8.61050696 10.9142377,8.91418944 M8.91418944,10.9142377 C8.61050696,11.2179202 8.27718167,11.5512455 7.91421356,11.9142136 C7.52175273,12.3066744 6.85508606,12.9733411 5.91421356,13.9142136 C5.13316498,14.6952621 3.86683502,14.6952621 3.08578644,13.9142136 C2.30473785,13.133165 2.30473785,11.866835 3.08578644,11.0857864 C4.02665894,10.1449139 4.6933256,9.47824727 5.08578644,9.08578644 C5.44875455,8.72281833 5.78207984,8.38949304 6.08576232,8.08581056 M3.5,3.5 L5.5,5.5 M11.5,11.5 L13.5,13.5 M13,10.5 L14,10.5 M3,6.5 L4,6.5 M10.5,13 L10.5,14 M6.5,3 L6.5,4" id="Combined-Shape" stroke="#0F0F0F" fill-rule="nonzero"></path>
    </g>
</svg>