<?xml version="1.0" encoding="UTF-8"?>
<svg width="17px" height="17px" viewBox="0 0 17 17" version="1.1" xmlns="http://www.w3.org/2000/svg" xmlns:xlink="http://www.w3.org/1999/xlink">
    <title>Mac/Monochrome/17x17/img.link.library.17</title>
    <g id="Mac/Monochrome/17x17/img.link.library.17" stroke="none" stroke-width="1" fill="none" fill-rule="evenodd">
        <path d="M9.01342773,7 C9.28957011,7 9.51342773,7.22385763 9.51342773,7.5 C9.51342773,7.77614237 9.28957011,8 9.01342773,8 L8.5,8 C7.11928813,8 6,9.11928813 6,10.5 C6,11.8807119 7.11928813,13 8.5,13 L12.5,13 C13.8807119,13 15,11.8807119 15,10.5 C15,9.38733313 14.2665041,8.41763423 13.2167734,8.10413275 C12.9521789,8.02511173 12.8017418,7.74655625 12.8807628,7.48196167 C12.9597838,7.2173671 13.2383393,7.06693001 13.5029339,7.14595104 C14.9734279,7.58511327 16,8.94226573 16,10.5 C16,12.4329966 14.4329966,14 12.5,14 L8.5,14 C6.56700338,14 5,12.4329966 5,10.5 C5,8.56700338 6.56700338,7 8.5,7 L9.01342773,7 Z M8.5,3 C10.4329966,3 12,4.56700338 12,6.5 C12,8.43299662 10.4329966,10 8.5,10 L7.98657227,10 C7.71042989,10 7.48657227,9.77614237 7.48657227,9.5 C7.48657227,9.22385763 7.71042989,9 7.98657227,9 L8.5,9 C9.88071187,9 11,7.88071187 11,6.5 C11,5.11928813 9.88071187,4 8.5,4 L4.5,4 C3.11928813,4 2,5.11928813 2,6.5 C2,7.61266687 2.73349594,8.58236577 3.78322657,8.89586725 C4.04782114,8.97488827 4.19825823,9.25344375 4.1192372,9.51803833 C4.04021618,9.7826329 3.7616607,9.93306999 3.49706612,9.85404896 C2.02657207,9.41488673 1,8.05773427 1,6.5 C1,4.56700338 2.56700338,3 4.5,3 L8.5,3 Z" id="Combined-Shape" fill="#000000" fill-rule="nonzero"></path>
    </g>
</svg>