<?xml version="1.0" encoding="UTF-8"?>
<svg width="17px" height="17px" viewBox="0 0 17 17" version="1.1" xmlns="http://www.w3.org/2000/svg" xmlns:xlink="http://www.w3.org/1999/xlink">
    <title>Mac/Monochrome/17x17/img.lock.closed.17</title>
    <g id="Mac/Monochrome/17x17/img.lock.closed.17" stroke="none" stroke-width="1" fill="none" fill-rule="evenodd">
        <g id="Group-4" transform="translate(5.000000, 2.000000)" fill="#000000" fill-rule="nonzero">
            <path d="M1,6 L6,6 L6,3.5 C6,2.12168932 4.87918071,1 3.5,1 C2.12168932,1 1,2.12081929 1,3.5 L1,6 Z M0,3.5 C0,1.56700338 1.57093664,0 3.5,0 C5.43299662,0 7,1.57093664 7,3.5 L7,7 L0,7 L0,3.5 Z" id="Rectangle-11"></path>
        </g>
        <path d="M11.0770861,8.5 C11.6041265,8.5 11.8022714,8.53720244 11.9968348,8.64125613 C12.1528562,8.72469728 12.2753027,8.84714377 12.3587439,9.00316515 C12.4627976,9.19772863 12.5,9.39587346 12.5,9.9229139 L12.5,9.9229139 L12.5,13.0770861 C12.5,13.6041265 12.4627976,13.8022714 12.3587439,13.9968348 C12.2753027,14.1528562 12.1528562,14.2753027 11.9968348,14.3587439 C11.8022714,14.4627976 11.6041265,14.5 11.0770861,14.5 L11.0770861,14.5 L5.9229139,14.5 C5.39587346,14.5 5.19772863,14.4627976 5.00316515,14.3587439 C4.84714377,14.2753027 4.72469728,14.1528562 4.64125613,13.9968348 C4.53720244,13.8022714 4.5,13.6041265 4.5,13.0770861 L4.5,13.0770861 L4.5,9.9229139 C4.5,9.39587346 4.53720244,9.19772863 4.64125613,9.00316515 C4.72469728,8.84714377 4.84714377,8.72469728 5.00316515,8.64125613 C5.19772863,8.53720244 5.39587346,8.5 5.9229139,8.5 L5.9229139,8.5 Z" id="Rectangle" stroke="#000000" fill-opacity="0.2" fill="#000000"></path>
    </g>
</svg>