<?xml version="1.0" encoding="UTF-8"?>
<svg width="17px" height="17px" viewBox="0 0 17 17" version="1.1" xmlns="http://www.w3.org/2000/svg" xmlns:xlink="http://www.w3.org/1999/xlink">
    <title>Mac/Monochrome/17x17/img.magic.wand.17</title>
    <g id="Mac/Monochrome/17x17/img.magic.wand.17" stroke="none" stroke-width="1" fill="none" fill-rule="evenodd">
        <g id="Group-2" fill-rule="nonzero">
            <path d="M6,2 C8.209139,2 10,3.790861 10,6 C10,6.5541228 9.88732493,7.08192892 9.68363625,7.56175692 L6.76776695,4.64644661 C6.37724266,4.25592232 5.74407768,4.25592232 5.35355339,4.64644661 L5.35355339,4.64644661 L4.64644661,5.35355339 C4.25592232,5.74407768 4.25592232,6.37724266 4.64644661,6.76776695 L4.64644661,6.76776695 L7.56175692,9.68363625 C7.08192892,9.88732493 6.5541228,10 6,10 C3.790861,10 2,8.209139 2,6 C2,3.790861 3.790861,2 6,2 Z" id="Combined-Shape" fill-opacity="0.15" fill="#000000"></path>
            <path d="M6.5,10 L6.5,11 L5.5,11 L5.5,10 L6.5,10 Z M3.81731172,9.38577731 L4.71610577,9.82414846 L4.27773462,10.7229425 L3.37894058,10.2845714 L3.81731172,9.38577731 Z M2.55567111,8.10247093 L3.18499151,8.87961689 L2.40784554,9.50893728 L1.77852515,8.73179132 L2.55567111,8.10247093 Z M1.9875339,6.40168364 L2.21248495,7.37605371 L1.23811489,7.60100476 L1.01316384,6.6266347 L1.9875339,6.40168364 Z M10.7618851,4.39899524 L10.9868362,5.3733653 L10.0124661,5.59831636 L9.78751505,4.62394629 L10.7618851,4.39899524 Z M1.23811489,4.39899524 L2.21248495,4.62394629 L1.9875339,5.59831636 L1.01316384,5.3733653 L1.23811489,4.39899524 Z M9.59215446,2.49106272 L10.2214748,3.26820868 L9.44432889,3.89752907 L8.81500849,3.12038311 L9.59215446,2.49106272 Z M2.40784554,2.49106272 L3.18499151,3.12038311 L2.55567111,3.89752907 L1.77852515,3.26820868 L2.40784554,2.49106272 Z M7.72226538,1.2770575 L8.62105942,1.71542864 L8.18268828,2.61422269 L7.28389423,2.17585154 L7.72226538,1.2770575 Z M4.27773462,1.2770575 L4.71610577,2.17585154 L3.81731172,2.61422269 L3.37894058,1.71542864 L4.27773462,1.2770575 Z M6.5,1 L6.5,2 L5.5,2 L5.5,1 L6.5,1 Z" id="Rectangle-33" fill="#000000" transform="translate(6.000000, 6.000000) rotate(6.000000) translate(-6.000000, -6.000000) "></path>
            <path d="M4.64644661,5.35355339 L5.35355339,4.64644661 C5.74407768,4.25592232 6.37724266,4.25592232 6.76776695,4.64644661 L15.3535534,13.232233 C15.7440777,13.6227573 15.7440777,14.2559223 15.3535534,14.6464466 L14.6464466,15.3535534 C14.2559223,15.7440777 13.6227573,15.7440777 13.232233,15.3535534 L4.64644661,6.76776695 C4.25592232,6.37724266 4.25592232,5.74407768 4.64644661,5.35355339 Z" id="Path-8" stroke="#000000"></path>
            <path d="M9.49816017,7.37683983 L10.1856602,8.06433983 L11.5606602,9.43933983 L15.3535534,13.232233 C15.7440777,13.6227573 15.7440777,14.2559223 15.3535534,14.6464466 L14.6464466,15.3535534 C14.2559223,15.7440777 13.6227573,15.7440777 13.232233,15.3535534 L9.43933983,11.5606602 L9.43933983,11.5606602 L8.06433983,10.1856602 L7.37683983,9.49816017 L9.49816017,7.37683983 Z" id="Path-8" fill="#000000" opacity="0.2"></path>
            <line x1="9.5" y1="7.5" x2="7.5" y2="9.5" id="Path-12" stroke="#000000"></line>
        </g>
    </g>
</svg>