<?xml version="1.0" encoding="UTF-8"?>
<svg width="17px" height="17px" viewBox="0 0 17 17" version="1.1" xmlns="http://www.w3.org/2000/svg" xmlns:xlink="http://www.w3.org/1999/xlink">
    <title>Mac/Monochrome/17x17/img.magnifying.glass.17</title>
    <g id="Mac/Monochrome/17x17/img.magnifying.glass.17" stroke="none" stroke-width="1" fill="none" fill-rule="evenodd">
        <path d="M7.5,11 C9.43299662,11 11,9.43299662 11,7.5 C11,5.56700338 9.43299662,4 7.5,4 C5.56700338,4 4,5.56700338 4,7.5 C4,9.43299662 5.56700338,11 7.5,11 Z M7.5,12 C5.01471863,12 3,9.98528137 3,7.5 C3,5.01471863 5.01471863,3 7.5,3 C9.98528137,3 12,5.01471863 12,7.5 C12,9.98528137 9.98528137,12 7.5,12 Z" id="Oval" fill="#000000" fill-rule="nonzero"></path>
        <path d="M13.8535534,13.1464466 C14.0488155,13.3417088 14.0488155,13.6582912 13.8535534,13.8535534 C13.6582912,14.0488155 13.3417088,14.0488155 13.1464466,13.8535534 L10.1464466,10.8535534 C9.95118446,10.6582912 9.95118446,10.3417088 10.1464466,10.1464466 C10.3417088,9.95118446 10.6582912,9.95118446 10.8535534,10.1464466 L13.8535534,13.1464466 Z" id="Path-8" fill="#000000" fill-rule="nonzero"></path>
    </g>
</svg>