<?xml version="1.0" encoding="UTF-8"?>
<svg width="17px" height="17px" viewBox="0 0 17 17" version="1.1" xmlns="http://www.w3.org/2000/svg" xmlns:xlink="http://www.w3.org/1999/xlink">
    <title>Mac/Monochrome/17x17/img.magnifying.glass.triangle.down.17</title>
    <g id="Mac/Monochrome/17x17/img.magnifying.glass.triangle.down.17" stroke="none" stroke-width="1" fill="none" fill-rule="evenodd">
        <path d="M13.5675208,7 L16.4324792,7 C16.7086216,7 16.9324792,7.22385763 16.9324792,7.5 C16.9324792,7.61696825 16.8914711,7.7302347 16.8165898,7.8200922 L15.3841106,9.53906723 C15.2073286,9.75120568 14.8920462,9.77986771 14.6799078,9.60308567 C14.6566763,9.58372606 14.635249,9.56229876 14.6158894,9.53906723 L13.1834102,7.8200922 C13.0066281,7.60795375 13.0352902,7.2926714 13.2474286,7.11588936 C13.3372861,7.04100811 13.4505526,7 13.5675208,7 Z" id="Path" fill="#000000"></path>
        <path d="M6.5,11 C8.43299662,11 10,9.43299662 10,7.5 C10,5.56700338 8.43299662,4 6.5,4 C4.56700338,4 3,5.56700338 3,7.5 C3,9.43299662 4.56700338,11 6.5,11 Z M6.5,12 C4.01471863,12 2,9.98528137 2,7.5 C2,5.01471863 4.01471863,3 6.5,3 C8.98528137,3 11,5.01471863 11,7.5 C11,9.98528137 8.98528137,12 6.5,12 Z" id="Oval" fill="#000000" fill-rule="nonzero"></path>
        <path d="M12.8535534,13.1464466 C13.0488155,13.3417088 13.0488155,13.6582912 12.8535534,13.8535534 C12.6582912,14.0488155 12.3417088,14.0488155 12.1464466,13.8535534 L9.14644661,10.8535534 C8.95118446,10.6582912 8.95118446,10.3417088 9.14644661,10.1464466 C9.34170876,9.95118446 9.65829124,9.95118446 9.85355339,10.1464466 L12.8535534,13.1464466 Z" id="Path-8" fill="#000000" fill-rule="nonzero"></path>
    </g>
</svg>