<?xml version="1.0" encoding="UTF-8"?>
<svg width="17px" height="17px" viewBox="0 0 17 17" version="1.1" xmlns="http://www.w3.org/2000/svg" xmlns:xlink="http://www.w3.org/1999/xlink">
    <title>Mac/Monochrome/17x17/img.offset.17</title>
    <g id="Mac/Monochrome/17x17/img.offset.17" stroke="none" stroke-width="1" fill="none" fill-rule="evenodd">
        <path d="M8.5,1 C12.6421356,1 16,4.35786438 16,8.5 C16,12.6421356 12.6421356,16 8.5,16 C4.35786438,16 1,12.6421356 1,8.5 C1,4.35786438 4.35786438,1 8.5,1 Z M8.5,5 C6.56700338,5 5,6.56700338 5,8.5 C5,10.4329966 6.56700338,12 8.5,12 C10.4329966,12 12,10.4329966 12,8.5 C12,6.56700338 10.4329966,5 8.5,5 Z" id="Combined-Shape" fill="#000000" opacity="0.2"></path>
        <path d="M9.79555154,14.8708778 L9.99457395,15.8510722 C9.51159138,15.9487393 9.01178198,16 8.5,16 C7.98786336,16 7.48771589,15.9486682 7.00442195,15.850869 L7.20444846,14.8708778 C7.62311216,14.9555561 8.05636586,15 8.5,15 C8.94363414,15 9.37688784,14.9555561 9.79555154,14.8708778 Z M4.91102682,13.9201901 L4.35995771,14.7547823 C3.52149409,14.1986882 2.80131182,13.4785059 2.24521771,12.6400423 L3.07980993,12.0889732 C3.56146613,12.8149292 4.18507075,13.4385339 4.91102682,13.9201901 Z M13.9201901,12.0889732 L14.7547823,12.6400423 C14.1986882,13.4785059 13.4785059,14.1986882 12.6400423,14.7547823 L12.0889732,13.9201901 C12.8149292,13.4385339 13.4385339,12.8149292 13.9201901,12.0889732 Z M1.14913096,7.00442195 L2.12912219,7.20444846 C2.04444392,7.62311216 2,8.05636586 2,8.5 C2,8.94363414 2.04444392,9.37688784 2.12912219,9.79555154 L1.14913096,9.99557805 C1.05133177,9.51228411 1,9.01213664 1,8.5 C1,7.98786336 1.05133177,7.48771589 1.14913096,7.00442195 Z M16,8.5 C16,9.01213664 15.9486682,9.51228411 15.850869,9.99557805 L14.8708778,9.79555154 C14.9555561,9.37688784 15,8.94363414 15,8.5 C15,8.05636586 14.9555561,7.62311216 14.8708778,7.20444846 L15.850869,7.00442195 C15.9486682,7.48771589 16,7.98786336 16,8.5 Z M4.35995771,2.24521771 L4.91102682,3.07980993 C4.18507075,3.56146613 3.56146613,4.18507075 3.07980993,4.91102682 L2.24521771,4.35995771 C2.80131182,3.52149409 3.52149409,2.80131182 4.35995771,2.24521771 Z M14.7541228,4.35896354 L13.9201901,4.91102682 C13.4385339,4.18507075 12.8149292,3.56146613 12.0889732,3.07980993 L12.6400423,2.24521771 C13.4781745,2.80109202 14.1981189,3.5209248 14.7541228,4.35896354 Z M8.5,1 C9.01213664,1 9.51228411,1.05133177 9.99557805,1.14913096 L9.79555154,2.12912219 C9.37688784,2.04444392 8.94363414,2 8.5,2 C8.05601433,2 7.62242555,2.04451438 7.20345325,2.12932356 L7.00442195,1.14913096 C7.48771589,1.05133177 7.98786336,1 8.5,1 Z" id="Combined-Shape" fill="#000000"></path>
        <path d="M8.5,12 C8.88697394,12 9.25927976,11.9371983 9.60728143,11.821231 L9.92336173,12.7702494 C9.47601298,12.9192894 8.99743198,13 8.5,13 C8.00256802,13 7.52398702,12.9192894 7.07663827,12.7702494 L7.3937293,11.8215677 C7.74144108,11.9373199 8.11340068,12 8.5,12 Z M4.22975057,7.07663827 L5.17843232,7.3937293 C5.06268014,7.74144108 5,8.11340068 5,8.5 C5,8.88697394 5.06280167,9.25927976 5.17876896,9.60728143 L4.22975057,9.92336173 C4.08071062,9.47601298 4,8.99743198 4,8.5 C4,8.00256802 4.08071062,7.52398702 4.22975057,7.07663827 Z M13,8.5 C13,8.99743198 12.9192894,9.47601298 12.7702494,9.92336173 L11.821231,9.60728143 C11.9371983,9.25927976 12,8.88697394 12,8.5 C12,8.11340068 11.9373199,7.74144108 11.8215677,7.3937293 L12.7702494,7.07663827 C12.9192894,7.52398702 13,8.00256802 13,8.5 Z M8.5,4 C8.99743198,4 9.47601298,4.08071062 9.92336173,4.22975057 L9.60728143,5.17876896 C9.25927976,5.06280167 8.88697394,5 8.5,5 C8.11340068,5 7.74144108,5.06268014 7.3937293,5.17843232 L7.07663827,4.22975057 C7.52398702,4.08071062 8.00256802,4 8.5,4 Z" id="Combined-Shape" fill="#000000"></path>
    </g>
</svg>