<?xml version="1.0" encoding="UTF-8"?>
<svg width="17px" height="17px" viewBox="0 0 17 17" version="1.1" xmlns="http://www.w3.org/2000/svg" xmlns:xlink="http://www.w3.org/1999/xlink">
    <title>Mac/Monochrome/17x17/img.paint.brush.17</title>
    <g id="Mac/Monochrome/17x17/img.paint.brush.17" stroke="none" stroke-width="1" fill="none" fill-rule="evenodd">
        <path d="M5.85355339,6.35355339 L10.6464466,11.1464466 C10.8417088,11.3417088 10.8417088,11.6582912 10.6464466,11.8535534 L9.70710678,12.7928932 C9.31658249,13.1834175 8.68341751,13.1834175 8.29289322,12.7928932 L7.40049899,11.900499 C7.20523685,11.7052368 6.88865436,11.7052368 6.69339221,11.900499 C6.67873211,11.9151591 6.66499803,11.9307168 6.65226949,11.9470821 L4.58530393,14.6046092 C4.05616708,15.284928 3.07570956,15.4074852 2.39539076,14.8783484 C2.34431306,14.8386213 2.29575573,14.7957557 2.25,14.75 C1.64056605,14.1405661 1.64056605,13.1524784 2.25,12.5430445 C2.29575573,12.4972887 2.34431306,12.4544232 2.39539076,12.4146961 L5.05291792,10.3477305 C5.27089152,10.1781955 5.31015874,9.86405769 5.14062372,9.64608409 C5.12789519,9.62971884 5.11416111,9.61416111 5.09950101,9.59950101 L4.20710678,8.70710678 C3.81658249,8.31658249 3.81658249,7.68341751 4.20710678,7.29289322 L5.14644661,6.35355339 C5.34170876,6.15829124 5.65829124,6.15829124 5.85355339,6.35355339 Z" id="Path-2" fill="#000000" opacity="0.200000003"></path>
        <path d="M10.7071068,2.20710678 L14.7928932,6.29289322 C15.1834175,6.68341751 15.1834175,7.31658249 14.7928932,7.70710678 L9.70710678,12.7928932 C9.31658249,13.1834175 8.68341751,13.1834175 8.29289322,12.7928932 L7.40049899,11.900499 C7.20523685,11.7052368 6.88865436,11.7052368 6.69339221,11.900499 C6.67873211,11.9151591 6.66499803,11.9307168 6.65226949,11.9470821 L4.58530393,14.6046092 C4.05616708,15.284928 3.07570956,15.4074852 2.39539076,14.8783484 C2.34431306,14.8386213 2.29575573,14.7957557 2.25,14.75 C1.64056605,14.1405661 1.64056605,13.1524784 2.25,12.5430445 C2.29575573,12.4972887 2.34431306,12.4544232 2.39539076,12.4146961 L5.05291792,10.3477305 C5.27089152,10.1781955 5.31015874,9.86405769 5.14062372,9.64608409 C5.12789519,9.62971884 5.11416111,9.61416111 5.09950101,9.59950101 L4.20710678,8.70710678 C3.81658249,8.31658249 3.81658249,7.68341751 4.20710678,7.29289322 L9.29289322,2.20710678 C9.68341751,1.81658249 10.3165825,1.81658249 10.7071068,2.20710678 Z" id="Path-2" stroke="#000000"></path>
        <path d="M13.25,4.75 L14.25,5.75 L12.2900629,7.05662475 C12.1751807,7.13321287 12.0199634,7.1021694 11.9433752,6.98728723 C11.887392,6.90331238 11.887392,6.79391198 11.9433752,6.70993713 L13.25,4.75 L13.25,4.75 Z" id="Path-2" fill="#000000"></path>
        <path d="M11.25,2.75 L12.25,3.75 L9.32870443,6.02211877 C9.21971764,6.10688628 9.06264874,6.08725267 8.97788123,5.97826587 C8.9076653,5.88798825 8.9076653,5.76157319 8.97788123,5.67129557 L11.25,2.75 L11.25,2.75 Z" id="Path-2" fill="#000000"></path>
        <line x1="5.5" y1="6" x2="11" y2="11.5" id="Path" stroke="#000000"></line>
    </g>
</svg>