<?xml version="1.0" encoding="UTF-8"?>
<svg width="17px" height="17px" viewBox="0 0 17 17" version="1.1" xmlns="http://www.w3.org/2000/svg" xmlns:xlink="http://www.w3.org/1999/xlink">
    <title>Mac/Monochrome/17x17/img.pencil.17</title>
    <defs>
        <path d="M1.37649029,14.9832581 L2.65838659,11.5213954 L2.65838659,11.5213954 L3.09705895,11.0838954 L6.60643791,7.58389541 L12.2090912,1.9962154 C12.9911842,1.21621261 14.257513,1.21790703 15.0375158,2 C15.8175186,2.78209297 15.8158242,4.0484218 15.0337312,4.82842459 L9.43107791,10.4161046 L9.43107791,10.4161046 L5.92169895,13.9161046 L5.48302658,14.3536046 L2.01774581,15.626232 C1.75853125,15.7214287 1.47122411,15.5884661 1.37602734,15.3292515 C1.33500132,15.2175404 1.33516548,15.094859 1.37649029,14.9832581 Z" id="path-1"></path>
    </defs>
    <g id="Mac/Monochrome/17x17/img.pencil.17" stroke="none" stroke-width="1" fill="none" fill-rule="evenodd">
        <mask id="mask-2" fill="white">
            <use xlink:href="#path-1"></use>
        </mask>
        <path stroke="#000000" d="M13.6234183,1.91232134 C14.0073014,1.912835 14.3909886,2.05979514 14.6834897,2.35308 C14.9759907,2.64636486 15.1219235,3.03044395 15.1214099,3.41432708 C15.1208962,3.79821022 14.9739361,4.1818974 14.6806512,4.47439844 L14.6806512,4.47439844 L9.07799791,10.0620784 L5.56861895,13.5620784 L5.20764674,13.9220859 L2.64275287,14.8640454 L3.12720099,11.7599965 L6.95951791,7.93792155 L12.5621712,2.35024155 C12.8554561,2.0577405 13.2395352,1.91180768 13.6234183,1.91232134 Z"></path>
        <line x1="11.5" y1="3.5" x2="13.5" y2="5.5" id="Path-2" stroke="#000000" mask="url(#mask-2)"></line>
        <polygon id="Path-5" fill="#000000" opacity="0.2" mask="url(#mask-2)" points="11.5 3.5 13 2 14.5 2 15 3 15 4 13.5 5.5"></polygon>
        <line x1="2.5" y1="13.5" x2="3.5" y2="14.5" id="Path-3" stroke="#000000" mask="url(#mask-2)"></line>
    </g>
</svg>