<?xml version="1.0" encoding="UTF-8"?>
<svg width="17px" height="17px" viewBox="0 0 17 17" version="1.1" xmlns="http://www.w3.org/2000/svg" xmlns:xlink="http://www.w3.org/1999/xlink">
    <title>Mac/Monochrome/17x17/img.pipette.17</title>
    <g id="Mac/Monochrome/17x17/img.pipette.17" stroke="none" stroke-width="1" fill="none" fill-rule="evenodd">
        <g id="suite-color-picker" transform="translate(1.000000, 0.000000)" stroke="#000000">
            <path d="M10.5516527,1.82351258 C11.023482,1.82536872 11.4321882,1.98443129 11.7234566,2.25540747 C12.0130752,2.52484889 12.1819805,2.90271506 12.1819805,3.32404309 L12.1819805,3.32404309 L12.1826117,6.34268597 C12.6590185,6.25005662 13.0999634,6.4264782 13.3786424,6.74847394 C13.5680167,6.96728389 13.6819805,7.25342336 13.6819805,7.56801948 L13.6819805,7.56801948 L13.6819805,8.60974226 L7.87875881,8.81801948 L7.68198052,7.56801948 C7.68198052,7.25426787 7.79597711,6.96728018 7.98607838,6.74765109 C8.26348856,6.42715168 8.70233908,6.25004098 9.18162876,6.34264502 L9.18162876,6.34264502 L9.18198052,3.32393854 C9.18198052,2.92753316 9.33279764,2.56660785 9.58165186,2.29748828 C9.8271356,2.03201366 10.1677966,1.85603816 10.5516527,1.82351258 Z" id="Combined-Shape" fill-opacity="0.2" fill="#000000" transform="translate(10.681981, 5.318019) rotate(45.000000) translate(-10.681981, -5.318019) "></path>
            <path d="M6.52512627,6.47487373 L6.52512627,13.9752588 C6.52512627,14.3698119 6.37444282,14.7289975 6.12598806,14.9968407 C5.88038737,15.261607 5.53951604,15.4369842 5.15555641,15.4693979 C4.6839026,15.4675528 4.27535095,15.3084485 3.98402202,15.0382678 C3.69446737,14.7697325 3.52512627,14.3935353 3.52512627,13.9752588 L3.52512627,13.9752588 L3.52512627,6.47487373 L6.52512627,6.47487373 Z" id="Rectangle-31" transform="translate(5.025126, 10.974874) rotate(45.000000) translate(-5.025126, -10.974874) "></path>
        </g>
    </g>
</svg>