<?xml version="1.0" encoding="UTF-8"?>
<svg width="17px" height="17px" viewBox="0 0 17 17" version="1.1" xmlns="http://www.w3.org/2000/svg" xmlns:xlink="http://www.w3.org/1999/xlink">
    <title>Mac/Monochrome/17x17/img.plus.17</title>
    <g id="Mac/Monochrome/17x17/img.plus.17" stroke="none" stroke-width="1" fill="none" fill-rule="evenodd">
        <path d="M8.5,3 C8.77614237,3 9,3.22975063 9,3.50123084 L9,8 L13.4987692,8 C13.7448333,8 13.9494843,8.18325617 13.9919245,8.41225137 L14,8.5 C14,8.77614237 13.7702494,9 13.4987692,9 L9,9 L9,13.4987692 C9,13.7448333 8.81674383,13.9494843 8.58774863,13.9919245 L8.5,14 C8.22385763,14 8,13.7702494 8,13.4987692 L8,9 L3.50123084,9 C3.22440869,9 3,8.76806641 3,8.5 C3,8.22385763 3.22975063,8 3.50123084,8 L8,8 L8,3.50123084 C8,3.25516671 8.18325617,3.05051568 8.41225137,3.0080755 L8.5,3 Z" id="shape" fill="#000000"></path>
    </g>
</svg>