<?xml version="1.0" encoding="UTF-8"?>
<svg width="17px" height="17px" viewBox="0 0 17 17" version="1.1" xmlns="http://www.w3.org/2000/svg" xmlns:xlink="http://www.w3.org/1999/xlink">
    <title>Mac/Monochrome/17x17/img.polygon.17</title>
    <g id="Mac/Monochrome/17x17/img.polygon.17" stroke="none" stroke-width="1" fill="none" fill-rule="evenodd" fill-opacity="0.2">
        <path d="M8.5,1.9521006 C8.8039772,1.9521006 9.10795439,2.04428699 9.36786666,2.22865977 L9.36786666,2.22865977 L14.0024072,5.51624271 C14.2715826,5.70718644 14.4625346,5.97488819 14.5601407,6.27313854 C14.6577468,6.5713889 14.6620068,6.90018786 14.5577984,7.213326 L14.5577984,7.213326 L12.8072306,12.4736425 C12.7052528,12.7800779 12.5109175,13.0366673 12.2613371,13.2166478 C12.0117568,13.3966283 11.7069313,13.5 11.3839728,13.5 L11.3839728,13.5 L5.61602718,13.5 C5.29306874,13.5 4.98824323,13.3966283 4.73866286,13.2166478 C4.48908248,13.0366673 4.29474725,12.7800779 4.19276936,12.4736425 L4.19276936,12.4736425 L2.44220163,7.213326 C2.33799316,6.90018786 2.34225325,6.5713889 2.43985931,6.27313854 C2.53746536,5.97488819 2.72841739,5.70718644 2.99759279,5.51624271 L2.99759279,5.51624271 L7.63213334,2.22865977 C7.89204561,2.04428699 8.1960228,1.9521006 8.5,1.9521006 Z" id="Combined-Shape" stroke="#000000" fill="#000000"></path>
    </g>
</svg>