<?xml version="1.0" encoding="UTF-8"?>
<svg width="17px" height="17px" viewBox="0 0 17 17" version="1.1" xmlns="http://www.w3.org/2000/svg" xmlns:xlink="http://www.w3.org/1999/xlink">
    <title>Mac/Monochrome/17x17/img.prototype.17</title>
    <g id="Mac/Monochrome/17x17/img.prototype.17" stroke="none" stroke-width="1" fill="none" fill-rule="evenodd">
        <circle id="Oval-2" stroke="#000000" fill-opacity="0.2" fill="#000000" cx="3.5" cy="13.5" r="2"></circle>
        <path d="M15.656523,3.08099155 L12.7728356,1.20325137 C12.5414285,1.05256843 12.2316832,1.11800833 12.0810003,1.34941547 C12.0281403,1.4305938 12,1.52537947 12,1.62225106 L12,5.37774524 C12,5.65388761 12.2238576,5.87774524 12.5,5.87774524 C12.5968722,5.87774524 12.6916584,5.84960463 12.772837,5.79674401 L15.6565244,3.91899002 C15.887931,3.7683063 15.9533699,3.45856088 15.8026862,3.22715424 C15.7646778,3.16878434 15.714893,3.11899974 15.656523,3.08099155 Z" id="Path-3" fill="#000000"></path>
        <path d="M12.5,3.5 C10.1666667,3.5 9,5.16666667 9,8.5 C9,11.8333333 7.83333333,13.5 5.5,13.5" id="Path-4" stroke="#000000"></path>
    </g>
</svg>