<?xml version="1.0" encoding="UTF-8"?>
<svg width="17px" height="17px" viewBox="0 0 17 17" version="1.1" xmlns="http://www.w3.org/2000/svg" xmlns:xlink="http://www.w3.org/1999/xlink">
    <title>Mac/Monochrome/17x17/img.rectangle.layout.17</title>
    <defs>
        <path d="M3.8458278,2 L13.1541722,2 C14.4914503,2 14.9763797,2.13923842 15.4652686,2.40069906 C15.9541574,2.66215969 16.3378403,3.04584256 16.5993009,3.53473144 C16.8607616,4.02362033 17,4.50854969 17,5.8458278 L17,11.1541722 C17,12.4914503 16.8607616,12.9763797 16.5993009,13.4652686 C16.3378403,13.9541574 15.9541574,14.3378403 15.4652686,14.5993009 C14.9763797,14.8607616 14.4914503,15 13.1541722,15 L3.8458278,15 C2.50854969,15 2.02362033,14.8607616 1.53473144,14.5993009 C1.04584256,14.3378403 0.662159695,13.9541574 0.400699056,13.4652686 C0.139238417,12.9763797 4.55357867e-16,12.4914503 -7.83709635e-16,11.1541722 L-1.23124504e-16,5.8458278 C7.15388826e-17,4.50854969 0.139238417,4.02362033 0.400699056,3.53473144 C0.662159695,3.04584256 1.04584256,2.66215969 1.53473144,2.40069906 C2.02362033,2.13923842 2.50854969,2 3.8458278,2 Z" id="path-1"></path>
    </defs>
    <g id="Mac/Monochrome/17x17/img.rectangle.layout.17" stroke="none" stroke-width="1" fill="none" fill-rule="evenodd">
        <mask id="mask-2" fill="white">
            <use xlink:href="#path-1"></use>
        </mask>
        <path stroke="#000000" d="M3.8458278,2.5 L13.1541722,2.5 C14.3498517,2.5 14.7904612,2.60682165 15.2294691,2.84160565 C15.629935,3.05577712 15.9442229,3.37006505 16.1583943,3.77053087 C16.3931784,4.2095388 16.5,4.6501483 16.5,5.8458278 L16.5,5.8458278 L16.5,11.1541722 C16.5,12.3498517 16.3931784,12.7904612 16.1583943,13.2294691 C15.9442229,13.629935 15.629935,13.9442229 15.2294691,14.1583943 C14.7904612,14.3931784 14.3498517,14.5 13.1541722,14.5 L13.1541722,14.5 L3.8458278,14.5 C2.6501483,14.5 2.2095388,14.3931784 1.77053087,14.1583943 C1.37006505,13.9442229 1.05577712,13.629935 0.841605655,13.2294691 C0.606821649,12.7904612 0.5,12.3498517 0.5,11.1541722 L0.5,11.1541722 L0.5,5.8458278 C0.5,4.6501483 0.606821649,4.2095388 0.841605655,3.77053087 C1.05577712,3.37006505 1.37006505,3.05577712 1.77053087,2.84160565 C2.2095388,2.60682165 2.6501483,2.5 3.8458278,2.5 L3.8458278,2.5 Z"></path>
        <path d="M6,3 L6,14 L3,14 L3,3 L6,3 Z M10,3 L10,14 L7,14 L7,3 L10,3 Z M14,3 L14,14 L11,14 L11,3 L14,3 Z" id="Combined-Shape" fill="#000000" opacity="0.3" mask="url(#mask-2)"></path>
    </g>
</svg>