<?xml version="1.0" encoding="UTF-8"?>
<svg width="17px" height="17px" viewBox="0 0 17 17" version="1.1" xmlns="http://www.w3.org/2000/svg" xmlns:xlink="http://www.w3.org/1999/xlink">
    <title>Mac/Monochrome/17x17/img.rectangle.prototype.17</title>
    <g id="Mac/Monochrome/17x17/img.rectangle.prototype.17" stroke="none" stroke-width="1" fill="none" fill-rule="evenodd">
        <path d="M7.49698955,8.71527953 C7.47552581,9.46938188 7.35610769,10.0578219 7.04320613,10.4556345 L7.003,10.4993887 L6.3716192,10.4986655 C6.18281401,10.2281666 5.95674998,9.98555872 5.7007626,9.77837752 C5.09948765,9.29174077 4.33384398,9 3.5,9 C2.53350169,9 1.65850169,9.39175084 1.02512627,10.0251263 C0.956669915,10.0935826 0.891036145,10.1648615 0.828414499,10.2387735 C0.626823733,10.0582637 0.5,9.79394249 0.5,9.5 L0.5,7.5 C0.5,6.94771525 0.94771525,6.5 1.5,6.5 L7.74487493,6.49838874 C7.58454501,7.12554849 7.49889415,7.8570383 7.49698955,8.71527953 Z M15.5,6.5 C16.0522847,6.5 16.5,6.94771525 16.5,7.5 L16.5,9.5 C16.5,10.0522847 16.0522847,10.5 15.5,10.5 L10.2557726,10.5015464 C10.4156523,9.87552771 10.5010705,9.14459266 10.5030104,8.28472129 C10.5243011,7.53679388 10.6423813,6.95213822 11.0155911,6.85935581 C11.0674259,7.19718929 11.2437335,7.49438435 11.4972641,7.70101775 C11.7297974,7.89053789 12.0265699,8.004418 12.35,8.004418 C12.6115548,8.004418 12.8674776,7.92843836 13.0866599,7.78571469 L15.041,6.49938874 L15.5,6.5 Z" id="Combined-Shape" fill-opacity="0.2" fill="#000000"></path>
        <path d="M17,7.5 L17,9.5 C17,10.3284271 16.3284271,11 15.5,11 L10.1047855,11.0014746 C10.2120211,10.6972973 10.2987215,10.3650869 10.3635118,10.0011806 L15.5,10 C15.7454599,10 15.9496084,9.82312484 15.9919443,9.58987563 L16,9.5 L16,7.5 C16,7.25454011 15.8231248,7.05039163 15.5898756,7.00805567 L15.5,7 L14.28,6.99972571 L15.764369,6.02322239 C16.4667147,6.14810961 17,6.76177708 17,7.5 Z M7.63689214,6.99916324 L1.5,7 C1.25454011,7 1.05039163,7.17687516 1.00805567,7.41012437 L1,7.5 L1,9.5 C1,9.65341243 1.06909186,9.79068759 1.17785636,9.88240627 C1.12399837,9.92911362 1.07384745,9.97640508 1.02512627,10.0251263 C0.838641725,10.2116108 0.673103342,10.4190415 0.532342905,10.6435866 C0.206760056,10.3710378 0,9.9596646 0,9.5 L0,7.5 C0,6.67157288 0.671572875,6 1.5,6 L7.89546993,5.99972571 C7.78834024,6.30389836 7.70169067,6.6359142 7.63689214,6.99916324 Z" id="Combined-Shape" fill="#000000" fill-rule="nonzero"></path>
        <circle id="Oval-2" stroke="#000000" fill-opacity="0.2" fill="#000000" fill-rule="nonzero" cx="3.5" cy="12.5" r="2"></circle>
        <path d="M15.656523,4.08099155 L12.7728356,2.20325137 C12.5414285,2.05256843 12.2316832,2.11800833 12.0810003,2.34941547 C12.0281403,2.4305938 12,2.52537947 12,2.62225106 L12,6.37774524 C12,6.65388761 12.2238576,6.87774524 12.5,6.87774524 C12.5968722,6.87774524 12.6916584,6.84960463 12.772837,6.79674401 L15.6565244,4.91899002 C15.887931,4.7683063 15.9533699,4.45856088 15.8026862,4.22715424 C15.7646778,4.16878434 15.714893,4.11899974 15.656523,4.08099155 Z" id="Path-3" fill="#000000" fill-rule="nonzero"></path>
        <path d="M12.5,4.5 C10.1666667,4.5 9,5.83333333 9,8.5 C9,11.1666667 7.83333333,12.5 5.5,12.5" id="Path-4" stroke="#000000"></path>
    </g>
</svg>