<?xml version="1.0" encoding="UTF-8"?>
<svg width="17px" height="17px" viewBox="0 0 17 17" version="1.1" xmlns="http://www.w3.org/2000/svg" xmlns:xlink="http://www.w3.org/1999/xlink">
    <title>Mac/Monochrome/17x17/img.rectangles.2.17</title>
    <defs>
        <path d="M10,0 L10,3 L6.5638852,3 C5.74094482,3 5.40217889,3.07909401 5.09858095,3.22835957 L5.0231543,3.2671327 C4.69722837,3.4414398 4.4414398,3.69722837 4.2671327,4.0231543 C4.09282561,4.34908022 4,4.67236646 4,5.5638852 L4,5.5638852 L4,9 L0,9 L0,0 L10,0 Z" id="path-1"></path>
    </defs>
    <g id="Mac/Monochrome/17x17/img.rectangles.2.17" stroke="none" stroke-width="1" fill="none" fill-rule="evenodd">
        <g id="Group" opacity="0.5" transform="translate(1.500000, 3.000000)">
            <mask id="mask-2" fill="white">
                <use xlink:href="#path-1"></use>
            </mask>
            <g id="Combined-Shape"></g>
            <path d="M2.5638852,0.5 L7.4361148,0.5 C8.18603493,0.5 8.46500132,0.560408843 8.74104627,0.708039303 C8.97854914,0.835057224 9.16494278,1.02145086 9.2919607,1.25895373 C9.43959116,1.53499868 9.5,1.81396507 9.5,2.5638852 L9.5,2.5638852 L9.5,5.4361148 C9.5,6.18603493 9.43959116,6.46500132 9.2919607,6.74104627 C9.16494278,6.97854914 8.97854914,7.16494278 8.74104627,7.2919607 C8.46500132,7.43959116 8.18603493,7.5 7.4361148,7.5 L7.4361148,7.5 L2.5638852,7.5 C1.81396507,7.5 1.53499868,7.43959116 1.25895373,7.2919607 C1.02145086,7.16494278 0.835057224,6.97854914 0.708039303,6.74104627 C0.560408843,6.46500132 0.5,6.18603493 0.5,5.4361148 L0.5,5.4361148 L0.5,2.5638852 C0.5,1.81396507 0.560408843,1.53499868 0.708039303,1.25895373 C0.835057224,1.02145086 1.02145086,0.835057224 1.25895373,0.708039303 C1.53499868,0.560408843 1.81396507,0.5 2.5638852,0.5 L2.5638852,0.5 Z" id="Rectangle" stroke="#000000" fill-opacity="0.2" fill="#000000" fill-rule="nonzero" mask="url(#mask-2)"></path>
        </g>
        <path d="M12.9361148,6.5 C13.6860349,6.5 13.9650013,6.56040884 14.2410463,6.7080393 C14.4785491,6.83505722 14.6649428,7.02145086 14.7919607,7.25895373 C14.9395912,7.53499868 15,7.81396507 15,8.5638852 L15,8.5638852 L15,11.4361148 C15,12.1860349 14.9395912,12.4650013 14.7919607,12.7410463 C14.6649428,12.9785491 14.4785491,13.1649428 14.2410463,13.2919607 C13.9650013,13.4395912 13.6860349,13.5 12.9361148,13.5 L12.9361148,13.5 L8.0638852,13.5 C7.31396507,13.5 7.03499868,13.4395912 6.75895373,13.2919607 C6.52145086,13.1649428 6.33505722,12.9785491 6.2080393,12.7410463 C6.06040884,12.4650013 6,12.1860349 6,11.4361148 L6,11.4361148 L6,8.5638852 C6,7.81396507 6.06040884,7.53499868 6.2080393,7.25895373 C6.33505722,7.02145086 6.52145086,6.83505722 6.75895373,6.7080393 C7.03499868,6.56040884 7.31396507,6.5 8.0638852,6.5 L8.0638852,6.5 Z" id="Rectangle" stroke="#000000" fill-opacity="0.2" fill="#000000" fill-rule="nonzero"></path>
    </g>
</svg>