<?xml version="1.0" encoding="UTF-8"?>
<svg width="17px" height="17px" viewBox="0 0 17 17" version="1.1" xmlns="http://www.w3.org/2000/svg" xmlns:xlink="http://www.w3.org/1999/xlink">
    <title>Mac/Monochrome/17x17/img.rectangle.stack.17</title>
    <g id="Mac/Monochrome/17x17/img.rectangle.stack.17" stroke="none" stroke-width="1" fill="none" fill-rule="evenodd">
        <path d="M12.4361148,6.5 C13.1860349,6.5 13.4650013,6.56040884 13.7410463,6.7080393 C13.9785491,6.83505722 14.1649428,7.02145086 14.2919607,7.25895373 C14.4395912,7.53499868 14.5,7.81396507 14.5,8.5638852 L14.5,8.5638852 L14.5,12.4361148 C14.5,13.1860349 14.4395912,13.4650013 14.2919607,13.7410463 C14.1649428,13.9785491 13.9785491,14.1649428 13.7410463,14.2919607 C13.4650013,14.4395912 13.1860349,14.5 12.4361148,14.5 L12.4361148,14.5 L4.5638852,14.5 C3.81396507,14.5 3.53499868,14.4395912 3.25895373,14.2919607 C3.02145086,14.1649428 2.83505722,13.9785491 2.7080393,13.7410463 C2.56040884,13.4650013 2.5,13.1860349 2.5,12.4361148 L2.5,12.4361148 L2.5,8.5638852 C2.5,7.81396507 2.56040884,7.53499868 2.7080393,7.25895373 C2.83505722,7.02145086 3.02145086,6.83505722 3.25895373,6.7080393 C3.53499868,6.56040884 3.81396507,6.5 4.5638852,6.5 L4.5638852,6.5 Z" id="Rectangle" stroke="#000000" fill-opacity="0.2" fill="#000000" fill-rule="nonzero"></path>
        <path d="M12.5,4 C13.1532187,4 13.7089149,4.41754351 13.9147505,5.00029246 L3.08524952,5.00029246 C3.29108512,4.41754351 3.84678131,4 4.5,4 L12.5,4 Z" id="Combined-Shape" fill="#000000" fill-rule="nonzero"></path>
        <path d="M11,2 C11.6532187,2 12.2089149,2.41754351 12.4147505,3.00029246 L4.58524952,3.00029246 C4.79108512,2.41754351 5.34678131,2 6,2 L11,2 Z" id="Combined-Shape" fill="#000000" fill-rule="nonzero"></path>
    </g>
</svg>