<?xml version="1.0" encoding="UTF-8"?>
<svg width="17px" height="17px" viewBox="0 0 17 17" version="1.1" xmlns="http://www.w3.org/2000/svg" xmlns:xlink="http://www.w3.org/1999/xlink">
    <title>Mac/Monochrome/17x17/img.rectangle.dotted.plus.17</title>
    <g id="Mac/Monochrome/17x17/img.rectangle.dotted.plus.17" stroke="none" stroke-width="1" fill="none" fill-rule="evenodd">
        <g id="Group" transform="translate(2.000000, 3.000000)" fill="#000000">
            <path d="M13,10 L14.5,10 C14.7761424,10 15,10.2238576 15,10.5 C15,10.7761424 14.7761424,11 14.5,11 L13,11 L13,12.5 C13,12.7761424 12.7761424,13 12.5,13 C12.2238576,13 12,12.7761424 12,12.5 L12,11 L10.5,11 C10.2238576,11 10,10.7761424 10,10.5 C10,10.2238576 10.2238576,10 10.5,10 L12,10 L12,8.5 C12,8.22385763 12.2238576,8 12.5,8 C12.7761424,8 13,8.22385763 13,8.5 L13,10 Z" id="Combined-Shape"></path>
            <path d="M1,10 L1,11 L0.998502329,11 C0.44704472,11 0,10.555163 0,10.0044225 L0,10 L1,10 Z M3,10 L3,11 L2,11 L2,10 L3,10 Z M5,10 L5,11 L4,11 L4,10 L5,10 Z M7,10 L7,11 L6,11 L6,10 L7,10 Z M9,10 L9,11 L8,11 L8,10 L9,10 Z M13,10 L13,10.0044225 C13,10.5542648 12.5525106,11 12.0014977,11 L12,11 L12,10 L13,10 Z M1,8 L1,9 L0,9 L0,8 L1,8 Z M1,6 L1,7 L0,7 L0,6 L1,6 Z M13,6 L13,7 L12,7 L12,6 L13,6 Z M1,4 L1,5 L0,5 L0,4 L1,4 Z M13,4 L13,5 L12,5 L12,4 L13,4 Z M1,2 L1,3 L0,3 L0,2 L1,2 Z M13,2 L13,3 L12,3 L12,2 L13,2 Z M1,0 L1,1 L0,1 L0,0.995577499 C0,0.445735229 0.447489426,0 0.998502329,0 L1,0 Z M12.0014977,0 C12.5529553,0 13,0.444836974 13,0.995577499 L13,1 L12,1 L12,0 L12.0014977,0 Z M11,0 L11,1 L10,1 L10,0 L11,0 Z M9,0 L9,1 L8,1 L8,0 L9,0 Z M7,0 L7,1 L6,1 L6,0 L7,0 Z M5,0 L5,1 L4,1 L4,0 L5,0 Z M3,0 L3,1 L2,1 L2,0 L3,0 Z" id="Combined-Shape" fill-rule="nonzero"></path>
            <rect id="Rectangle-10" fill-opacity="0.2" x="1" y="1" width="11" height="9"></rect>
        </g>
    </g>
</svg>