<?xml version="1.0" encoding="UTF-8"?>
<svg width="17px" height="17px" viewBox="0 0 17 17" version="1.1" xmlns="http://www.w3.org/2000/svg" xmlns:xlink="http://www.w3.org/1999/xlink">
    <title>Mac/Monochrome/17x17/img.rotate.copies.17</title>
    <g id="Mac/Monochrome/17x17/img.rotate.copies.17" stroke="none" stroke-width="1" fill="none" fill-rule="evenodd">
        <line x1="8.5" y1="7.5" x2="8.5" y2="5" id="Path-10" stroke="#000000" fill-rule="nonzero"></line>
        <path d="M8.75,12.5 C8.95710678,12.5 9.14460678,12.5839466 9.28033009,12.7196699 C9.41605339,12.8553932 9.5,13.0428932 9.5,13.25 L9.5,13.25 L9.5,14.75 C9.5,14.9571068 9.41605339,15.1446068 9.28033009,15.2803301 C9.14460678,15.4160534 8.95710678,15.5 8.75,15.5 L8.75,15.5 L8.25,15.5 C8.04289322,15.5 7.85539322,15.4160534 7.71966991,15.2803301 C7.58394661,15.1446068 7.5,14.9571068 7.5,14.75 L7.5,14.75 L7.5,13.25 C7.5,13.0428932 7.58394661,12.8553932 7.71966991,12.7196699 C7.85539322,12.5839466 8.04289322,12.5 8.25,12.5 L8.25,12.5 Z M12.5445064,9.93404928 C12.7299079,9.8843711 12.9342609,9.90542121 13.1136207,10.0089746 L13.1136207,10.0089746 L14.4126588,10.7589746 C14.5920185,10.862528 14.712425,11.0289779 14.7621031,11.2143794 C14.8117813,11.3997808 14.7907312,11.6041339 14.6871778,11.7834936 L14.6871778,11.7834936 L14.4371778,12.2165064 C14.3336244,12.3958661 14.1671745,12.5162725 13.9817731,12.5659507 C13.7963716,12.6156289 13.5920185,12.5945788 13.4126588,12.4910254 L13.4126588,12.4910254 L12.1136207,11.7410254 C11.9342609,11.637472 11.8138545,11.4710221 11.7641763,11.2856206 C11.7144981,11.1002192 11.7355482,10.8958661 11.8391016,10.7165064 L11.8391016,10.7165064 L12.0891016,10.2834936 C12.192655,10.1041339 12.3591049,9.98372746 12.5445064,9.93404928 Z M3.88637933,10.0089746 C4.06573907,9.90542121 4.27009213,9.8843711 4.45549362,9.93404928 C4.6408951,9.98372746 4.80734499,10.1041339 4.91089838,10.2834936 L4.91089838,10.2834936 L5.16089838,10.7165064 C5.26445178,10.8958661 5.28550188,11.1002192 5.2358237,11.2856206 C5.18614552,11.4710221 5.06573907,11.637472 4.88637933,11.7410254 L4.88637933,11.7410254 L3.58734123,12.4910254 C3.40798149,12.5945788 3.20362842,12.6156289 3.01822694,12.5659507 C2.83282546,12.5162725 2.66637556,12.3958661 2.56282217,12.2165064 L2.56282217,12.2165064 L2.31282217,11.7834936 C2.20926878,11.6041339 2.18821868,11.3997808 2.23789686,11.2143794 C2.28757503,11.0289779 2.40798149,10.862528 2.58734123,10.7589746 L2.58734123,10.7589746 Z M13.4126588,4.5089746 C13.5920185,4.40542121 13.7963716,4.3843711 13.9817731,4.43404928 C14.1671745,4.48372746 14.3336244,4.60413392 14.4371778,4.78349365 C14.6528022,5.15696596 14.749327,5.48350131 14.7229181,5.75589084 C14.701806,5.97364745 14.5879245,6.1398357 14.4126588,6.2410254 L14.4126588,6.2410254 L13.1136207,6.9910254 C12.9342609,7.09457879 12.7299079,7.1156289 12.5445064,7.06595072 C12.3591049,7.01627254 12.192655,6.89586608 12.0891016,6.71650635 L12.0891016,6.71650635 L11.8391016,6.28349365 C11.7355482,6.10413392 11.7144981,5.89978085 11.7641763,5.71437937 C11.8138545,5.52897788 11.9342609,5.36252799 12.1136207,5.2589746 L12.1136207,5.2589746 Z M3.01207272,4.48284944 C3.21121152,4.39225476 3.41207551,4.40778489 3.58734123,4.5089746 L3.58734123,4.5089746 L4.88637933,5.2589746 C5.06573907,5.36252799 5.18614552,5.52897788 5.2358237,5.71437937 C5.28550188,5.89978085 5.26445178,6.10413392 5.16089838,6.28349365 L5.16089838,6.28349365 L4.91089838,6.71650635 C4.80734499,6.89586608 4.6408951,7.01627254 4.45549362,7.06595072 C4.27009213,7.1156289 4.06573907,7.09457879 3.88637933,6.9910254 L3.88637933,6.9910254 L2.58734123,6.2410254 C2.40798149,6.13747201 2.28757503,5.97102212 2.23789686,5.78562063 C2.18821868,5.60021915 2.20926878,5.39586608 2.31282217,5.21650635 C2.52844651,4.84303404 2.762972,4.5961734 3.01207272,4.48284944 Z M8.75,1.5 C8.95710678,1.5 9.14460678,1.58394661 9.28033009,1.71966991 C9.41605339,1.85539322 9.5,2.04289322 9.5,2.25 L9.5,2.25 L9.5,3.75 C9.5,3.95710678 9.41605339,4.14460678 9.28033009,4.28033009 C9.14460678,4.41605339 8.95710678,4.5 8.75,4.5 L8.75,4.5 L8.25,4.5 C8.04289322,4.5 7.85539322,4.41605339 7.71966991,4.28033009 C7.58394661,4.14460678 7.5,3.95710678 7.5,3.75 L7.5,3.75 L7.5,2.25 C7.5,2.04289322 7.58394661,1.85539322 7.71966991,1.71966991 C7.85539322,1.58394661 8.04289322,1.5 8.25,1.5 L8.25,1.5 Z" id="Combined-Shape" stroke="#000000" fill-opacity="0.2" fill="#000000"></path>
        <circle id="Oval-5" stroke="#000000" fill-rule="nonzero" cx="8.5" cy="8.5" r="1"></circle>
    </g>
</svg>