<?xml version="1.0" encoding="UTF-8"?>
<svg width="17px" height="17px" viewBox="0 0 17 17" version="1.1" xmlns="http://www.w3.org/2000/svg" xmlns:xlink="http://www.w3.org/1999/xlink">
    <title>Mac/Monochrome/17x17/img.scissors.17</title>
    <g id="Mac/Monochrome/17x17/img.scissors.17" stroke="none" stroke-width="1" fill="none" fill-rule="evenodd">
        <path d="M10.9885857,9.90003707 L11.5358693,10.6809417 C11.997347,11.3400003 11.5585037,12.0167677 10.5326446,12.735082 C10.3999786,12.8279757 10.2305361,12.850858 10.0779821,12.7964818 C9.53044005,12.6013164 9.01060371,12.3531323 8.52052348,12.0580991 C8.84034078,11.866567 9.14595462,11.6552906 9.43846688,11.4259578 C9.6642405,11.5455791 9.89721887,11.6533404 10.1353346,11.7490221 L10.1353346,11.7490221 L10.1722301,11.7629171 L10.3150338,11.6561434 C10.6842595,11.3721288 10.7307366,11.27454 10.7167172,11.2545182 L10.7167172,11.2545182 L10.3011803,10.6605349 C10.541738,10.4200699 10.7710132,10.1661492 10.9885857,9.90003707 Z M4.23031401,1.11925096 C4.4565166,0.960862201 4.76828949,1.01583617 4.92667825,1.24203876 L4.92667825,1.24203876 L8.52107073,6.37578411 L7.91007073,7.24678411 L4.5460035,2.441169 L4.53121744,2.50718765 C4.37830614,3.31292492 4.54522057,4.80255772 5.15837046,6.37182048 L5.15837046,6.37182048 L5.28748566,6.68878723 C5.65637309,7.55821764 6.11559113,8.34932784 6.65167534,9.04529263 L6.05412418,9.90003707 C5.29774428,8.97491134 4.68279993,7.90244316 4.22694462,6.73575166 C3.27007368,4.28678779 3.20747157,1.83545295 4.23031401,1.11925096 Z" id="Combined-Shape" fill="#000000" fill-rule="nonzero"></path>
        <path d="M10.9885857,9.90003707 L11.5358693,10.6809417 C11.997347,11.3400003 11.5585037,12.0167677 10.5326446,12.735082 C10.3999786,12.8279757 10.2305361,12.850858 10.0779821,12.7964818 C9.53044005,12.6013164 9.01060371,12.3531323 8.52052348,12.0580991 C9.45743665,11.4950692 10.2843198,10.7614223 10.9885857,9.90003707 Z M4.23031401,1.11925096 C4.4565166,0.960862201 4.76828949,1.01583617 4.92667825,1.24203876 L4.92667825,1.24203876 L8.52107073,6.37578411 L6.05412418,9.90003707 C5.36309028,9.05483581 4.79010946,8.08665111 4.34864369,7.03598987 L4.22694462,6.73575166 C3.27007368,4.28678779 3.20747157,1.83545295 4.23031401,1.11925096 Z" id="Combined-Shape"></path>
        <path d="M14.7398307,10.8712218 L14.9898307,13.6212218 C14.9898307,14.1044709 14.7939553,14.5419709 14.4772676,14.8586586 C14.1605799,15.1753463 13.7230799,15.3712218 13.2398307,15.3712218 C12.7565816,15.3712218 12.3190816,15.1753463 12.0023939,14.8586586 C11.6857062,14.5419709 11.4898307,14.1044709 11.4898307,13.6212218 L11.4898307,13.6212218 L11.4898307,12.6212218 C11.4898307,12.1379726 11.6857062,11.7004726 12.0023939,11.3837849 C12.3190816,11.0670972 12.7565816,10.8712218 13.2398307,10.8712218 L13.2398307,10.8712218 L14.7398307,10.8712218 Z" id="Rectangle-2" stroke="#000000" stroke-width="1.5" fill-rule="nonzero" transform="translate(13.239831, 13.121222) scale(-1, 1) rotate(35.000000) translate(-13.239831, -13.121222) "></path>
        <path d="M8.76905929,1.43562972 C9.38154928,1.45156241 9.79725893,1.85637017 10.1794005,2.40142859 C10.7334663,3.19170718 11.2084069,4.29934501 11.5074509,5.52997598 C12.1689558,8.25221169 11.8736886,11.0535401 10.393652,13.2622163 C9.79189698,13.32566 9.3408565,13.3140182 9.0337004,13.1996169 L9.0337004,13.1996169 Z" id="Path-2" stroke="#000000" transform="translate(10.305196, 7.378076) rotate(35.000000) translate(-10.305196, -7.378076) "></path>
        <path d="M5.29860942,10.8712218 L5.54860942,13.6212218 C5.54860942,14.1044709 5.352734,14.5419709 5.03604629,14.8586586 C4.71935858,15.1753463 4.28185858,15.3712218 3.79860942,15.3712218 C3.31536026,15.3712218 2.87786026,15.1753463 2.56117255,14.8586586 C2.24448484,14.5419709 2.04860942,14.1044709 2.04860942,13.6212218 L2.04860942,13.6212218 L2.04860942,12.6212218 C2.04860942,12.1379726 2.24448484,11.7004726 2.56117255,11.3837849 C2.87786026,11.0670972 3.31536026,10.8712218 3.79860942,10.8712218 L3.79860942,10.8712218 L5.29860942,10.8712218 Z" id="Rectangle-2" stroke="#000000" stroke-width="1.5" fill-rule="nonzero" transform="translate(3.798609, 13.121222) rotate(35.000000) translate(-3.798609, -13.121222) "></path>
    </g>
</svg>