<?xml version="1.0" encoding="UTF-8"?>
<svg width="17px" height="17px" viewBox="0 0 17 17" version="1.1" xmlns="http://www.w3.org/2000/svg" xmlns:xlink="http://www.w3.org/1999/xlink">
    <title>Mac/Monochrome/17x17/img.square.circle.line.invert.17</title>
    <g id="Mac/Monochrome/17x17/img.square.circle.line.invert.17" stroke="none" stroke-width="1" fill="none" fill-rule="evenodd">
        <g id="Group-2" transform="translate(8.500000, 8.500000) scale(-1, -1) translate(-8.500000, -8.500000) translate(2.000000, 2.000000)">
            <path d="M1.2819426,0.5 L11.7180574,0.5 C12.0222182,0.5 12.1395414,0.513996038 12.2526234,0.574472951 C12.486004,0.860458574 12.5,0.977781842 12.5,1.2819426 L12.5,1.2819426 L12.5,11.7180574 C12.5,12.0222182 12.486004,12.1395414 12.425527,12.2526234 C12.1395414,12.486004 12.0222182,12.5 11.7180574,12.5 L11.7180574,12.5 L1.2819426,12.5 C0.977781842,12.5 0.860458574,12.486004 0.747376578,12.425527 C0.513996038,12.1395414 0.5,12.0222182 0.5,11.7180574 L0.5,11.7180574 L0.5,1.2819426 C0.5,0.977781842 0.513996038,0.860458574 0.574472951,0.747376578 C0.860458574,0.513996038 0.977781842,0.5 1.2819426,0.5 L1.2819426,0.5 Z" id="Rectangle-2" stroke="#000000" transform="translate(6.500000, 6.500000) scale(-1, 1) translate(-6.500000, -6.500000) "></path>
            <line x1="1" y1="1" x2="12" y2="12" id="Path-8" stroke="#000000" fill-rule="nonzero"></line>
            <path d="M1,1 L3.67157288,3.67157288 C2.94771525,4.3954305 2.5,5.3954305 2.5,6.5 C2.5,8.709139 4.290861,10.5 6.5,10.5 C7.6045695,10.5 8.6045695,10.0522847 9.32842712,9.32842712 L12,12 L1,12 L1,1 Z" id="Combined-Shape" fill="#000000" fill-rule="nonzero" opacity="0.200000003"></path>
            <path d="M12.5909903,7.15900974 C12.5909903,4.67372837 10.5762716,2.65900974 8.09099026,2.65900974 C5.60570888,2.65900974 3.59099026,4.67372837 3.59099026,7.15900974 C12.5909903,7.15900974 3.59099026,7.15900974 12.5909903,7.15900974 Z" id="Oval-8" fill-opacity="0.2" fill="#000000" fill-rule="nonzero" transform="translate(8.090990, 4.909010) rotate(45.000000) translate(-8.090990, -4.909010) "></path>
            <circle id="Oval-8" stroke="#000000" fill-rule="nonzero" cx="6.5" cy="6.5" r="4"></circle>
        </g>
    </g>
</svg>