<?xml version="1.0" encoding="UTF-8"?>
<svg width="17px" height="17px" viewBox="0 0 17 17" version="1.1" xmlns="http://www.w3.org/2000/svg" xmlns:xlink="http://www.w3.org/1999/xlink">
    <title>Mac/Monochrome/17x17/img.square.rounded.17</title>
    <g id="Mac/Monochrome/17x17/img.square.rounded.17" stroke="none" stroke-width="1" fill="none" fill-rule="evenodd" fill-opacity="0.2">
        <path d="M6.4867991,2.5 L6.4867991,2.5 L10.5132009,2.5 C11.9317601,2.5 12.4531911,2.63002805 12.9736806,2.90838883 C13.4556279,3.16613707 13.8338629,3.54437214 14.0916112,4.02631945 C14.3699719,4.54680885 14.5,5.06823992 14.5,6.4867991 L14.5,6.4867991 L14.5,10.5132009 C14.5,11.9317601 14.3699719,12.4531911 14.0916112,12.9736806 C13.8338629,13.4556279 13.4556279,13.8338629 12.9736806,14.0916112 C12.4531911,14.3699719 11.9317601,14.5 10.5132009,14.5 L10.5132009,14.5 L6.4867991,14.5 C5.06823992,14.5 4.54680885,14.3699719 4.02631945,14.0916112 C3.54437214,13.8338629 3.16613707,13.4556279 2.90838883,12.9736806 C2.63002805,12.4531911 2.5,11.9317601 2.5,10.5132009 L2.5,10.5132009 L2.5,6.4867991 C2.5,5.06823992 2.63002805,4.54680885 2.90838883,4.02631945 C3.16613707,3.54437214 3.54437214,3.16613707 4.02631945,2.90838883 C4.54680885,2.63002805 5.06823992,2.5 6.4867991,2.5 L6.4867991,2.5 Z" id="Rectangle-16" stroke="#000000" fill="#000000"></path>
    </g>
</svg>