<?xml version="1.0" encoding="UTF-8"?>
<svg width="17px" height="17px" viewBox="0 0 17 17" version="1.1" xmlns="http://www.w3.org/2000/svg" xmlns:xlink="http://www.w3.org/1999/xlink">
    <title>Mac/Monochrome/17x17/img.square.dotted.knife.17</title>
    <g id="Mac/Monochrome/17x17/img.square.dotted.knife.17" stroke="none" stroke-width="1" fill="none" fill-rule="evenodd">
        <g id="Exportable" transform="translate(1.000000, 1.000000)" fill="#000000" fill-rule="nonzero">
            <path d="M3,14 L3,15 L2,15 L2,14 L3,14 Z M1,14 L1,15 C0.44771525,15 0,14.5522847 0,14 L1,14 Z M5,14 L5,15 L4,15 L4,14 L5,14 Z M15,14 C15,14.5522847 14.5522847,15 14,15 L14,14 L15,14 Z M6.434,14 L6.25846457,14.1940533 C6.05357529,14.4205096 5.97050043,14.7173581 6.00924,15.0008972 L6,15 L6,14 L6.434,14 Z M13,14 L13,15 L12,15 L12.0005838,14.3298968 C12.2527135,14.1664169 12.5031418,13.9926487 12.7516087,13.809568 L12.485,14 L13,14 Z M1,12 L1,13 L0,13 L0,12 L1,12 Z M15,12 L15,13 L14,13 L14.0015968,12.7950748 C14.1453253,12.6671874 14.2851441,12.5386834 14.4208269,12.410142 C14.5853628,12.254266 14.7255657,12.1160115 14.8394244,12.0000419 L15,12 Z M1,10 L1,11 L0,11 L0,10 L1,10 Z M1,8 L1,9 L0,9 L0,8 L1,8 Z M1,6 L1,7 L0,7 L0,6 L1,6 Z M15,4 L15,5 L14,5 L14,4 L15,4 Z M1,4 L1,5 L0,5 L0,4 L1,4 Z M15,2 L15,3 L14,3 L14,2 L15,2 Z M1,2 L1,3 L0,3 L0,2 L1,2 Z M3,0 L3,1 L2,1 L2,0 L3,0 Z M1,0 L1,1 L0,1 C0,0.44771525 0.44771525,0 1,0 Z M5,0 L5,1 L4,1 L4,0 L5,0 Z M7,0 L7,1 L6,1 L6,0 L7,0 Z M9,0 L9,1 L8,1 L8,0 L9,0 Z M11,0 L11,1 L10,1 L10,0 L11,0 Z M13,0 L13,1 L12,1 L12,0 L13,0 Z M14,0 C14.5522847,0 15,0.44771525 15,1 L14,1 L14,0 Z" id="Combined-Shape" opacity="0.5"></path>
            <path d="M14.3303722,11.0840421 C14.3303722,11.0840421 12.3756063,13.2445706 9.93214888,14.3248348 C7.48869148,15.4050991 7,14.864967 7,14.864967 L12.1305349,9.19438176 L14.820515,6.22124892 C15.0863602,5.92742038 15.5265498,5.92454631 15.7964466,6.22285304 C16.0682252,6.52323951 16.0669933,7.00409236 15.797898,7.30151317 L13.3529892,10.0037779 L14.3303722,11.0840421 Z" id="Mask"></path>
        </g>
    </g>
</svg>