<?xml version="1.0" encoding="UTF-8"?>
<svg width="17px" height="17px" viewBox="0 0 17 17" version="1.1" xmlns="http://www.w3.org/2000/svg" xmlns:xlink="http://www.w3.org/1999/xlink">
    <title>Mac/Monochrome/17x17/img.star.17</title>
    <g id="Mac/Monochrome/17x17/img.star.17" stroke="none" stroke-width="1" fill="none" fill-rule="evenodd" fill-opacity="0.2">
        <path d="M8.34213883,2.25926261 C8.82041996,2.33494581 8.89874261,2.41326846 8.94709441,2.50984341 L8.94709441,2.50984341 L10.6421967,5.89553769 L14.3998789,6.43377777 C14.5365551,6.4533549 14.652357,6.52647764 14.7290955,6.62887516 C14.8058341,6.73127268 14.8435093,6.86294497 14.8239322,6.99962119 C14.8081173,7.11003188 14.755839,7.2119845 14.6754119,7.28926402 L14.6754119,7.28926402 L11.9618154,9.89666319 L12.6058595,13.5982031 C12.6295274,13.7342306 12.5958186,13.8669737 12.522186,13.9716269 C12.4485534,14.0762801 12.3349969,14.1528434 12.1989694,14.1765113 C12.0912227,14.1952585 11.980301,14.1781617 11.8832001,14.1278404 L11.8832001,14.1278404 L8.5,12.3745401 L5.11679987,14.1278404 C4.99421246,14.1913698 4.85748003,14.1991965 4.73551211,14.1604939 C4.61354419,14.1217914 4.50634078,14.0365597 4.44281142,13.9139723 C4.39249014,13.8168714 4.37539329,13.7059497 4.39414052,13.5982031 L4.39414052,13.5982031 L5.03818461,9.89666319 L2.32458806,7.28926402 C2.22502827,7.19360053 2.17366909,7.06663893 2.17111573,6.93870325 C2.16856236,6.81076756 2.21481482,6.68185781 2.3104783,6.58229802 C2.38775781,6.50187098 2.48971043,6.44959269 2.60012113,6.43377777 L2.60012113,6.43377777 L6.3578033,5.89553769 L8.05290559,2.50984341 C8.11471868,2.3863817 8.22072268,2.2996628 8.34213883,2.25926261 Z" id="Star-2" stroke="#000000" fill="#000000"></path>
    </g>
</svg>