<?xml version="1.0" encoding="UTF-8"?>
<svg width="17px" height="17px" viewBox="0 0 17 17" version="1.1" xmlns="http://www.w3.org/2000/svg" xmlns:xlink="http://www.w3.org/1999/xlink">
    <title>Mac/Monochrome/17x17/img.templates.17</title>
    <g id="Mac/Monochrome/17x17/img.templates.17" stroke="none" stroke-width="1" fill="none" fill-rule="evenodd">
        <g id="Group-4" transform="translate(2.000000, 2.000000)" fill-rule="nonzero" stroke="#000000">
            <path d="M1.2819426,0.5 L4.7180574,0.5 C5.02221816,0.5 5.13954143,0.513996038 5.25262342,0.574472951 C5.48600396,0.860458574 5.5,0.977781842 5.5,1.2819426 L5.5,1.2819426 L5.5,2.7180574 C5.5,3.02221816 5.48600396,3.13954143 5.42552705,3.25262342 C5.13954143,3.48600396 5.02221816,3.5 4.7180574,3.5 L4.7180574,3.5 L1.2819426,3.5 C0.977781842,3.5 0.860458574,3.48600396 0.747376578,3.42552705 C0.513996038,3.13954143 0.5,3.02221816 0.5,2.7180574 L0.5,2.7180574 L0.500951608,1.16249467 C0.504947457,0.944347465 0.522635597,0.844304003 0.574472951,0.747376578 C0.860458574,0.513996038 0.977781842,0.5 1.2819426,0.5 L1.2819426,0.5 Z" id="Rectangle"></path>
            <path d="M4.83750533,5.50095161 C5.05565254,5.50494746 5.155696,5.5226356 5.25262342,5.57447295 C5.48600396,5.86045857 5.5,5.97778184 5.5,6.2819426 L5.5,6.2819426 L5.5,11.7180574 C5.5,12.0222182 5.48600396,12.1395414 5.42552705,12.2526234 C5.13954143,12.486004 5.02221816,12.5 4.7180574,12.5 L4.7180574,12.5 L1.2819426,12.5 C0.977781842,12.5 0.860458574,12.486004 0.747376578,12.425527 C0.513996038,12.1395414 0.5,12.0222182 0.5,11.7180574 L0.5,11.7180574 L0.500951608,6.16249467 C0.504947457,5.94434746 0.522635597,5.844304 0.574472951,5.74737658 C0.860458574,5.51399604 0.977781842,5.5 1.2819426,5.5 L1.2819426,5.5 Z" id="Rectangle" fill-opacity="0.2" fill="#000000"></path>
            <path d="M8.2819426,0.5 L11.7180574,0.5 C12.0222182,0.5 12.1395414,0.513996038 12.2526234,0.574472951 C12.486004,0.860458574 12.5,0.977781842 12.5,1.2819426 L12.5,1.2819426 L12.4990484,6.83750533 C12.4950525,7.05565254 12.4773644,7.155696 12.425527,7.25262342 C12.1395414,7.48600396 12.0222182,7.5 11.7180574,7.5 L11.7180574,7.5 L8.2819426,7.5 C7.97778184,7.5 7.86045857,7.48600396 7.74737658,7.42552705 C7.51399604,7.13954143 7.5,7.02221816 7.5,6.7180574 L7.5,6.7180574 L7.5,1.2819426 C7.5,0.977781842 7.51399604,0.860458574 7.57447295,0.747376578 C7.86045857,0.513996038 7.97778184,0.5 8.2819426,0.5 L8.2819426,0.5 Z" id="Rectangle" fill-opacity="0.2" fill="#000000"></path>
            <path d="M11.8375053,9.50095161 C12.0556525,9.50494746 12.155696,9.5226356 12.2526234,9.57447295 C12.486004,9.86045857 12.5,9.97778184 12.5,10.2819426 L12.5,10.2819426 L12.4990484,11.8375053 C12.4950525,12.0556525 12.4773644,12.155696 12.425527,12.2526234 C12.1395414,12.486004 12.0222182,12.5 11.7180574,12.5 L11.7180574,12.5 L8.2819426,12.5 C7.97778184,12.5 7.86045857,12.486004 7.74737658,12.425527 C7.51399604,12.1395414 7.5,12.0222182 7.5,11.7180574 L7.5,11.7180574 L7.5,10.2819426 C7.5,9.97778184 7.51399604,9.86045857 7.57447295,9.74737658 C7.86045857,9.51399604 7.97778184,9.5 8.2819426,9.5 L8.2819426,9.5 Z" id="Rectangle"></path>
        </g>
    </g>
</svg>