<?xml version="1.0" encoding="UTF-8"?>
<svg width="17px" height="17px" viewBox="0 0 17 17" version="1.1" xmlns="http://www.w3.org/2000/svg" xmlns:xlink="http://www.w3.org/1999/xlink">
    <title>Mac/Monochrome/17x17/img.text.width.17</title>
    <g id="Mac/Monochrome/17x17/img.text.width.17" stroke="none" stroke-width="1" fill="none" fill-rule="evenodd">
        <path d="M2.5,9 C2.77614237,9 3,9.22385763 3,9.5 L3,13.5 C3,13.7761424 2.77614237,14 2.5,14 C2.22385763,14 2,13.7761424 2,13.5 L2,9.5 C2,9.22385763 2.22385763,9 2.5,9 Z M14.5,9 C14.7761424,9 15,9.22385763 15,9.5 L15,13.5 C15,13.7761424 14.7761424,14 14.5,14 C14.2238576,14 14,13.7761424 14,13.5 L14,9.5 C14,9.22385763 14.2238576,9 14.5,9 Z" id="Combined-Shape" fill="#000000"></path>
        <circle id="dot-copy-4" fill="#000000" cx="4.5" cy="11.5" r="1"></circle>
        <circle id="dot-copy-5" fill="#000000" cx="6.5" cy="11.5" r="1"></circle>
        <circle id="dot-copy-6" fill="#000000" cx="8.5" cy="11.5" r="1"></circle>
        <circle id="dot-copy-7" fill="#000000" cx="10.5" cy="11.5" r="1"></circle>
        <circle id="dot-copy-8" fill="#000000" cx="12.5" cy="11.5" r="1"></circle>
        <path d="M10.1714692,8 C10.4253622,8 10.6081652,7.83412322 10.6081652,7.5971564 C10.6081652,7.51929587 10.591239,7.44143534 10.5506161,7.32972241 L9.12881517,3.47054841 C9.00694651,3.14218009 8.81060257,3 8.48900474,3 C8.17079215,3 7.97444821,3.14895058 7.85596479,3.47393365 L6.43754909,7.32972241 C6.3969262,7.43466486 6.38,7.52945159 6.38,7.5971564 C6.38,7.84427894 6.55264726,8 6.82008125,8 C7.04689235,8 7.17553148,7.88828707 7.25677725,7.62423832 L7.57837508,6.69668246 L9.40301963,6.69668246 L9.72461747,7.6310088 C9.802478,7.89167231 9.93450237,8 10.1714692,8 Z M9.18974949,6.00609343 L7.78487475,6.00609343 L8.47207854,3.92078538 L8.49577522,3.92078538 L9.18974949,6.00609343 Z" id="A" fill="#000000" fill-rule="nonzero"></path>
    </g>
</svg>