<?xml version="1.0" encoding="UTF-8"?>
<svg width="17px" height="17px" viewBox="0 0 17 17" version="1.1" xmlns="http://www.w3.org/2000/svg" xmlns:xlink="http://www.w3.org/1999/xlink">
    <title>Mac/Monochrome/17x17/img.text.height.17</title>
    <g id="Mac/Monochrome/17x17/img.text.height.17" stroke="none" stroke-width="1" fill="none" fill-rule="evenodd">
        <path d="M0.5,6 C0.776142375,6 1,6.22385763 1,6.5 L1,10.5 C1,10.7761424 0.776142375,11 0.5,11 C0.223857625,11 -2.27373675e-13,10.7761424 -2.27373675e-13,10.5 L-2.27373675e-13,6.5 C-2.27373675e-13,6.22385763 0.223857625,6 0.5,6 Z M10.5,6 C10.7761424,6 11,6.22385763 11,6.5 L11,10.5 C11,10.7761424 10.7761424,11 10.5,11 C10.2238576,11 10,10.7761424 10,10.5 L10,6.5 C10,6.22385763 10.2238576,6 10.5,6 Z" id="Combined-Shape" fill="#000000" transform="translate(5.500000, 8.500000) rotate(-270.000000) translate(-5.500000, -8.500000) "></path>
        <circle id="dot-copy-4" fill="#000000" cx="5.5" cy="5.5" r="1"></circle>
        <circle id="dot-copy-5" fill="#000000" cx="5.5" cy="7.5" r="1"></circle>
        <circle id="dot-copy-6" fill="#000000" cx="5.5" cy="9.5" r="1"></circle>
        <circle id="dot-copy-7" fill="#000000" cx="5.5" cy="11.5" r="1"></circle>
        <path d="M13.1714692,11 C13.4253622,11 13.6081652,10.8341232 13.6081652,10.5971564 C13.6081652,10.5192959 13.591239,10.4414353 13.5506161,10.3297224 L12.1288152,6.47054841 C12.0069465,6.14218009 11.8106026,6 11.4890047,6 C11.1707921,6 10.9744482,6.14895058 10.8559648,6.47393365 L9.43754909,10.3297224 C9.3969262,10.4346649 9.38,10.5294516 9.38,10.5971564 C9.38,10.8442789 9.55264726,11 9.82008125,11 C10.0468923,11 10.1755315,10.8882871 10.2567773,10.6242383 L10.5783751,9.69668246 L12.4030196,9.69668246 L12.7246175,10.6310088 C12.802478,10.8916723 12.9345024,11 13.1714692,11 Z M12.1897495,9.00609343 L10.7848747,9.00609343 L11.4720785,6.92078538 L11.4957752,6.92078538 L12.1897495,9.00609343 Z" id="A" fill="#000000" fill-rule="nonzero"></path>
    </g>
</svg>