<?xml version="1.0" encoding="UTF-8"?>
<svg width="17px" height="17px" viewBox="0 0 17 17" version="1.1" xmlns="http://www.w3.org/2000/svg" xmlns:xlink="http://www.w3.org/1999/xlink">
    <title>Mac/Monochrome/17x17/img.text.slider.17</title>
    <g id="Mac/Monochrome/17x17/img.text.slider.17" stroke="none" stroke-width="1" fill="none" fill-rule="evenodd">
        <g id="Icon" fill="#000000">
            <rect id="Combined-Shape" x="1" y="12" width="3" height="1" rx="0.5"></rect>
            <rect id="Combined-Shape-Copy" x="7" y="12" width="9" height="1" rx="0.5"></rect>
            <circle id="Oval" stroke="#000000" fill-opacity="0.2" cx="5.5" cy="12.5" r="2"></circle>
        </g>
        <path d="M6.35688136,8.9 C6.61247458,8.9 6.79728814,8.73091525 6.79728814,8.49891525 C6.79728814,8.42420339 6.78155932,8.34949153 6.74223729,8.23938983 L5.0120678,3.55613559 C4.89410169,3.24155932 4.70535593,3.1 4.39864407,3.1 C4.088,3.1 3.89532203,3.24549153 3.78128814,3.5600678 L2.05505085,8.23938983 C2.01572881,8.34555932 2,8.4320678 2,8.49891525 C2,8.73877966 2.17694915,8.9 2.44040678,8.9 C2.66847458,8.9 2.79823729,8.78989831 2.88081356,8.53430508 L3.30942373,7.31532203 L5.48,7.31532203 L5.91254237,8.53823729 C5.99118644,8.78989831 6.12094915,8.9 6.35688136,8.9 Z M5.25586441,6.59572881 L3.53355932,6.59572881 L4.37898305,4.10664407 L4.40257627,4.10664407 L5.25586441,6.59572881 Z" id="A" fill="#000000" fill-rule="nonzero"></path>
        <path d="M14.2605649,9 C14.6923067,9 15.0029993,8.70544721 15.0029993,8.28984533 C15.0029993,8.13651648 14.9747545,7.99932751 14.9061601,7.80968393 L13.4576059,3.86348352 C13.2356826,3.25823806 12.8806052,3 12.2713248,3 C11.6943241,3 11.3352118,3.27034297 11.1213584,3.86348352 L9.68490921,7.80968393 C9.6203497,7.9872226 9.58,8.16879623 9.58,8.2938803 C9.58,8.733692 9.86648285,9 10.3345393,9 C10.7299664,9 10.9518897,8.79825151 11.0931137,8.30598521 L11.2908272,7.68459987 L13.2841022,7.68459987 L13.4818157,8.33019502 C13.6109348,8.80632145 13.8328581,9 14.2605649,9 Z M12.9613046,6.56691325 L11.58538,6.56691325 L12.247115,4.32347007 L12.2793948,4.32347007 L12.9613046,6.56691325 Z" id="A" fill="#000000" fill-rule="nonzero"></path>
    </g>
</svg>