<?xml version="1.0" encoding="UTF-8"?>
<svg width="17px" height="17px" viewBox="0 0 17 17" version="1.1" xmlns="http://www.w3.org/2000/svg" xmlns:xlink="http://www.w3.org/1999/xlink">
    <title>Mac/Monochrome/17x17/img.textformat.lowercase.17</title>
    <g id="Mac/Monochrome/17x17/img.textformat.lowercase.17" stroke="none" stroke-width="1" fill="none" fill-rule="evenodd">
        <path d="M11.4691406,6.28417969 C13.0179688,6.28417969 13.9955078,7.12207031 13.9955078,8.43603516 L13.9955078,8.43603516 L13.9955078,12.5556641 C13.9955078,12.8857422 13.7796875,13.1142578 13.475,13.1142578 C13.1639648,13.1142578 12.9481445,12.8857422 12.9481445,12.5556641 L12.9481445,12.5556641 L12.9481445,11.8637695 L12.9227539,11.8637695 C12.5291992,12.6191406 11.6849609,13.1142578 10.7962891,13.1142578 C9.48232422,13.1142578 8.6,12.3208008 8.6,11.1337891 C8.6,10.0039062 9.46962891,9.29296875 10.9930664,9.20410156 L10.9930664,9.20410156 L12.8910156,9.09619141 L12.8910156,8.54394531 C12.8910156,7.73779297 12.3578125,7.25537109 11.44375,7.25537109 C10.7264648,7.25537109 10.2376953,7.515625 9.86953125,8.16943359 C9.76796875,8.35351562 9.62197266,8.43603516 9.4125,8.43603516 C9.12685547,8.43603516 8.92373047,8.23925781 8.92373047,7.94091797 C8.92373047,7.80126953 8.96816406,7.64257812 9.05703125,7.48388672 C9.43154297,6.76025391 10.3963867,6.28417969 11.4691406,6.28417969 Z M12.8910156,9.953125 L11.1200195,10.0610352 C10.2313477,10.1181641 9.72353516,10.5117188 9.72353516,11.1337891 C9.72353516,11.762207 10.2503906,12.1748047 11.0438477,12.1748047 C12.0848633,12.1748047 12.8910156,11.4448242 12.8910156,10.4926758 L12.8910156,10.4926758 L12.8910156,9.953125 Z" id="Combined-Shape" fill="#000000" fill-rule="nonzero"></path>
        <path d="M5.46914063,6.28417969 C7.01796875,6.28417969 7.99550781,7.12207031 7.99550781,8.43603516 L7.99550781,8.43603516 L7.99550781,12.5556641 C7.99550781,12.8857422 7.7796875,13.1142578 7.475,13.1142578 C7.16396484,13.1142578 6.94814453,12.8857422 6.94814453,12.5556641 L6.94814453,12.5556641 L6.94814453,11.8637695 L6.92275391,11.8637695 C6.52919922,12.6191406 5.68496094,13.1142578 4.79628906,13.1142578 C3.48232422,13.1142578 2.6,12.3208008 2.6,11.1337891 C2.6,10.0039062 3.46962891,9.29296875 4.99306641,9.20410156 L4.99306641,9.20410156 L6.89101563,9.09619141 L6.89101563,8.54394531 C6.89101563,7.73779297 6.3578125,7.25537109 5.44375,7.25537109 C4.72646484,7.25537109 4.23769531,7.515625 3.86953125,8.16943359 C3.76796875,8.35351562 3.62197266,8.43603516 3.4125,8.43603516 C3.12685547,8.43603516 2.92373047,8.23925781 2.92373047,7.94091797 C2.92373047,7.80126953 2.96816406,7.64257812 3.05703125,7.48388672 C3.43154297,6.76025391 4.39638672,6.28417969 5.46914063,6.28417969 Z M6.89101563,9.953125 L5.12001953,10.0610352 C4.23134766,10.1181641 3.72353516,10.5117188 3.72353516,11.1337891 C3.72353516,11.762207 4.25039063,12.1748047 5.04384766,12.1748047 C6.08486328,12.1748047 6.89101563,11.4448242 6.89101563,10.4926758 L6.89101563,10.4926758 L6.89101563,9.953125 Z" id="Combined-Shape" fill="#000000" fill-rule="nonzero"></path>
    </g>
</svg>