<?xml version="1.0" encoding="UTF-8"?>
<svg width="17px" height="17px" viewBox="0 0 17 17" version="1.1" xmlns="http://www.w3.org/2000/svg" xmlns:xlink="http://www.w3.org/1999/xlink">
    <title>Mac/Monochrome/17x17/img.textformat.uppercase.17</title>
    <g id="Mac/Monochrome/17x17/img.textformat.uppercase.17" stroke="none" stroke-width="1" fill="none" fill-rule="evenodd">
        <path d="M7.68164062,13.0888672 C8.01171875,13.0888672 8.25292969,12.8793945 8.25292969,12.5874023 C8.25292969,12.5048828 8.23388672,12.409668 8.18310547,12.2700195 L5.23144531,4.29736328 C5.09179688,3.92285156 4.86328125,3.75146484 4.51416016,3.75146484 C4.13964844,3.75146484 3.90478516,3.92919922 3.76513672,4.30371094 L0.819824219,12.2700195 C0.769042969,12.409668 0.75,12.5048828 0.75,12.5874023 C0.75,12.8793945 0.991210938,13.0888672 1.32128906,13.0888672 C1.60693359,13.0888672 1.77197266,12.9555664 1.87988281,12.6508789 L2.68603516,10.378418 L6.31054688,10.378418 L7.12304688,12.6508789 C7.23095703,12.9555664 7.39599609,13.0888672 7.68164062,13.0888672 Z M5.98681641,9.40722656 L3.01611328,9.40722656 L4.48242188,5.23046875 L4.52050781,5.23046875 L5.98681641,9.40722656 Z" id="Aa" fill="#000000" fill-rule="nonzero"></path>
        <path d="M15.6816406,13.0888672 C16.0117188,13.0888672 16.2529297,12.8793945 16.2529297,12.5874023 C16.2529297,12.5048828 16.2338867,12.409668 16.1831055,12.2700195 L13.2314453,4.29736328 C13.0917969,3.92285156 12.8632812,3.75146484 12.5141602,3.75146484 C12.1396484,3.75146484 11.9047852,3.92919922 11.7651367,4.30371094 L8.81982422,12.2700195 C8.76904297,12.409668 8.75,12.5048828 8.75,12.5874023 C8.75,12.8793945 8.99121094,13.0888672 9.32128906,13.0888672 C9.60693359,13.0888672 9.77197266,12.9555664 9.87988281,12.6508789 L10.6860352,10.378418 L14.3105469,10.378418 L15.1230469,12.6508789 C15.230957,12.9555664 15.3959961,13.0888672 15.6816406,13.0888672 Z M13.9868164,9.40722656 L11.0161133,9.40722656 L12.4824219,5.23046875 L12.5205078,5.23046875 L13.9868164,9.40722656 Z" id="Aa" fill="#000000" fill-rule="nonzero"></path>
    </g>
</svg>