<?xml version="1.0" encoding="UTF-8"?>
<svg width="17px" height="17px" viewBox="0 0 17 17" version="1.1" xmlns="http://www.w3.org/2000/svg" xmlns:xlink="http://www.w3.org/1999/xlink">
    <title>Mac/Monochrome/17x17/img.textformat.ligatures.17</title>
    <g id="Mac/Monochrome/17x17/img.textformat.ligatures.17" stroke="none" stroke-width="1" fill="none" fill-rule="evenodd">
        <path d="M7.75488281,3.78955078 C8.33886719,3.78955078 8.64990234,3.97998047 8.64990234,4.30371094 C8.64990234,4.50683594 8.5546875,4.63378906 8.3515625,4.69091797 C8.28808594,4.70784505 8.21896701,4.71912977 8.13856337,4.72477214 L8.00878906,4.72900391 C7.46651786,4.72900391 7.20885483,4.98077268 7.17481252,5.56054456 L7.17089844,5.70019531 L7.17089844,6.3984375 L10.1094577,6.398059 C10.2489146,6.399353 10.3631774,6.4 10.4522461,6.4 C10.7436035,6.4 10.9578369,6.59641455 10.99777,6.89 L11.0044922,6.99 L11.0044922,12.5239258 C11.0044922,12.8730469 10.7759766,13.1142578 10.4522461,13.1142578 C10.1608887,13.1142578 9.94665527,12.918877 9.90672217,12.6252915 L9.9,12.5239258 L9.89912891,7.30555078 L7.17724609,7.30615234 L7.17724609,12.5302734 C7.17724609,12.8857422 6.96142578,13.1142578 6.625,13.1142578 C6.3222168,13.1142578 6.11712402,12.9291602 6.0791333,12.6330039 L6.07275391,12.5302734 L6.07275391,7.30615234 L5.52685547,7.30615234 C5.24121094,7.30615234 5.05712891,7.14111328 5.05712891,6.85546875 C5.05712891,6.61284722 5.20257644,6.44044174 5.43551539,6.40512474 L5.52685547,6.3984375 L6.07275391,6.3984375 L6.07275391,5.66210937 C6.07275391,4.39892578 6.67578125,3.78955078 7.75488281,3.78955078 Z" id="Path" fill="#000000" fill-rule="nonzero"></path>
    </g>
</svg>