<?xml version="1.0" encoding="UTF-8"?>
<svg width="17px" height="17px" viewBox="0 0 17 17" version="1.1" xmlns="http://www.w3.org/2000/svg" xmlns:xlink="http://www.w3.org/1999/xlink">
    <title>Mac/Monochrome/17x17/img.textformat.strikethrough.17</title>
    <g id="Mac/Monochrome/17x17/img.textformat.strikethrough.17" stroke="none" stroke-width="1" fill="none" fill-rule="evenodd">
        <rect id="Rectangle" fill="#000000" x="1" y="9" width="15" height="1" rx="0.5"></rect>
        <path d="M8.43164062,13.0888672 C8.76171875,13.0888672 9.00292969,12.8793945 9.00292969,12.5874023 C9.00292969,12.5048828 8.98388672,12.409668 8.93310547,12.2700195 L5.98144531,4.29736328 C5.84179688,3.92285156 5.61328125,3.75146484 5.26416016,3.75146484 C4.88964844,3.75146484 4.65478516,3.92919922 4.51513672,4.30371094 L1.56982422,12.2700195 C1.51904297,12.409668 1.5,12.5048828 1.5,12.5874023 C1.5,12.8793945 1.74121094,13.0888672 2.07128906,13.0888672 C2.35693359,13.0888672 2.52197266,12.9555664 2.62988281,12.6508789 L3.43603516,10.378418 L7.06054688,10.378418 L7.87304688,12.6508789 C7.98095703,12.9555664 8.14599609,13.0888672 8.43164062,13.0888672 Z M6.73681641,9.40722656 L3.76611328,9.40722656 L5.23242188,5.23046875 L5.27050781,5.23046875 L6.73681641,9.40722656 Z" id="Aa" fill="#000000" fill-rule="nonzero"></path>
        <path d="M12.4691406,6.28417969 C14.0179688,6.28417969 14.9955078,7.12207031 14.9955078,8.43603516 L14.9955078,8.43603516 L14.9955078,12.5556641 C14.9955078,12.8857422 14.7796875,13.1142578 14.475,13.1142578 C14.1639648,13.1142578 13.9481445,12.8857422 13.9481445,12.5556641 L13.9481445,12.5556641 L13.9481445,11.8637695 L13.9227539,11.8637695 C13.5291992,12.6191406 12.6849609,13.1142578 11.7962891,13.1142578 C10.4823242,13.1142578 9.6,12.3208008 9.6,11.1337891 C9.6,10.0039062 10.4696289,9.29296875 11.9930664,9.20410156 L11.9930664,9.20410156 L13.8910156,9.09619141 L13.8910156,8.54394531 C13.8910156,7.73779297 13.3578125,7.25537109 12.44375,7.25537109 C11.7264648,7.25537109 11.2376953,7.515625 10.8695313,8.16943359 C10.7679688,8.35351562 10.6219727,8.43603516 10.4125,8.43603516 C10.1268555,8.43603516 9.92373047,8.23925781 9.92373047,7.94091797 C9.92373047,7.80126953 9.96816406,7.64257812 10.0570313,7.48388672 C10.431543,6.76025391 11.3963867,6.28417969 12.4691406,6.28417969 Z M13.8910156,9.953125 L12.1200195,10.0610352 C11.2313477,10.1181641 10.7235352,10.5117188 10.7235352,11.1337891 C10.7235352,11.762207 11.2503906,12.1748047 12.0438477,12.1748047 C13.0848633,12.1748047 13.8910156,11.4448242 13.8910156,10.4926758 L13.8910156,10.4926758 L13.8910156,9.953125 Z" id="Combined-Shape" fill="#000000" fill-rule="nonzero"></path>
    </g>
</svg>