<?xml version="1.0" encoding="UTF-8"?>
<svg width="17px" height="17px" viewBox="0 0 17 17" version="1.1" xmlns="http://www.w3.org/2000/svg" xmlns:xlink="http://www.w3.org/1999/xlink">
    <title>Mac/Monochrome/17x17/img.transform.17</title>
    <g id="Mac/Monochrome/17x17/img.transform.17" stroke="none" stroke-width="1" fill="none" fill-rule="evenodd">
        <path d="M2.5,12.5 L2.5,3.5 C2.5,2.94771525 2.94771525,2.5 3.5,2.5 L13.5,2.5 C14.0522847,2.5 14.5,2.94771525 14.5,3.5 L14.5,12.5 L14.5,12.5" id="Path" stroke="#000000"></path>
        <path d="M10.5,5.5 C10.5,6.05228475 10.9477153,6.5 11.5,6.5 C11.6233257,6.5 11.7414373,6.47767543 11.8505138,6.43684705 L14.1484702,12.5635339 C13.7696072,12.7058181 13.5,13.071424 13.5,13.5 L13.5,13.5 L3.5,13.5 C3.5,13.0714765 3.2304589,12.7059078 2.85166924,12.5635862 L5.14847017,6.43646613 C5.25782918,6.47753655 5.37629128,6.5 5.5,6.5 C6.05228475,6.5 6.5,6.05228475 6.5,5.5 L6.5,5.5 Z" id="Combined-Shape" fill-opacity="0.2" fill="#000000"></path>
        <path d="M13.6342136,12.9992549 C13.5488618,13.1465099 13.5,13.3175488 13.5,13.5 C13.5,13.6824512 13.5488618,13.8534901 13.6342136,14.0007451 L3.36578637,14.0007451 C3.45113822,13.8534901 3.5,13.6824512 3.5,13.5 C3.5,13.3175488 3.45113822,13.1465099 3.36578637,12.9992549 Z M12.2727127,6.13480132 L14.6654357,12.5136207 C14.6116224,12.5046618 14.5563556,12.5 14.5,12.5 C14.1883049,12.5 13.9099171,12.6426053 13.7265215,12.866131 L11.3345643,6.48637931 C11.3883776,6.49533824 11.4436444,6.5 11.5,6.5 C11.8112615,6.5 12.0893084,6.35779113 12.2727127,6.13480132 Z M4.72728732,6.13480132 C4.91069161,6.35779113 5.18873847,6.5 5.5,6.5 C5.55600336,6.5 5.61093148,6.49539633 5.66442657,6.48654679 L3.27261818,12.8650838 C3.08921289,12.64216 2.81120807,12.5 2.5,12.5 C2.4438475,12.5 2.38877597,12.5046282 2.33514608,12.513524 Z M10.6345781,4.99862666 C10.5490009,5.14602328 10.5,5.31728926 10.5,5.5 C10.5,5.68245121 10.5488618,5.85349014 10.6342136,6.00074508 L6.36578637,6.00074508 C6.45113822,5.85349014 6.5,5.68245121 6.5,5.5 C6.5,5.31728926 6.45099911,5.14602328 6.36542191,4.99862666 Z" id="Combined-Shape" fill="#000000" fill-rule="nonzero"></path>
        <g id="circles" transform="translate(1.000000, 4.050253)" fill-rule="nonzero" stroke="#000000">
            <circle id="Oval-5" cx="4.5" cy="1.5" r="1"></circle>
            <circle id="Oval-5" cx="10.5" cy="1.5" r="1"></circle>
            <circle id="Oval-5" cx="13.5" cy="9.5" r="1"></circle>
            <circle id="Oval-5" cx="1.5" cy="9.5" r="1"></circle>
        </g>
    </g>
</svg>