<?xml version="1.0" encoding="UTF-8"?>
<svg width="17px" height="17px" viewBox="0 0 17 17" version="1.1" xmlns="http://www.w3.org/2000/svg" xmlns:xlink="http://www.w3.org/1999/xlink">
    <title>Mac/Monochrome/17x17/img.triangle.17</title>
    <g id="Mac/Monochrome/17x17/img.triangle.17" stroke="none" stroke-width="1" fill="none" fill-rule="evenodd" fill-opacity="0.2">
        <path d="M8.22527887,2.62716509 C8.47135431,2.55685783 8.74425106,2.58042517 8.98564293,2.71453177 C9.148883,2.80522069 9.28346835,2.93980605 9.37415728,3.10304611 L9.37415728,3.10304611 L14.3248856,12.0143571 C14.4589922,12.2557489 14.4825595,12.5286457 14.4122523,12.7747211 C14.341945,13.0207966 14.1777631,13.2400507 13.9363712,13.3741573 C13.7878132,13.4566895 13.6206726,13.5 13.4507283,13.5 L13.4507283,13.5 L3.54927169,13.5 C3.27312932,13.5 3.02312932,13.3880712 2.84216491,13.2071068 C2.6612005,13.0261424 2.54927169,12.7761424 2.54927169,12.5 C2.54927169,12.3300558 2.59258219,12.1629151 2.67511441,12.0143571 L2.67511441,12.0143571 L7.62584272,3.10304611 C7.75994932,2.86165424 7.97920343,2.69747236 8.22527887,2.62716509 Z" id="Triangle-2" stroke="#000000" fill="#000000"></path>
    </g>
</svg>