<?xml version="1.0" encoding="UTF-8"?>
<svg width="17px" height="17px" viewBox="0 0 17 17" version="1.1" xmlns="http://www.w3.org/2000/svg" xmlns:xlink="http://www.w3.org/1999/xlink">
    <title>Mac/Monochrome/17x17/img.triangles.2.horizontal.17</title>
    <g id="Mac/Monochrome/17x17/img.triangles.2.horizontal.17" stroke="none" stroke-width="1" fill="none" fill-rule="evenodd">
        <path d="M6.80304035,3.73300989 C7.28060993,3.7663099 7.3591861,3.83125641 7.41403362,3.912268 C7.46888113,3.99327959 7.5,4.09035626 7.5,4.1925824 L7.5,4.1925824 L7.5,13 C7.5,13.1380712 7.44403559,13.2630712 7.35355339,13.3535534 C7.26307119,13.4440356 7.13807119,13.5 7,13.5 L7,13.5 L3.47703296,13.5 C3.33896177,13.5 3.21396177,13.4440356 3.12347957,13.3535534 C3.05054281,13.2806166 3.00003504,13.1852509 2.98318958,13.0786895 L2.98318958,13.0786895 L6.53576165,4.00688707 C6.58704001,3.87869119 6.68542549,3.78341626 6.80304035,3.73300989 Z" id="Rectangle" stroke="#000000"></path>
        <path d="M13.8030404,3.73300989 C14.2806099,3.7663099 14.3591861,3.83125641 14.4140336,3.912268 C14.4688811,3.99327959 14.5,4.09035626 14.5,4.1925824 L14.5,4.1925824 L14.5,13 C14.5,13.1380712 14.4440356,13.2630712 14.3535534,13.3535534 C14.2630712,13.4440356 14.1380712,13.5 14,13.5 L14,13.5 L10.477033,13.5 C10.3389618,13.5 10.2139618,13.4440356 10.1234796,13.3535534 C10.0505428,13.2806166 10.000035,13.1852509 9.98318958,13.0786895 L9.98318958,13.0786895 L13.5357617,4.00688707 C13.58704,3.87869119 13.6854255,3.78341626 13.8030404,3.73300989 Z" id="Rectangle" stroke="#000000" fill-opacity="0.2" fill="#000000" transform="translate(12.000000, 6.500000) scale(-1, 1) translate(-12.000000, -6.500000) "></path>
    </g>
</svg>