<?xml version="1.0" encoding="UTF-8"?>
<svg width="17px" height="17px" viewBox="0 0 17 17" version="1.1" xmlns="http://www.w3.org/2000/svg" xmlns:xlink="http://www.w3.org/1999/xlink">
    <title>Mac/Monochrome/17x17/img.triangles.2.vertical.17</title>
    <g id="Mac/Monochrome/17x17/img.triangles.2.vertical.17" stroke="none" stroke-width="1" fill="none" fill-rule="evenodd">
        <g id="Group" transform="translate(10.500000, 8.500000) rotate(90.000000) translate(-10.500000, -8.500000) translate(4.000000, 1.000000)" stroke="#000000">
            <path d="M4.80304035,4.73300989 C5.28060993,4.7663099 5.3591861,4.83125641 5.41403362,4.912268 C5.46888113,4.99327959 5.5,5.09035626 5.5,5.1925824 L5.5,5.1925824 L5.5,14 C5.5,14.1380712 5.44403559,14.2630712 5.35355339,14.3535534 C5.26307119,14.4440356 5.13807119,14.5 5,14.5 L5,14.5 L1.47703296,14.5 C1.33896177,14.5 1.21396177,14.4440356 1.12347957,14.3535534 C1.05054281,14.2806166 1.00003504,14.1852509 0.983189583,14.0786895 L0.983189583,14.0786895 L4.53576165,5.00688707 C4.58704001,4.87869119 4.68542549,4.78341626 4.80304035,4.73300989 Z" id="Rectangle"></path>
            <path d="M11.8030404,4.73300989 C12.2806099,4.7663099 12.3591861,4.83125641 12.4140336,4.912268 C12.4688811,4.99327959 12.5,5.09035626 12.5,5.1925824 L12.5,5.1925824 L12.5,14 C12.5,14.1380712 12.4440356,14.2630712 12.3535534,14.3535534 C12.2630712,14.4440356 12.1380712,14.5 12,14.5 L12,14.5 L8.47703296,14.5 C8.33896177,14.5 8.21396177,14.4440356 8.12347957,14.3535534 C8.05054281,14.2806166 8.00003504,14.1852509 7.98318958,14.0786895 L7.98318958,14.0786895 L11.5357617,5.00688707 C11.58704,4.87869119 11.6854255,4.78341626 11.8030404,4.73300989 Z" id="Rectangle" fill-opacity="0.2" fill="#000000" transform="translate(10.000000, 7.500000) scale(-1, 1) translate(-10.000000, -7.500000) "></path>
        </g>
    </g>
</svg>