<?xml version="1.0" encoding="UTF-8"?>
<svg width="17px" height="17px" viewBox="0 0 17 17" version="1.1" xmlns="http://www.w3.org/2000/svg" xmlns:xlink="http://www.w3.org/1999/xlink">
    <title>Mac/Monochrome/17x17/img.vector.round.half.17</title>
    <g id="Mac/Monochrome/17x17/img.vector.round.half.17" stroke="none" stroke-width="1" fill="none" fill-rule="evenodd">
        <g id="Group" transform="translate(2.000000, 2.000000)">
            <path d="M5.08546063,0.999695167 C5.03011621,1.15617076 5,1.32456837 5,1.5 C5,2.32842712 5.67157288,3 6.5,3 C7.32842712,3 8,2.32842712 8,1.5 C8,1.32456837 7.96988379,1.15617076 7.91453937,0.999695167 L10.0854606,0.999695167 C10.0301162,1.15617076 10,1.32456837 10,1.5 C10,2.32842712 10.6715729,3 11.5,3 C11.6755804,3 11.8441149,2.96983268 12.000703,2.91439849 L12.000703,5.08560151 C11.8441149,5.03016732 11.6755804,5 11.5,5 C10.6715729,5 10,5.67157288 10,6.5 C10,7.32842712 10.6715729,8 11.5,8 C11.6755804,8 11.8441149,7.96983268 12.000703,7.91439849 L12.000703,10.0856015 C11.8441149,10.0301673 11.6755804,10 11.5,10 C10.6715729,10 10,10.6715729 10,11.5 C10,11.6755804 10.0301673,11.8441149 10.0856015,12.000703 L7.91439849,12.000703 C7.96983268,11.8441149 8,11.6755804 8,11.5 C8,10.6715729 7.32842712,10 6.5,10 C5.67157288,10 5,10.6715729 5,11.5 C5,11.6755804 5.03016732,11.8441149 5.08560151,12.000703 L2.91439849,12.000703 C2.96983268,11.8441149 3,11.6755804 3,11.5 C3,10.6715729 2.32842712,10 1.5,10 C1.32456837,10 1.15617076,10.0301162 0.999695167,10.0854606 L0.999695167,7.91453937 C1.15617076,7.96988379 1.32456837,8 1.5,8 C2.32842712,8 3,7.32842712 3,6.5 C3,5.67157288 2.32842712,5 1.5,5 C1.32456837,5 1.15617076,5.03011621 0.999695167,5.08546063 L0.999695167,2.91453937 C1.15617076,2.96988379 1.32456837,3 1.5,3 C2.32842712,3 3,2.32842712 3,1.5 C3,1.32456837 2.96988379,1.15617076 2.91453937,0.999695167 Z M6.5,5 C5.67157288,5 5,5.67157288 5,6.5 C5,7.32842712 5.67157288,8 6.5,8 C7.32842712,8 8,7.32842712 8,6.5 C8,5.67157288 7.32842712,5 6.5,5 Z" id="Combined-Shape" fill-opacity="0.2" fill="#000000"></path>
            <rect id="Rectangle-3" stroke="#000000" x="0.5" y="0.5" width="2" height="2" rx="1"></rect>
            <rect id="Rectangle-3" stroke="#000000" x="0.5" y="5.5" width="2" height="2" rx="1"></rect>
            <rect id="Rectangle-3" stroke="#000000" x="10.5" y="5.5" width="2" height="2" rx="1"></rect>
            <rect id="Rectangle-3" stroke="#000000" x="5.5" y="0.5" width="2" height="2" rx="1"></rect>
            <rect id="Rectangle-3" stroke="#000000" x="5.5" y="5.5" width="2" height="2" rx="1"></rect>
            <rect id="Rectangle-3" stroke="#000000" x="5.5" y="10.5" width="2" height="2" rx="1"></rect>
            <rect id="Rectangle-3" stroke="#000000" x="10.5" y="0.5" width="2" height="2" rx="1"></rect>
            <rect id="Rectangle-3" stroke="#000000" x="10.5" y="10.5" width="2" height="2" rx="1"></rect>
            <rect id="Rectangle-3" stroke="#000000" x="0.5" y="10.5" width="2" height="2" rx="1"></rect>
        </g>
    </g>
</svg>